SplineFontDB: 3.0
FontName: KAN-KaveriBoldItalic
FullName: KAN Kaveri Bold Italic
FamilyName: KAN Kaveri
Weight: Bold
Copyright: Copyright (c) 2009-2015, NLCI (http://www.nlci.in/fonts/)
Version: 1.0 Wed May 17 15:32:13 1995
ItalicAngle: 12
UnderlinePosition: -290
UnderlineWidth: 20
Ascent: 800
Descent: 200
InvalidEm: 0
LayerCount: 2
Layer: 0 0 "Back" 1
Layer: 1 0 "Fore" 0
XUID: [1021 122 585067096 5556871]
FSType: 0
OS2Version: 0
OS2_WeightWidthSlopeOnly: 0
OS2_UseTypoMetrics: 1
CreationTime: 1250825690
ModificationTime: 1533087723
PfmFamily: 81
TTFWeight: 700
TTFWidth: 5
LineGap: 0
VLineGap: 0
Panose: 2 0 0 3 0 0 0 0 0 0
OS2TypoAscent: -72
OS2TypoAOffset: 1
OS2TypoDescent: -196
OS2TypoDOffset: 1
OS2TypoLinegap: 0
OS2WinAscent: -228
OS2WinAOffset: 1
OS2WinDescent: -104
OS2WinDOffset: 1
HheadAscent: -228
HheadAOffset: 1
HheadDescent: 104
HheadDOffset: 1
OS2SubXSize: 700
OS2SubYSize: 650
OS2SubXOff: 0
OS2SubYOff: 143
OS2SupXSize: 700
OS2SupYSize: 650
OS2SupXOff: 0
OS2SupYOff: 453
OS2StrikeYSize: 50
OS2StrikeYPos: 259
OS2Vendor: 'Alts'
OS2UnicodeRanges: 00000000.00000000.00000000.00000000
Lookup: 262 0 0 "blwm" { "blwm-2sub"  } []
MarkAttachClasses: 1
DEI: 91125
TtTable: prep
NPUSHB
 1
 1
SCANTYPE
PUSHW_1
 511
SCANCTRL
EndTTInstrs
ShortTable: maxp 16
  1
  0
  319
  206
  5
  177
  6
  2
  8
  64
  10
  0
  3
  417
  4
  2
EndShort
LangName: 1033 "" "" "Bold Italic" "NLCI:KAN Kaveri Bold Italic" "" "1.0 Wed May 17 15:32:13 1995"
Encoding: Original
Compacted: 1
UnicodeInterp: none
NameList: Adobe Glyph List
DisplaySize: -48
AntiAlias: 1
FitToEm: 1
WinInfo: 0 36 12
BeginPrivate: 0
EndPrivate
AnchorClass2: "Sub" "blwm-2sub" "Nukta"""  "s"""  "V""" 
BeginChars: 572 313

StartChar: .notdef
Encoding: 0 -1 0
Width: 500
Flags: HW
LayerCount: 2
Fore
SplineSet
31 0 m 1
 31 604 l 1
 469 604 l 1
 469 0 l 1
 31 0 l 1
438 31 m 1
 438 573 l 1
 62 573 l 1
 62 31 l 1
 438 31 l 1
EndSplineSet
EndChar

StartChar: exclam
Encoding: 4 33 4
Width: 389
VWidth: 500
Flags: HW
LayerCount: 2
Fore
SplineSet
347 631 m 0
 329.666666667 578 312.666666667 526.166666667 296 475.5 c 0
 289 453.833333333 281.583333333 431.333333333 273.75 408 c 0
 265.916666667 384.666666667 258.25 361.5 250.75 338.5 c 0
 243.25 315.5 235.916666667 293.25 228.75 271.75 c 0
 221.583333333 250.25 215 230.666666667 209 213 c 0
 153.5 213 l 0
 177 607 l 0
 177 621.333333333 179.833333333 634.416666667 185.5 646.25 c 0
 191.166666667 658.083333333 198.666666667 668.25 208 676.75 c 0
 217.333333333 685.25 228.083333333 691.833333333 240.25 696.5 c 0
 252.416666667 701.166666667 264.833333333 703.5 277.5 703.5 c 0
 302.5 703.5 320.333333333 697.666666667 331 686 c 0
 341.666666667 674.333333333 347 656 347 631 c 0
246 66.5 m 0
 246 55.1666666667 243.75 44.6666666667 239.25 35 c 0
 234.75 25.3333333333 228.666666667 17 221 10 c 0
 213.333333333 3 204.416666667 -2.5 194.25 -6.5 c 0
 184.083333333 -10.5 173.333333333 -12.5 162 -12.5 c 0
 151 -12.5 140.833333333 -10.25 131.5 -5.75 c 0
 122.166666667 -1.25 114 4.83333333333 107 12.5 c 0
 100 20.1666666667 94.5833333333 29 90.75 39 c 0
 86.9166666667 49 85 59.5 85 70.5 c 0
 85 81.8333333333 87 92.4166666667 91 102.25 c 0
 95 112.083333333 100.5 120.75 107.5 128.25 c 0
 114.5 135.75 122.75 141.666666667 132.25 146 c 0
 141.75 150.333333333 152 152.5 163 152.5 c 0
 175.333333333 152.5 186.583333333 150.166666667 196.75 145.5 c 0
 206.916666667 140.833333333 215.666666667 134.583333333 223 126.75 c 0
 230.333333333 118.916666667 236 109.75 240 99.25 c 0
 244 88.75 246 77.8333333333 246 66.5 c 0
EndSplineSet
EndChar

StartChar: quotedbl
Encoding: 5 34 5
Width: 385
VWidth: 500
Flags: HW
LayerCount: 2
Fore
SplineSet
431 685 m 0
 431 681.666666667 429.166666667 674 425.5 662 c 0
 421.833333333 650 417.083333333 635.666666667 411.25 619 c 0
 405.416666667 602.333333333 398.916666667 584.25 391.75 564.75 c 0
 384.583333333 545.25 377.666666667 526.5 371 508.5 c 0
 364.333333333 490.5 358.333333333 474.166666667 353 459.5 c 0
 347.666666667 444.833333333 343.666666667 434 341 427 c 0
 303 427 l 0
 311.5 666.5 l 0
 311.833333333 675.833333333 314 684.416666667 318 692.25 c 0
 322 700.083333333 327.333333333 706.833333333 334 712.5 c 0
 340.666666667 718.166666667 348.166666667 722.666666667 356.5 726 c 0
 364.833333333 729.333333333 373.333333333 731 382 731 c 0
 397 731 408.916666667 727.333333333 417.75 720 c 0
 426.583333333 712.666666667 431 701 431 685 c 0
230.5 685 m 0
 230.5 681.666666667 228.666666667 674 225 662 c 0
 221.333333333 650 216.583333333 635.666666667 210.75 619 c 0
 204.916666667 602.333333333 198.416666667 584.25 191.25 564.75 c 0
 184.083333333 545.25 177.166666667 526.5 170.5 508.5 c 0
 163.833333333 490.5 157.75 474.166666667 152.25 459.5 c 0
 146.75 444.833333333 142.833333333 434 140.5 427 c 0
 102.5 427 l 0
 109.5 666.5 l 0
 109.833333333 675.833333333 112.166666667 684.416666667 116.5 692.25 c 0
 120.833333333 700.083333333 126.333333333 706.833333333 133 712.5 c 0
 139.666666667 718.166666667 147.166666667 722.666666667 155.5 726 c 0
 163.833333333 729.333333333 172.333333333 731 181 731 c 0
 196 731 208 727.333333333 217 720 c 0
 226 712.666666667 230.5 701 230.5 685 c 0
EndSplineSet
EndChar

StartChar: numbersign
Encoding: 6 35 6
Width: 759
VWidth: 500
Flags: HW
LayerCount: 2
Fore
SplineSet
539.5 424 m 0
 495.5 289 l 0
 654.5 289 l 0
 654.5 224.5 l 0
 473 224.5 l 0
 395.5 -24.5 l 0
 324.5 -7 l 0
 400.5 224.5 l 0
 272.5 224.5 l 0
 192.5 -24.5 l 0
 124 -6 l 0
 200.5 224.5 l 0
 63.5 224.5 l 0
 63.5 289 l 0
 221 289 l 0
 265 424 l 0
 113.5 424 l 0
 113.5 491.5 l 0
 286.5 491.5 l 0
 365.5 727 l 0
 434 708.5 l 0
 358.5 491.5 l 0
 491.5 491.5 l 0
 567.5 727 l 0
 638 707.5 l 0
 561 491.5 l 0
 695.5 491.5 l 0
 695.5 424 l 0
 539.5 424 l 0
339 424 m 0
 294 289 l 0
 421 289 l 0
 468 424 l 0
 339 424 l 0
EndSplineSet
EndChar

StartChar: dollar
Encoding: 7 36 7
Width: 612
VWidth: 500
Flags: HW
LayerCount: 2
Fore
SplineSet
347 618.5 m 0
 333 616.5 319.833333333 612 307.5 605 c 0
 296.833333333 598.666666667 286.5 589.333333333 276.5 577 c 0
 266.5 564.666666667 259.333333333 547.5 255 525.5 c 0
 253 515.166666667 252.166666667 505.75 252.5 497.25 c 0
 252.833333333 488.75 254.166666667 481.166666667 256.5 474.5 c 0
 258.833333333 467.833333333 261.666666667 462 265 457 c 0
 268.333333333 452 272 447.666666667 276 444 c 0
 285 435.333333333 296 429 309 425 c 0
 347 618.5 l 0
410.5 173 m 0
 413.833333333 190 413.583333333 204.333333333 409.75 216 c 0
 405.916666667 227.666666667 400.166666667 237.333333333 392.5 245 c 0
 384.833333333 252.666666667 376.166666667 258.75 366.5 263.25 c 0
 356.833333333 267.75 348 271.166666667 340 273.5 c 0
 299 66.5 l 0
 316.333333333 68.8333333333 332.5 74.1666666667 347.5 82.5 c 0
 353.833333333 85.8333333333 360.25 90.1666666667 366.75 95.5 c 0
 373.25 100.833333333 379.333333333 107.083333333 385 114.25 c 0
 390.666666667 121.416666667 395.666666667 129.833333333 400 139.5 c 0
 404.333333333 149.166666667 407.833333333 160.333333333 410.5 173 c 0
566.5 483.5 m 0
 495.5 483.5 l 0
 497.5 591 l 0
 498.166666667 595 497.666666667 597.75 496 599.25 c 0
 494.333333333 600.75 492.166666667 602 489.5 603 c 0
 484.5 605.333333333 478 607.583333333 470 609.75 c 0
 462 611.916666667 454 613.916666667 446 615.75 c 0
 438 617.583333333 430.5 619 423.5 620 c 0
 416.5 621 411.5 621.5 408.5 621.5 c 0
 366.5 410.5 l 0
 377.166666667 407.5 389.666666667 403.75 404 399.25 c 0
 418.333333333 394.75 433 389.083333333 448 382.25 c 0
 463 375.416666667 477.583333333 367.083333333 491.75 357.25 c 0
 505.916666667 347.416666667 517.916666667 335.583333333 527.75 321.75 c 0
 537.583333333 307.916666667 544.583333333 291.833333333 548.75 273.5 c 0
 552.916666667 255.166666667 552.666666667 234 548 210 c 0
 542.333333333 180.666666667 531.75 154.166666667 516.25 130.5 c 0
 500.75 106.833333333 481.5 86.1666666667 458.5 68.5 c 0
 435.5 50.8333333333 409.25 36.3333333333 379.75 25 c 0
 350.25 13.6666666667 318.833333333 5.66666666667 285.5 1 c 0
 265 -104.5 l 0
 205 -104.5 l 0
 225.5 0 l 0
 201.5 1 177.666666667 3 154 6 c 0
 133.333333333 8.66666666667 111.25 12.1666666667 87.75 16.5 c 0
 64.25 20.8333333333 42.1666666667 26.6666666667 21.5 34 c 0
 56.5 211 l 0
 130 211 l 0
 127 100.5 l 0
 127 93.5 l 0
 127 92.1666666667 127.25 91.1666666667 127.75 90.5 c 0
 128.25 89.8333333333 129 89.25 130 88.75 c 0
 131 88.25 132.666666667 87.3333333333 135 86 c 0
 144.666666667 80.3333333333 155.416666667 76.0833333333 167.25 73.25 c 0
 179.083333333 70.4166666667 190.333333333 68.1666666667 201 66.5 c 0
 213 64.8333333333 225.166666667 63.8333333333 237.5 63.5 c 0
 281.5 289 l 0
 269.5 292.666666667 256.5 297 242.5 302 c 0
 228.5 307 214.666666667 313 201 320 c 0
 187.333333333 327 174.5 335.416666667 162.5 345.25 c 0
 150.5 355.083333333 140.416666667 366.75 132.25 380.25 c 0
 124.083333333 393.75 118.5 409.416666667 115.5 427.25 c 0
 112.5 445.083333333 113.333333333 465.5 118 488.5 c 0
 122.333333333 511.833333333 129.25 532.5 138.75 550.5 c 0
 148.25 568.5 159.083333333 584.333333333 171.25 598 c 0
 183.416666667 611.666666667 196.583333333 623.25 210.75 632.75 c 0
 224.916666667 642.25 239 650.166666667 253 656.5 c 0
 286 671.5 321.833333333 680.666666667 360.5 684 c 0
 376 760 l 0
 436 760 l 0
 421 684 l 0
 442 684 463.083333333 682.416666667 484.25 679.25 c 0
 505.416666667 676.083333333 524.666666667 672.666666667 542 669 c 0
 562 664.666666667 581.333333333 659.833333333 600 654.5 c 0
 566.5 483.5 l 0
EndSplineSet
EndChar

StartChar: percent
Encoding: 8 37 8
Width: 921
VWidth: 500
Flags: HW
LayerCount: 2
Fore
SplineSet
881.5 267.5 m 0
 881.5 244.833333333 879.5 222.083333333 875.5 199.25 c 0
 871.5 176.416666667 865.416666667 154.416666667 857.25 133.25 c 0
 849.083333333 112.083333333 838.75 92.4166666667 826.25 74.25 c 0
 813.75 56.0833333333 799.166666667 40.25 782.5 26.75 c 0
 765.833333333 13.25 747 2.66666666667 726 -5 c 0
 705 -12.6666666667 681.833333333 -16.5 656.5 -16.5 c 0
 609.5 -16.5 574.5 -4.16666666667 551.5 20.5 c 0
 528.5 45.1666666667 517 80.6666666667 517 127 c 0
 517 149.333333333 519 171.916666667 523 194.75 c 0
 527 217.583333333 533 239.583333333 541 260.75 c 0
 549 281.916666667 559.166666667 301.666666667 571.5 320 c 0
 583.833333333 338.333333333 598.333333333 354.25 615 367.75 c 0
 631.666666667 381.25 650.5 391.916666667 671.5 399.75 c 0
 692.5 407.583333333 715.833333333 411.5 741.5 411.5 c 0
 788.166666667 411.5 823.166666667 399.083333333 846.5 374.25 c 0
 869.833333333 349.416666667 881.5 313.833333333 881.5 267.5 c 0
231.5 0 m 0
 157.5 0 l 0
 719 687 l 0
 793.5 687 l 0
 231.5 0 l 0
434 559 m 0
 434 536.333333333 432 513.666666667 428 491 c 0
 424 468.333333333 417.916666667 446.416666667 409.75 425.25 c 0
 401.583333333 404.083333333 391.333333333 384.333333333 379 366 c 0
 366.666666667 347.666666667 352.25 331.75 335.75 318.25 c 0
 319.25 304.75 300.5 294.083333333 279.5 286.25 c 0
 258.5 278.416666667 235.333333333 274.5 210 274.5 c 0
 162.666666667 274.5 127.25 287.166666667 103.75 312.5 c 0
 80.25 337.833333333 68.5 373.666666667 68.5 420 c 0
 68.5 453.666666667 73.0833333333 487.416666667 82.25 521.25 c 0
 91.4166666667 555.083333333 105.333333333 585.5 124 612.5 c 0
 142.666666667 639.5 166.166666667 661.416666667 194.5 678.25 c 0
 222.833333333 695.083333333 256 703.5 294 703.5 c 0
 340.666666667 703.5 375.666666667 691.083333333 399 666.25 c 0
 422.333333333 641.416666667 434 605.666666667 434 559 c 0
774 292 m 0
 774 299 773.5 306.666666667 772.5 315 c 0
 771.5 323.333333333 769.5 331.083333333 766.5 338.25 c 0
 763.5 345.416666667 759.166666667 351.416666667 753.5 356.25 c 0
 747.833333333 361.083333333 740.333333333 363.5 731 363.5 c 0
 717 363.5 704.583333333 358.666666667 693.75 349 c 0
 682.916666667 339.333333333 673.333333333 326.916666667 665 311.75 c 0
 656.666666667 296.583333333 649.583333333 279.5 643.75 260.5 c 0
 637.916666667 241.5 633.083333333 222.666666667 629.25 204 c 0
 625.416666667 185.333333333 622.666666667 167.833333333 621 151.5 c 0
 619.333333333 135.166666667 618.5 121.833333333 618.5 111.5 c 0
 618.5 103.5 619 94.8333333333 620 85.5 c 0
 621 76.1666666667 623.166666667 67.5 626.5 59.5 c 0
 629.833333333 51.5 634.583333333 44.8333333333 640.75 39.5 c 0
 646.916666667 34.1666666667 655.166666667 31.5 665.5 31.5 c 0
 678.833333333 31.5 690.75 36.5833333333 701.25 46.75 c 0
 711.75 56.9166666667 721 70 729 86 c 0
 737 102 743.916666667 119.916666667 749.75 139.75 c 0
 755.583333333 159.583333333 760.25 179.166666667 763.75 198.5 c 0
 767.25 217.833333333 769.833333333 235.833333333 771.5 252.5 c 0
 773.166666667 269.166666667 774 282.333333333 774 292 c 0
327.5 582.5 m 0
 327.5 589.833333333 327 597.833333333 326 606.5 c 0
 325 615.166666667 323 623.083333333 320 630.25 c 0
 317 637.416666667 312.666666667 643.416666667 307 648.25 c 0
 301.333333333 653.083333333 293.833333333 655.5 284.5 655.5 c 0
 270.5 655.5 258 650.75 247 641.25 c 0
 236 631.75 226.25 619.416666667 217.75 604.25 c 0
 209.25 589.083333333 202.083333333 572.083333333 196.25 553.25 c 0
 190.416666667 534.416666667 185.583333333 515.75 181.75 497.25 c 0
 177.916666667 478.75 175.166666667 461.333333333 173.5 445 c 0
 171.833333333 428.666666667 171 415.5 171 405.5 c 0
 171 397.166666667 171.5 388.166666667 172.5 378.5 c 0
 173.5 368.833333333 175.75 359.833333333 179.25 351.5 c 0
 182.75 343.166666667 187.583333333 336.25 193.75 330.75 c 0
 199.916666667 325.25 208.333333333 322.5 219 322.5 c 0
 232 322.5 243.75 327.583333333 254.25 337.75 c 0
 264.75 347.916666667 274.083333333 361.083333333 282.25 377.25 c 0
 290.416666667 393.416666667 297.333333333 411.416666667 303 431.25 c 0
 308.666666667 451.083333333 313.333333333 470.583333333 317 489.75 c 0
 320.666666667 508.916666667 323.333333333 526.833333333 325 543.5 c 0
 326.666666667 560.166666667 327.5 573.166666667 327.5 582.5 c 0
EndSplineSet
EndChar

StartChar: ampersand
Encoding: 9 38 9
Width: 763
VWidth: 500
Flags: HW
LayerCount: 2
Fore
SplineSet
654.5 312.5 m 0
 639.833333333 283.166666667 621.75 253 600.25 222 c 0
 578.75 191 555.166666667 162 529.5 135 c 0
 541.833333333 119 553.666666667 105.833333333 565 95.5 c 0
 576.333333333 85.1666666667 588.416666667 77 601.25 71 c 0
 614.083333333 65 628.083333333 60.9166666667 643.25 58.75 c 0
 658.416666667 56.5833333333 675.833333333 55.5 695.5 55.5 c 0
 695.5 2 l 0
 670.833333333 1 651.666666667 0 638 -1 c 0
 624.333333333 -2 612.666666667 -2.66666666667 603 -3 c 0
 577 -5 551.166666667 -4 525.5 0 c 0
 508.5 3.66666666667 492.916666667 9.66666666667 478.75 18 c 0
 464.583333333 26.3333333333 450 38.5 435 54.5 c 0
 421.666666667 45.5 407.416666667 37 392.25 29 c 0
 377.083333333 21 360.5 14 342.5 8 c 0
 324.5 2 305.083333333 -2.75 284.25 -6.25 c 0
 263.416666667 -9.75 240.666666667 -11.5 216 -11.5 c 0
 184 -11.5 155.416666667 -7.25 130.25 1.25 c 0
 105.083333333 9.75 83.75 21.5833333333 66.25 36.75 c 0
 48.75 51.9166666667 35.4166666667 70.0833333333 26.25 91.25 c 0
 17.0833333333 112.416666667 12.5 135.666666667 12.5 161 c 0
 12.5 186 17.0833333333 208.916666667 26.25 229.75 c 0
 35.4166666667 250.583333333 47.8333333333 269.833333333 63.5 287.5 c 0
 79.1666666667 305.166666667 97.6666666667 321.333333333 119 336 c 0
 140.333333333 350.666666667 163.166666667 364.333333333 187.5 377 c 0
 171.833333333 398 158.833333333 418.916666667 148.5 439.75 c 0
 138.166666667 460.583333333 133 483 133 507 c 0
 133 533.333333333 138.666666667 558.25 150 581.75 c 0
 161.333333333 605.25 177.75 625.75 199.25 643.25 c 0
 220.75 660.75 246.833333333 674.666666667 277.5 685 c 0
 308.166666667 695.333333333 343 700.5 382 700.5 c 0
 411 700.5 436.583333333 696.583333333 458.75 688.75 c 0
 480.916666667 680.916666667 499.416666667 670.5 514.25 657.5 c 0
 529.083333333 644.5 540.25 629.666666667 547.75 613 c 0
 555.25 596.333333333 559 579.333333333 559 562 c 0
 559 538 554 516.25 544 496.75 c 0
 534 477.25 519.916666667 459.5 501.75 443.5 c 0
 483.583333333 427.5 461.916666667 413.083333333 436.75 400.25 c 0
 411.583333333 387.416666667 383.833333333 375.833333333 353.5 365.5 c 0
 476 207 l 0
 488.333333333 223 499.333333333 239.333333333 509 256 c 0
 518.666666667 272.666666667 526.833333333 287.666666667 533.5 301 c 0
 534.166666667 302 534.166666667 303.833333333 533.5 306.5 c 0
 532.833333333 309.166666667 532.166666667 310.5 531.5 310.5 c 0
 471 320.5 l 0
 471 376 l 0
 730 376 l 0
 730 320.5 l 0
 654.5 312.5 l 0
418 554 m 0
 418 565 417.25 575.666666667 415.75 586 c 0
 414.25 596.333333333 411.416666667 605.5 407.25 613.5 c 0
 403.083333333 621.5 397.333333333 627.916666667 390 632.75 c 0
 382.666666667 637.583333333 373.166666667 640 361.5 640 c 0
 355.5 640 347.25 638.166666667 336.75 634.5 c 0
 326.25 630.833333333 315.916666667 624.833333333 305.75 616.5 c 0
 295.583333333 608.166666667 286.666666667 597.166666667 279 583.5 c 0
 271.333333333 569.833333333 267.5 553.166666667 267.5 533.5 c 0
 267.5 522.833333333 268.75 512.25 271.25 501.75 c 0
 273.75 491.25 277.083333333 481 281.25 471 c 0
 285.416666667 461 290.333333333 451.333333333 296 442 c 0
 301.666666667 432.666666667 307.5 423.833333333 313.5 415.5 c 0
 329.166666667 422.833333333 343.416666667 431.083333333 356.25 440.25 c 0
 369.083333333 449.416666667 380.083333333 459.583333333 389.25 470.75 c 0
 398.416666667 481.916666667 405.5 494.333333333 410.5 508 c 0
 415.5 521.666666667 418 537 418 554 c 0
231.5 316.5 m 0
 209.833333333 299.5 193 280.666666667 181 260 c 0
 169 239.333333333 163 216.166666667 163 190.5 c 0
 163 169.5 166.583333333 151.083333333 173.75 135.25 c 0
 180.916666667 119.416666667 189.833333333 106.166666667 200.5 95.5 c 0
 211.166666667 84.8333333333 222.583333333 76.8333333333 234.75 71.5 c 0
 246.916666667 66.1666666667 258.166666667 63.5 268.5 63.5 c 0
 279.166666667 63.5 289 64.5 298 66.5 c 0
 307 68.5 315.916666667 71.5 324.75 75.5 c 0
 333.583333333 79.5 342.833333333 84.6666666667 352.5 91 c 0
 362.166666667 97.3333333333 373 104.833333333 385 113.5 c 0
 231.5 316.5 l 0
EndSplineSet
EndChar

StartChar: quotesingle
Encoding: 10 39 10
Width: 179
VWidth: 500
Flags: HW
LayerCount: 2
Fore
SplineSet
230.5 685 m 0
 230.5 679.666666667 228.666666667 670.583333333 225 657.75 c 0
 221.333333333 644.916666667 216.583333333 630.083333333 210.75 613.25 c 0
 204.916666667 596.416666667 198.416666667 578.583333333 191.25 559.75 c 0
 184.083333333 540.916666667 177.166666667 522.916666667 170.5 505.75 c 0
 163.833333333 488.583333333 157.75 472.916666667 152.25 458.75 c 0
 146.75 444.583333333 142.833333333 434 140.5 427 c 0
 102.5 427 l 0
 109.5 666.5 l 0
 109.833333333 675.833333333 112.166666667 684.416666667 116.5 692.25 c 0
 120.833333333 700.083333333 126.333333333 706.833333333 133 712.5 c 0
 139.666666667 718.166666667 147.166666667 722.666666667 155.5 726 c 0
 163.833333333 729.333333333 172.333333333 731 181 731 c 0
 196 731 208 727.333333333 217 720 c 0
 226 712.666666667 230.5 701 230.5 685 c 0
EndSplineSet
EndChar

StartChar: parenleft
Encoding: 11 40 11
Width: 434
VWidth: 500
Flags: HW
LayerCount: 2
Fore
SplineSet
472 679 m 0
 446 675.666666667 422.25 667.25 400.75 653.75 c 0
 379.25 640.25 359.583333333 623.166666667 341.75 602.5 c 0
 323.916666667 581.833333333 307.916666667 558.166666667 293.75 531.5 c 0
 279.583333333 504.833333333 267.166666667 476.583333333 256.5 446.75 c 0
 245.833333333 416.916666667 236.666666667 386.333333333 229 355 c 0
 221.333333333 323.666666667 215.083333333 292.75 210.25 262.25 c 0
 205.416666667 231.75 201.916666667 202.583333333 199.75 174.75 c 0
 197.583333333 146.916666667 196.5 121.833333333 196.5 99.5 c 0
 196.5 77.1666666667 198.166666667 55.3333333333 201.5 34 c 0
 204.833333333 12.6666666667 211.083333333 -6.66666666667 220.25 -24 c 0
 229.416666667 -41.3333333333 242.083333333 -55.8333333333 258.25 -67.5 c 0
 274.416666667 -79.1666666667 295.166666667 -86.6666666667 320.5 -90 c 0
 309 -145.5 l 0
 266 -144.5 229.5 -136.416666667 199.5 -121.25 c 0
 169.5 -106.083333333 145.083333333 -85.75 126.25 -60.25 c 0
 107.416666667 -34.75 93.75 -4.91666666667 85.25 29.25 c 0
 76.75 63.4166666667 72.5 100.166666667 72.5 139.5 c 0
 72.5 180.166666667 76 222.833333333 83 267.5 c 0
 90 312.166666667 100.666666667 356.333333333 115 400 c 0
 129.333333333 443.666666667 147.583333333 485.333333333 169.75 525 c 0
 191.916666667 564.666666667 218.166666667 599.75 248.5 630.25 c 0
 278.833333333 660.75 313.583333333 685.333333333 352.75 704 c 0
 391.916666667 722.666666667 435.5 732.666666667 483.5 734 c 0
 472 679 l 0
EndSplineSet
EndChar

StartChar: parenright
Encoding: 12 41 12
Width: 434
VWidth: 500
Flags: HW
LayerCount: 2
Fore
SplineSet
361.5 449.5 m 0
 361.5 409.166666667 358.083333333 366.666666667 351.25 322 c 0
 344.416666667 277.333333333 333.75 233.166666667 319.25 189.5 c 0
 304.75 145.833333333 286.5 104.083333333 264.5 64.25 c 0
 242.5 24.4166666667 216.25 -10.8333333333 185.75 -41.5 c 0
 155.25 -72.1666666667 120.5 -96.8333333333 81.5 -115.5 c 0
 42.5 -134.166666667 -1 -144.166666667 -49 -145.5 c 0
 -39 -90 l 0
 -13 -86.6666666667 10.8333333333 -78.25 32.5 -64.75 c 0
 54.1666666667 -51.25 73.8333333333 -34.0833333333 91.5 -13.25 c 0
 109.166666667 7.58333333333 125.083333333 31.4166666667 139.25 58.25 c 0
 153.416666667 85.0833333333 165.916666667 113.416666667 176.75 143.25 c 0
 187.583333333 173.083333333 196.833333333 203.75 204.5 235.25 c 0
 212.166666667 266.75 218.416666667 297.666666667 223.25 328 c 0
 228.083333333 358.333333333 231.666666667 387.416666667 234 415.25 c 0
 236.333333333 443.083333333 237.5 468.166666667 237.5 490.5 c 0
 237.5 512.833333333 235.833333333 534.583333333 232.5 555.75 c 0
 229.166666667 576.916666667 222.916666667 596.083333333 213.75 613.25 c 0
 204.583333333 630.416666667 191.916666667 644.833333333 175.75 656.5 c 0
 159.583333333 668.166666667 138.833333333 675.666666667 113.5 679 c 0
 125 734 l 0
 167.666666667 732.666666667 204 724.5 234 709.5 c 0
 264 694.5 288.416666667 674.333333333 307.25 649 c 0
 326.083333333 623.666666667 339.833333333 593.916666667 348.5 559.75 c 0
 357.166666667 525.583333333 361.5 488.833333333 361.5 449.5 c 0
EndSplineSet
EndChar

StartChar: asterisk
Encoding: 13 42 13
Width: 512
VWidth: 500
Flags: HW
LayerCount: 2
Fore
SplineSet
477 518 m 0
 345 519 l 0
 339 534.5 l 0
 447.5 614.5 l 0
 522 584.5 l 0
 477 518 l 0
328.5 546 m 0
 312.5 546 l 0
 270.5 674 l 0
 320.5 735 l 0
 371.5 674 l 0
 328.5 546 l 0
446.5 346 m 0
 367.5 366.5 l 0
 326.5 493.5 l 0
 340 506 l 0
 448.5 426 l 0
 446.5 346 l 0
297 519 m 0
 164 518 l 0
 120 584.5 l 0
 192.5 614.5 l 0
 302 533.5 l 0
 297 519 l 0
274.5 366.5 m 0
 195.5 346 l 0
 192.5 426 l 0
 302 506 l 0
 315.5 493.5 l 0
 274.5 366.5 l 0
EndSplineSet
EndChar

StartChar: plus
Encoding: 14 43 14
Width: 1024
VWidth: 500
Flags: HW
LayerCount: 2
Fore
SplineSet
543.5 275.5 m 0
 543.5 0 l 0
 480.5 0 l 0
 480.5 275.5 l 0
 205 275.5 l 0
 205 339 l 0
 480.5 339 l 0
 480.5 614.5 l 0
 543.5 614.5 l 0
 543.5 339 l 0
 819 339 l 0
 819 275.5 l 0
 543.5 275.5 l 0
EndSplineSet
EndChar

StartChar: comma
Encoding: 15 44 15
Width: 328
VWidth: 500
Flags: HW
LayerCount: 2
Fore
SplineSet
205 86 m 0
 205 66 201.25 45.8333333333 193.75 25.5 c 0
 186.25 5.16666666667 176 -14.6666666667 163 -34 c 0
 150 -53.3333333333 134.916666667 -71.5833333333 117.75 -88.75 c 0
 100.583333333 -105.916666667 82.3333333333 -121 63 -134 c 0
 43.6666666667 -147 23.75 -157.583333333 3.25 -165.75 c 0
 -17.25 -173.916666667 -37.1666666667 -178.666666667 -56.5 -180 c 0
 -47 -130 l 0
 -28 -127.333333333 -10.0833333333 -122.333333333 6.75 -115 c 0
 23.5833333333 -107.666666667 38.6666666667 -98.25 52 -86.75 c 0
 65.3333333333 -75.25 76.5 -61.6666666667 85.5 -46 c 0
 94.5 -30.3333333333 100.5 -12.6666666667 103.5 7 c 0
 41 7 l 0
 34.3333333333 13.3333333333 29.25 20.6666666667 25.75 29 c 0
 22.25 37.3333333333 20.5 46.1666666667 20.5 55.5 c 0
 20.5 69.1666666667 23.4166666667 82.25 29.25 94.75 c 0
 35.0833333333 107.25 42.8333333333 118.25 52.5 127.75 c 0
 62.1666666667 137.25 73.3333333333 144.75 86 150.25 c 0
 98.6666666667 155.75 112 158.5 126 158.5 c 0
 149 158.5 167.916666667 152.583333333 182.75 140.75 c 0
 197.583333333 128.916666667 205 110.666666667 205 86 c 0
EndSplineSet
EndChar

StartChar: hyphen
Encoding: 16 45 16
Width: 356
VWidth: 500
Flags: HW
LayerCount: 2
Fore
SplineSet
299 192.5 m 0
 30.5 192.5 l 0
 52 301 l 0
 320.5 301 l 0
 299 192.5 l 0
EndSplineSet
EndChar

StartChar: period
Encoding: 17 46 17
Width: 325
VWidth: 500
Flags: HW
LayerCount: 2
Fore
SplineSet
195.5 72.5 m 0
 195.5 60.8333333333 193.25 49.8333333333 188.75 39.5 c 0
 184.25 29.1666666667 178.166666667 20.1666666667 170.5 12.5 c 0
 162.833333333 4.83333333333 153.833333333 -1.25 143.5 -5.75 c 0
 133.166666667 -10.25 122.166666667 -12.5 110.5 -12.5 c 0
 98.8333333333 -12.5 87.75 -10.25 77.25 -5.75 c 0
 66.75 -1.25 57.5833333333 4.83333333333 49.75 12.5 c 0
 41.9166666667 20.1666666667 35.75 29.1666666667 31.25 39.5 c 0
 26.75 49.8333333333 24.5 60.8333333333 24.5 72.5 c 0
 24.5 84.5 26.75 95.6666666667 31.25 106 c 0
 35.75 116.333333333 41.9166666667 125.416666667 49.75 133.25 c 0
 57.5833333333 141.083333333 66.75 147.25 77.25 151.75 c 0
 87.75 156.25 98.8333333333 158.5 110.5 158.5 c 0
 122.166666667 158.5 133.166666667 156.25 143.5 151.75 c 0
 153.833333333 147.25 162.833333333 141.083333333 170.5 133.25 c 0
 178.166666667 125.416666667 184.25 116.333333333 188.75 106 c 0
 193.25 95.6666666667 195.5 84.5 195.5 72.5 c 0
EndSplineSet
EndChar

StartChar: slash
Encoding: 18 47 18
Width: 513
VWidth: 500
Flags: HW
LayerCount: 2
Fore
SplineSet
80 -95 m 0
 0 -95 l 0
 432 687 l 0
 513 687 l 0
 80 -95 l 0
EndSplineSet
EndChar

StartChar: zero
Encoding: 19 48 19
Width: 792
VWidth: 500
Flags: HW
LayerCount: 2
Fore
SplineSet
702 157 m 0
 780 528 l 0
 782.666666667 540 780.5 549.833333333 773.5 557.5 c 0
 766.5 565.166666667 756.666666667 569 744 569 c 0
 638 569 l 0
 628 569 620 568.666666667 614 568 c 0
 608 567.333333333 601.833333333 564.333333333 595.5 559 c 0
 589.166666667 553.666666667 584.166666667 548.666666667 580.5 544 c 0
 576.833333333 539.333333333 574.666666667 534.333333333 574 529 c 0
 495 154 l 0
 492.333333333 143.333333333 495.833333333 134.333333333 505.5 127 c 0
 515.166666667 119.666666667 527.333333333 116 542 116 c 0
 648 116 l 0
 660 116 671.5 120.5 682.5 129.5 c 0
 693.5 138.5 700 147.666666667 702 157 c 0
830 124 m 0
 826.666666667 102.666666667 815.666666667 82.3333333333 797 63 c 0
 787 54.3333333333 777.166666667 46.1666666667 767.5 38.5 c 0
 757.833333333 30.8333333333 747.666666667 24.6666666667 737 20 c 0
 708.333333333 8 682.333333333 2 659 2 c 0
 475 3 l 0
 433 3 402 17.3333333333 382 46 c 0
 364.666666667 64.6666666667 356 88 356 116 c 0
 356 128.666666667 356.666666667 138 358 144 c 0
 446 562 l 0
 454 595.333333333 476 624 512 648 c 0
 548 670 588.333333333 681 633 681 c 0
 795 681 l 0
 840.333333333 681 873.666666667 667 895 639 c 0
 912.333333333 621.666666667 921 598.666666667 921 570 c 0
 921 558 919.666666667 546.666666667 917 536 c 0
 830 124 l 0
EndSplineSet
EndChar

StartChar: one
Encoding: 20 49 20
Width: 792
VWidth: 500
Flags: HW
LayerCount: 2
Fore
SplineSet
803 0 m 0
 409 0 l 0
 432 113 l 0
 562 113 l 0
 651 535 l 0
 653.666666667 545.666666667 653.666666667 554.666666667 651 562 c 0
 649.666666667 563.333333333 646.666666667 564.666666667 642 566 c 0
 531 566 l 0
 554 679 l 0
 687 679 l 0
 725 679 752.666666667 667.333333333 770 644 c 0
 786.666666667 625.333333333 795 605 795 583 c 0
 795 573 794.333333333 565.333333333 793 560 c 0
 698 111 l 0
 826 111 l 0
 803 0 l 0
EndSplineSet
EndChar

StartChar: two
Encoding: 21 50 21
Width: 792
VWidth: 500
Flags: HW
LayerCount: 2
Fore
SplineSet
803 0 m 0
 311 0 l 0
 364 250 l 0
 368.666666667 270 376 287.166666667 386 301.5 c 0
 396 315.833333333 411 328.333333333 431 339 c 0
 469.666666667 363.666666667 510.666666667 376 554 376 c 0
 713 376 l 0
 719 376 727 381 737 391 c 0
 745 403 750.333333333 415 753 427 c 0
 778 544 l 0
 778.666666667 549.333333333 778.333333333 554.666666667 777 560 c 0
 774.333333333 562.666666667 769 564 761 564 c 0
 603 564 l 0
 588.333333333 564 576.333333333 561.666666667 567 557 c 0
 562.333333333 555.666666667 559.333333333 551.333333333 558 544 c 0
 537 446 l 0
 403 446 l 0
 431 576 l 0
 438.333333333 607.333333333 456.833333333 632 486.5 650 c 0
 516.166666667 668 550.333333333 677 589 677 c 0
 804 677 l 0
 842.666666667 677 873 666 895 644 c 0
 910.333333333 627.333333333 918 607 918 583 c 0
 918 572.333333333 917.333333333 564.333333333 916 559 c 0
 887 419 l 0
 881.666666667 391 869.5 364.5 850.5 339.5 c 0
 831.5 314.5 809.166666667 295.333333333 783.5 282 c 0
 757.833333333 268.666666667 732.666666667 262 708 262 c 0
 538 262 l 0
 521.333333333 262 510 260.666666667 504 258 c 0
 497 256 l 0
 467 112 l 0
 825 112 l 0
 803 0 l 0
EndSplineSet
EndChar

StartChar: three
Encoding: 22 51 22
Width: 792
VWidth: 500
Flags: HW
LayerCount: 2
Fore
SplineSet
828 116 m 0
 822 84.6666666667 803.166666667 57.6666666667 771.5 35 c 0
 739.833333333 12.3333333333 707 1 673 1 c 0
 459 2 l 0
 421 2 388.666666667 11.3333333333 362 30 c 0
 342.666666667 45.3333333333 333 63 333 83 c 0
 333 86.3333333333 333.666666667 92.6666666667 335 102 c 0
 356 204 l 0
 490 204 l 0
 478 143 l 0
 476.666666667 135 479 128 485 122 c 0
 491 116 500 113 512 113 c 0
 647 113 l 0
 659.666666667 113 671 116.333333333 681 123 c 0
 691 129.666666667 697.333333333 139 700 151 c 0
 723 261 l 0
 724.333333333 270.333333333 722.333333333 280.333333333 717 291 c 0
 709.666666667 298.333333333 699 302 685 302 c 0
 632 302 l 0
 657 415 l 0
 701 415 l 0
 710.333333333 415 717 415.666666667 721 417 c 0
 725 418.333333333 731.666666667 421.333333333 741 426 c 0
 751.666666667 428.666666667 757.333333333 432.666666667 758 438 c 0
 777 531 l 0
 778.333333333 540.333333333 776.666666667 549 772 557 c 0
 767.333333333 561.666666667 761 564 753 564 c 0
 604 564 l 0
 590 564 578.333333333 561.666666667 569 557 c 0
 564.333333333 553.666666667 560.333333333 547 557 537 c 0
 546 486 l 0
 412 486 l 0
 434 591 l 0
 439.333333333 617.666666667 456.833333333 638.833333333 486.5 654.5 c 0
 516.166666667 670.166666667 550.333333333 678 589 678 c 0
 813 678 l 0
 849 678 876.666666667 666.333333333 896 643 c 0
 903.333333333 635.666666667 909 627 913 617 c 0
 917 607 919 596 919 584 c 0
 919 573.333333333 918.333333333 565.333333333 917 560 c 0
 896 460 l 0
 894.666666667 450 890.833333333 440 884.5 430 c 0
 878.166666667 420 870 410 860 400 c 0
 854 394.666666667 846.166666667 389 836.5 383 c 0
 826.833333333 377 817 371.333333333 807 366 c 0
 825.666666667 356.666666667 838 345 844 331 c 0
 853.333333333 316.333333333 858 300.666666667 858 284 c 0
 858 280.666666667 857.333333333 272.666666667 856 260 c 0
 828 116 l 0
EndSplineSet
EndChar

StartChar: four
Encoding: 23 52 23
Width: 792
VWidth: 500
Flags: HW
LayerCount: 2
Fore
SplineSet
837 159 m 0
 738 159 l 0
 705 0 l 0
 570 0 l 0
 603 159 l 0
 420 159 l 0
 389.333333333 159 364 167.666666667 344 185 c 0
 328.666666667 197.666666667 321 213.333333333 321 232 c 0
 321 239.333333333 321.333333333 244.666666667 322 248 c 0
 329.333333333 275.333333333 343.666666667 306.666666667 365 342 c 0
 559 679 l 0
 696 679 l 0
 488 331 l 0
 472.666666667 303 464.333333333 284 463 274 c 0
 461 270 l 0
 630 270 l 0
 718 680 l 0
 853 680 l 0
 765 270 l 0
 864 270 l 0
 837 159 l 0
EndSplineSet
EndChar

StartChar: five
Encoding: 24 53 24
Width: 792
VWidth: 500
Flags: HW
LayerCount: 2
Fore
SplineSet
828 116 m 0
 820.666666667 83.3333333333 803 56.3333333333 775 35 c 0
 747 11.6666666667 717.333333333 0 686 0 c 0
 391 0 l 0
 360.333333333 0 336.666666667 9.66666666667 320 29 c 0
 307.333333333 43 301 59 301 77 c 0
 301 85 301.333333333 91.3333333333 302 96 c 0
 327 216 l 0
 462 216 l 0
 444 138 l 0
 444 128 445.333333333 122.333333333 448 121 c 0
 458 115.666666667 465.666666667 113 471 113 c 0
 671 113 l 0
 675.666666667 113 680.666666667 116.166666667 686 122.5 c 0
 691.333333333 128.833333333 695.333333333 138.333333333 698 151 c 0
 730 300 l 0
 731.333333333 310 719 315 693 315 c 0
 345 315 l 0
 423 680 l 0
 931 680 l 0
 908 567 l 0
 536 567 l 0
 507 430 l 0
 754 430 l 0
 794 430 824 418.333333333 844 395 c 0
 860.666666667 378.333333333 869 357.666666667 869 333 c 0
 869 328.333333333 868.333333333 320.666666667 867 310 c 0
 828 116 l 0
EndSplineSet
EndChar

StartChar: six
Encoding: 25 54 25
Width: 792
VWidth: 500
Flags: HW
LayerCount: 2
Fore
SplineSet
701 156 m 0
 729 287 l 0
 731.666666667 295 728.833333333 302.5 720.5 309.5 c 0
 712.166666667 316.5 699.666666667 320 683 320 c 0
 499 320 l 0
 467 167 l 0
 463.666666667 153 467 142 477 134 c 0
 487 123.333333333 498.333333333 118 511 118 c 0
 639 118 l 0
 653.666666667 118 666.333333333 122 677 130 c 0
 689.666666667 137.333333333 697.666666667 146 701 156 c 0
831 130 m 0
 821.666666667 92.6666666667 801.666666667 62.6666666667 771 40 c 0
 754.333333333 29.3333333333 736.666666667 20.3333333333 718 13 c 0
 699.333333333 5.66666666667 681.333333333 2 664 2 c 0
 449 3 l 0
 409 3 377.166666667 13 353.5 33 c 0
 329.833333333 53 318 74.6666666667 318 98 c 0
 318 101.333333333 318.666666667 107.666666667 320 117 c 0
 413 563 l 0
 423 597 444.666666667 625.666666667 478 649 c 0
 513.333333333 671 551.333333333 682 592 682 c 0
 919 682 l 0
 896 569 l 0
 593 569 l 0
 578.333333333 569 567.166666667 566 559.5 560 c 0
 551.833333333 554 546.666666667 546 544 536 c 0
 523 433 l 0
 741 433 l 0
 785.666666667 433 819.666666667 421 843 397 c 0
 861.666666667 378.333333333 871 356 871 330 c 0
 871 319.333333333 870.333333333 311 869 305 c 0
 831 130 l 0
EndSplineSet
EndChar

StartChar: seven
Encoding: 26 55 26
Width: 792
VWidth: 500
Flags: HW
LayerCount: 2
Fore
SplineSet
919 553 m 0
 548 0 l 0
 411 0 l 0
 786 558 l 0
 785.333333333 562.666666667 784.333333333 565.666666667 783 567 c 0
 781.666666667 568.333333333 777.333333333 569 770 569 c 0
 546 569 l 0
 532 504 l 0
 397 504 l 0
 434 683 l 0
 817 683 l 0
 854.333333333 683 882.333333333 670.666666667 901 646 c 0
 915 629.333333333 922 608.666666667 922 584 c 0
 922 578 921 567.666666667 919 553 c 0
EndSplineSet
EndChar

StartChar: eight
Encoding: 27 56 27
Width: 792
VWidth: 500
Flags: HW
LayerCount: 2
Fore
SplineSet
700 152 m 0
 702 163 l 0
 705.333333333 185 698.666666667 201.333333333 682 212 c 0
 618 269 l 0
 513 212 l 0
 494.333333333 200 484.666666667 190 484 182 c 0
 476 143 l 0
 475.333333333 135 478.166666667 128 484.5 122 c 0
 490.833333333 116 500.666666667 113 514 113 c 0
 644 113 l 0
 656.666666667 113 668 116.333333333 678 123 c 0
 688 129.666666667 695.333333333 139.333333333 700 152 c 0
782 541 m 0
 784.666666667 549 784.333333333 556 781 562 c 0
 776.333333333 565.333333333 771.333333333 567 766 567 c 0
 598 567 l 0
 570 565 l 0
 565 561 l 0
 563.666666667 548.333333333 563 540.666666667 563 538 c 0
 563 530.666666667 564.333333333 525.666666667 567 523 c 0
 653 442 l 0
 760 510 l 0
 772 515.333333333 779.333333333 525.666666667 782 541 c 0
824 98 m 0
 818.666666667 73.3333333333 800.666666667 50.3333333333 770 29 c 0
 738.666666667 10.3333333333 706.333333333 1 673 1 c 0
 459 2 l 0
 421 2 388.666666667 11.3333333333 362 30 c 0
 342.666666667 45.3333333333 333 63 333 83 c 0
 333 86.3333333333 333.666666667 92.6666666667 335 102 c 0
 360 221 l 0
 362.666666667 236.333333333 381 256.333333333 415 281 c 0
 546 360 l 0
 464 435 l 0
 448.666666667 453.666666667 437.5 469.666666667 430.5 483 c 0
 423.5 496.333333333 420.666666667 508 422 518 c 0
 437 589 l 0
 442.333333333 615.666666667 459.833333333 636.833333333 489.5 652.5 c 0
 519.166666667 668.166666667 553.333333333 676 592 676 c 0
 816 676 l 0
 853.333333333 676 881.666666667 668.333333333 901 653 c 0
 919.666666667 640.333333333 929 624 929 604 c 0
 929 598 928.666666667 593.666666667 928 591 c 0
 907 492 l 0
 902.333333333 468 882 446 846 426 c 0
 713 348 l 0
 783 304 l 0
 830.333333333 262 851.333333333 228.666666667 846 204 c 0
 824 98 l 0
EndSplineSet
EndChar

StartChar: nine
Encoding: 28 57 28
Width: 792
VWidth: 500
Flags: HW
LayerCount: 2
Fore
SplineSet
741 365 m 0
 777 535 l 0
 779.666666667 544.333333333 777.166666667 552.166666667 769.5 558.5 c 0
 761.833333333 564.833333333 749.666666667 568 733 568 c 0
 595 568 l 0
 578.333333333 568 565.833333333 565.333333333 557.5 560 c 0
 549.166666667 554.666666667 543.666666667 546.666666667 541 536 c 0
 513 404 l 0
 511.666666667 394 515.666666667 386.666666667 525 382 c 0
 533 372 544.666666667 367 560 367 c 0
 741 365 l 0
833 138 m 0
 825 100.666666667 801.666666667 68.3333333333 763 41 c 0
 724.333333333 13.6666666667 682.333333333 0 637 0 c 0
 325 0 l 0
 348 113 l 0
 615 113 l 0
 637 113 656.333333333 117.5 673 126.5 c 0
 689.666666667 135.5 698.666666667 145 700 155 c 0
 719 250 l 0
 500 250 l 0
 459.333333333 250 426.666666667 261.666666667 402 285 c 0
 380.666666667 303.666666667 370 325 370 349 c 0
 370 351.666666667 370.666666667 357.666666667 372 367 c 0
 415 572 l 0
 419.666666667 591.333333333 431.333333333 610.333333333 450 629 c 0
 467.333333333 644.333333333 489.166666667 656.333333333 515.5 665 c 0
 541.833333333 673.666666667 570.333333333 678 601 678 c 0
 791 678 l 0
 817.666666667 678 842 672.666666667 864 662 c 0
 886 649.333333333 900.666666667 634.333333333 908 617 c 0
 915.333333333 604.333333333 919 590.333333333 919 575 c 0
 919 571.666666667 918.333333333 564.666666667 917 554 c 0
 833 138 l 0
EndSplineSet
EndChar

StartChar: colon
Encoding: 29 58 29
Width: 325
VWidth: 500
Flags: HW
LayerCount: 2
Fore
SplineSet
265 424 m 0
 265 412.333333333 262.833333333 401.333333333 258.5 391 c 0
 254.166666667 380.666666667 248.166666667 371.666666667 240.5 364 c 0
 232.833333333 356.333333333 223.833333333 350.25 213.5 345.75 c 0
 203.166666667 341.25 192 339 180 339 c 0
 168.333333333 339 157.25 341.25 146.75 345.75 c 0
 136.25 350.25 127.083333333 356.333333333 119.25 364 c 0
 111.416666667 371.666666667 105.25 380.666666667 100.75 391 c 0
 96.25 401.333333333 94 412.333333333 94 424 c 0
 94 435.666666667 96.25 446.75 100.75 457.25 c 0
 105.25 467.75 111.416666667 476.916666667 119.25 484.75 c 0
 127.083333333 492.583333333 136.25 498.75 146.75 503.25 c 0
 157.25 507.75 168.333333333 510 180 510 c 0
 192 510 203.166666667 507.75 213.5 503.25 c 0
 223.833333333 498.75 232.833333333 492.583333333 240.5 484.75 c 0
 248.166666667 476.916666667 254.166666667 467.75 258.5 457.25 c 0
 262.833333333 446.75 265 435.666666667 265 424 c 0
195.5 72.5 m 0
 195.5 60.8333333333 193.25 49.8333333333 188.75 39.5 c 0
 184.25 29.1666666667 178.166666667 20.1666666667 170.5 12.5 c 0
 162.833333333 4.83333333333 153.833333333 -1.25 143.5 -5.75 c 0
 133.166666667 -10.25 122.166666667 -12.5 110.5 -12.5 c 0
 98.8333333333 -12.5 87.75 -10.25 77.25 -5.75 c 0
 66.75 -1.25 57.5833333333 4.83333333333 49.75 12.5 c 0
 41.9166666667 20.1666666667 35.75 29.1666666667 31.25 39.5 c 0
 26.75 49.8333333333 24.5 60.8333333333 24.5 72.5 c 0
 24.5 84.5 26.75 95.6666666667 31.25 106 c 0
 35.75 116.333333333 41.9166666667 125.416666667 49.75 133.25 c 0
 57.5833333333 141.083333333 66.75 147.25 77.25 151.75 c 0
 87.75 156.25 98.8333333333 158.5 110.5 158.5 c 0
 122.166666667 158.5 133.166666667 156.25 143.5 151.75 c 0
 153.833333333 147.25 162.833333333 141.083333333 170.5 133.25 c 0
 178.166666667 125.416666667 184.25 116.333333333 188.75 106 c 0
 193.25 95.6666666667 195.5 84.5 195.5 72.5 c 0
EndSplineSet
EndChar

StartChar: semicolon
Encoding: 30 59 30
Width: 325
VWidth: 500
Flags: HW
LayerCount: 2
Fore
SplineSet
265 424 m 0
 265 412.333333333 262.833333333 401.333333333 258.5 391 c 0
 254.166666667 380.666666667 248.166666667 371.666666667 240.5 364 c 0
 232.833333333 356.333333333 223.833333333 350.25 213.5 345.75 c 0
 203.166666667 341.25 192 339 180 339 c 0
 168.333333333 339 157.25 341.25 146.75 345.75 c 0
 136.25 350.25 127.083333333 356.333333333 119.25 364 c 0
 111.416666667 371.666666667 105.25 380.666666667 100.75 391 c 0
 96.25 401.333333333 94 412.333333333 94 424 c 0
 94 435.666666667 96.25 446.75 100.75 457.25 c 0
 105.25 467.75 111.416666667 476.916666667 119.25 484.75 c 0
 127.083333333 492.583333333 136.25 498.75 146.75 503.25 c 0
 157.25 507.75 168.333333333 510 180 510 c 0
 192 510 203.166666667 507.75 213.5 503.25 c 0
 223.833333333 498.75 232.833333333 492.583333333 240.5 484.75 c 0
 248.166666667 476.916666667 254.166666667 467.75 258.5 457.25 c 0
 262.833333333 446.75 265 435.666666667 265 424 c 0
205 86 m 0
 205 66 201.25 45.8333333333 193.75 25.5 c 0
 186.25 5.16666666667 176 -14.6666666667 163 -34 c 0
 150 -53.3333333333 134.916666667 -71.5833333333 117.75 -88.75 c 0
 100.583333333 -105.916666667 82.3333333333 -121 63 -134 c 0
 43.6666666667 -147 23.75 -157.583333333 3.25 -165.75 c 0
 -17.25 -173.916666667 -37.1666666667 -178.666666667 -56.5 -180 c 0
 -47 -130 l 0
 -28 -127.333333333 -10.0833333333 -122.333333333 6.75 -115 c 0
 23.5833333333 -107.666666667 38.6666666667 -98.25 52 -86.75 c 0
 65.3333333333 -75.25 76.5 -61.6666666667 85.5 -46 c 0
 94.5 -30.3333333333 100.5 -12.6666666667 103.5 7 c 0
 41 7 l 0
 34.3333333333 13.3333333333 29.25 20.6666666667 25.75 29 c 0
 22.25 37.3333333333 20.5 46.1666666667 20.5 55.5 c 0
 20.5 69.1666666667 23.4166666667 82.25 29.25 94.75 c 0
 35.0833333333 107.25 42.8333333333 118.25 52.5 127.75 c 0
 62.1666666667 137.25 73.3333333333 144.75 86 150.25 c 0
 98.6666666667 155.75 112 158.5 126 158.5 c 0
 149 158.5 167.916666667 152.583333333 182.75 140.75 c 0
 197.583333333 128.916666667 205 110.666666667 205 86 c 0
EndSplineSet
EndChar

StartChar: less
Encoding: 31 60 31
Width: 1024
VWidth: 500
Flags: HW
LayerCount: 2
Fore
SplineSet
205 275.5 m 0
 205 339 l 0
 819 574.5 l 0
 819 511 l 0
 270.5 307 l 0
 819 103.5 l 0
 819 40 l 0
 205 275.5 l 0
EndSplineSet
EndChar

StartChar: equal
Encoding: 32 61 32
Width: 1024
VWidth: 500
Flags: HW
LayerCount: 2
Fore
SplineSet
205 368.5 m 0
 205 432 l 0
 819 432 l 0
 819 368.5 l 0
 205 368.5 l 0
205 182.5 m 0
 205 246 l 0
 819 246 l 0
 819 182.5 l 0
 205 182.5 l 0
EndSplineSet
EndChar

StartChar: greater
Encoding: 33 62 33
Width: 1024
VWidth: 500
Flags: HW
LayerCount: 2
Fore
SplineSet
205 40 m 0
 205 103.5 l 0
 753.5 307 l 0
 205 511 l 0
 205 574.5 l 0
 819 339 l 0
 819 275.5 l 0
 205 40 l 0
EndSplineSet
EndChar

StartChar: question
Encoding: 34 63 34
Width: 548
VWidth: 500
Flags: HW
LayerCount: 2
Fore
SplineSet
525.5 547 m 0
 525.5 523.666666667 521.75 501.75 514.25 481.25 c 0
 506.75 460.75 496.416666667 441.666666667 483.25 424 c 0
 470.083333333 406.333333333 454.75 390.166666667 437.25 375.5 c 0
 419.75 360.833333333 401 347.833333333 381 336.5 c 0
 361 325.166666667 340.333333333 315.583333333 319 307.75 c 0
 297.666666667 299.916666667 276.666666667 294 256 290 c 0
 238.5 203 l 0
 169 203 l 0
 195.5 339 l 0
 219.5 344 242.75 352.666666667 265.25 365 c 0
 287.75 377.333333333 307.666666667 392.5 325 410.5 c 0
 342.333333333 428.5 356.166666667 448.75 366.5 471.25 c 0
 376.833333333 493.75 382 517.833333333 382 543.5 c 0
 382 560.833333333 379.083333333 575.666666667 373.25 588 c 0
 367.416666667 600.333333333 359.5 610.416666667 349.5 618.25 c 0
 339.5 626.083333333 327.75 631.833333333 314.25 635.5 c 0
 300.75 639.166666667 286.166666667 641 270.5 641 c 0
 210 523.5 l 0
 209.333333333 522.833333333 207.833333333 522.083333333 205.5 521.25 c 0
 203.166666667 520.416666667 200.75 519.583333333 198.25 518.75 c 0
 195.75 517.916666667 193.416666667 517.25 191.25 516.75 c 0
 189.083333333 516.25 187.833333333 516 187.5 516 c 0
 178.833333333 516 169.916666667 516.583333333 160.75 517.75 c 0
 151.583333333 518.916666667 143.25 521.333333333 135.75 525 c 0
 128.25 528.666666667 122 533.833333333 117 540.5 c 0
 112 547.166666667 109.5 555.833333333 109.5 566.5 c 0
 109.5 583.166666667 113 598.083333333 120 611.25 c 0
 127 624.416666667 136.333333333 636.083333333 148 646.25 c 0
 159.666666667 656.416666667 173.083333333 665.166666667 188.25 672.5 c 0
 203.416666667 679.833333333 219 685.75 235 690.25 c 0
 251 694.75 266.916666667 698.083333333 282.75 700.25 c 0
 298.583333333 702.416666667 313.166666667 703.5 326.5 703.5 c 0
 351.166666667 703.5 375.416666667 700.583333333 399.25 694.75 c 0
 423.083333333 688.916666667 444.333333333 679.666666667 463 667 c 0
 481.666666667 654.333333333 496.75 638.166666667 508.25 618.5 c 0
 519.75 598.833333333 525.5 575 525.5 547 c 0
266 66.5 m 0
 266 55.1666666667 263.75 44.6666666667 259.25 35 c 0
 254.75 25.3333333333 248.666666667 17 241 10 c 0
 233.333333333 3 224.5 -2.5 214.5 -6.5 c 0
 204.5 -10.5 193.833333333 -12.5 182.5 -12.5 c 0
 171.166666667 -12.5 160.75 -10.25 151.25 -5.75 c 0
 141.75 -1.25 133.5 4.83333333333 126.5 12.5 c 0
 119.5 20.1666666667 114.083333333 29 110.25 39 c 0
 106.416666667 49 104.5 59.5 104.5 70.5 c 0
 104.5 81.8333333333 106.5 92.4166666667 110.5 102.25 c 0
 114.5 112.083333333 120 120.75 127 128.25 c 0
 134 135.75 142.333333333 141.666666667 152 146 c 0
 161.666666667 150.333333333 172.166666667 152.5 183.5 152.5 c 0
 195.5 152.5 206.583333333 150.166666667 216.75 145.5 c 0
 226.916666667 140.833333333 235.583333333 134.583333333 242.75 126.75 c 0
 249.916666667 118.916666667 255.583333333 109.75 259.75 99.25 c 0
 263.916666667 88.75 266 77.8333333333 266 66.5 c 0
EndSplineSet
EndChar

StartChar: at
Encoding: 35 64 35
Width: 958
VWidth: 500
Flags: HW
LayerCount: 2
Fore
SplineSet
583.5 397.5 m 0
 584.5 401.5 584.25 406.583333333 582.75 412.75 c 0
 581.25 418.916666667 578.666666667 424.833333333 575 430.5 c 0
 571.333333333 436.166666667 566.333333333 441.083333333 560 445.25 c 0
 553.666666667 449.416666667 546.166666667 451.5 537.5 451.5 c 0
 516.833333333 451.5 497.416666667 446 479.25 435 c 0
 461.083333333 424 445.166666667 408.75 431.5 389.25 c 0
 417.833333333 369.75 407 346.5 399 319.5 c 0
 391 292.5 387 263.166666667 387 231.5 c 0
 387 212.166666667 388.916666667 195.75 392.75 182.25 c 0
 396.583333333 168.75 401.666666667 157.75 408 149.25 c 0
 414.333333333 140.75 421.333333333 134.583333333 429 130.75 c 0
 436.666666667 126.916666667 444.5 125 452.5 125 c 0
 463.5 125 473.416666667 127.083333333 482.25 131.25 c 0
 491.083333333 135.416666667 499.083333333 140.666666667 506.25 147 c 0
 513.416666667 153.333333333 520 160.166666667 526 167.5 c 0
 532 174.833333333 537.5 181.5 542.5 187.5 c 0
 583.5 397.5 l 0
899 377 m 0
 899 343 895.25 311.416666667 887.75 282.25 c 0
 880.25 253.083333333 870.083333333 226.416666667 857.25 202.25 c 0
 844.416666667 178.083333333 829.416666667 156.583333333 812.25 137.75 c 0
 795.083333333 118.916666667 776.666666667 103.083333333 757 90.25 c 0
 737.333333333 77.4166666667 717.083333333 67.6666666667 696.25 61 c 0
 675.416666667 54.3333333333 655 51 635 51 c 0
 619.333333333 51 606.25 53 595.75 57 c 0
 585.25 61 576.583333333 66.25 569.75 72.75 c 0
 562.916666667 79.25 557.75 86.8333333333 554.25 95.5 c 0
 550.75 104.166666667 548.333333333 113.333333333 547 123 c 0
 536.333333333 114 525.5 105.25 514.5 96.75 c 0
 503.5 88.25 492.166666667 80.6666666667 480.5 74 c 0
 468.833333333 67.3333333333 456.833333333 62 444.5 58 c 0
 432.166666667 54 419.5 52 406.5 52 c 0
 383.166666667 52 362.666666667 56.25 345 64.75 c 0
 327.333333333 73.25 312.5 85.0833333333 300.5 100.25 c 0
 288.5 115.416666667 279.416666667 133.333333333 273.25 154 c 0
 267.083333333 174.666666667 264 197.333333333 264 222 c 0
 264 260.333333333 271.083333333 296.416666667 285.25 330.25 c 0
 299.416666667 364.083333333 318.666666667 393.75 343 419.25 c 0
 367.333333333 444.75 395.916666667 464.916666667 428.75 479.75 c 0
 461.583333333 494.583333333 496.5 502 533.5 502 c 0
 541.5 502 549.583333333 501 557.75 499 c 0
 565.916666667 497 574 494.416666667 582 491.25 c 0
 590 488.083333333 597.75 484.666666667 605.25 481 c 0
 612.75 477.333333333 619.833333333 474 626.5 471 c 0
 640 496.5 l 0
 726 496.5 l 0
 721 477.5 l 0
 718.666666667 467.5 715.75 455.166666667 712.25 440.5 c 0
 708.75 425.833333333 704.916666667 409.5 700.75 391.5 c 0
 696.583333333 373.5 692.333333333 355.333333333 688 337 c 0
 678 294 666.833333333 245.833333333 654.5 192.5 c 0
 651.833333333 181.166666667 649.833333333 170.833333333 648.5 161.5 c 0
 647.166666667 152.166666667 647.166666667 144.166666667 648.5 137.5 c 0
 649.833333333 130.833333333 652.75 125.666666667 657.25 122 c 0
 661.75 118.333333333 668.666666667 116.5 678 116.5 c 0
 684.666666667 116.5 692.916666667 119.083333333 702.75 124.25 c 0
 712.583333333 129.416666667 722.75 137 733.25 147 c 0
 743.75 157 754.166666667 169.416666667 764.5 184.25 c 0
 774.833333333 199.083333333 784.083333333 216.083333333 792.25 235.25 c 0
 800.416666667 254.416666667 807.083333333 275.75 812.25 299.25 c 0
 817.416666667 322.75 820 348.333333333 820 376 c 0
 820 408.333333333 816.166666667 437.583333333 808.5 463.75 c 0
 800.833333333 489.916666667 790.5 513.166666667 777.5 533.5 c 0
 764.5 553.833333333 749.083333333 571.416666667 731.25 586.25 c 0
 713.416666667 601.083333333 694.5 613.333333333 674.5 623 c 0
 654.5 632.666666667 633.666666667 639.833333333 612 644.5 c 0
 590.333333333 649.166666667 569 651.5 548 651.5 c 0
 512 651.5 477.583333333 647.083333333 444.75 638.25 c 0
 411.916666667 629.416666667 381.25 616.916666667 352.75 600.75 c 0
 324.25 584.583333333 298.333333333 564.833333333 275 541.5 c 0
 251.666666667 518.166666667 231.666666667 491.916666667 215 462.75 c 0
 198.333333333 433.583333333 185.5 401.916666667 176.5 367.75 c 0
 167.5 333.583333333 163 297.333333333 163 259 c 0
 163 206.333333333 171.166666667 157.916666667 187.5 113.75 c 0
 203.833333333 69.5833333333 227 31.3333333333 257 -1 c 0
 287 -33.3333333333 323.166666667 -58.5 365.5 -76.5 c 0
 407.833333333 -94.5 455 -103.5 507 -103.5 c 0
 534 -103.5 559.666666667 -101.25 584 -96.75 c 0
 608.333333333 -92.25 631.833333333 -86.1666666667 654.5 -78.5 c 0
 677.166666667 -70.8333333333 699.416666667 -61.75 721.25 -51.25 c 0
 743.083333333 -40.75 764.833333333 -29.5 786.5 -17.5 c 0
 808 -68.5 l 0
 785 -80.5 761.166666667 -92.0833333333 736.5 -103.25 c 0
 711.833333333 -114.416666667 686.166666667 -124.25 659.5 -132.75 c 0
 632.833333333 -141.25 604.75 -148.083333333 575.25 -153.25 c 0
 545.75 -158.416666667 514.833333333 -161 482.5 -161 c 0
 442.5 -161 404.333333333 -156.75 368 -148.25 c 0
 331.666666667 -139.75 297.833333333 -127.333333333 266.5 -111 c 0
 235.166666667 -94.6666666667 206.75 -74.8333333333 181.25 -51.5 c 0
 155.75 -28.1666666667 134 -1.58333333333 116 28.25 c 0
 98 58.0833333333 84.0833333333 90.75 74.25 126.25 c 0
 64.4166666667 161.75 59.5 199.833333333 59.5 240.5 c 0
 59.5 290.166666667 65.5 336.166666667 77.5 378.5 c 0
 89.5 420.833333333 106.25 459.166666667 127.75 493.5 c 0
 149.25 527.833333333 174.833333333 558.083333333 204.5 584.25 c 0
 234.166666667 610.416666667 266.583333333 632.333333333 301.75 650 c 0
 336.916666667 667.666666667 374.25 681 413.75 690 c 0
 453.25 699 493.5 703.5 534.5 703.5 c 0
 589.833333333 703.5 640 696.166666667 685 681.5 c 0
 730 666.833333333 768.333333333 645.583333333 800 617.75 c 0
 831.666666667 589.916666667 856.083333333 555.75 873.25 515.25 c 0
 890.416666667 474.75 899 428.666666667 899 377 c 0
EndSplineSet
EndChar

StartChar: A
Encoding: 36 65 36
Width: 732
VWidth: 500
Flags: HW
LayerCount: 2
Fore
SplineSet
400.5 0 m 0
 400.5 51 l 0
 405.833333333 51.6666666667 411.25 52.25 416.75 52.75 c 0
 422.25 53.25 427.333333333 53.8333333333 432 54.5 c 0
 437.333333333 55.1666666667 442.5 55.8333333333 447.5 56.5 c 0
 454.166666667 57.1666666667 459.333333333 58.3333333333 463 60 c 0
 466.666666667 61.6666666667 468 65.5 467 71.5 c 0
 437 259 l 0
 243.5 259 l 0
 142.5 71.5 l 0
 139.166666667 66.5 138.833333333 62.9166666667 141.5 60.75 c 0
 144.166666667 58.5833333333 148.833333333 57.1666666667 155.5 56.5 c 0
 160.833333333 55.8333333333 166.5 55.1666666667 172.5 54.5 c 0
 177.5 53.8333333333 183.166666667 53.25 189.5 52.75 c 0
 195.833333333 52.25 202.333333333 51.6666666667 209 51 c 0
 209 0 l 0
 -54.5 0 l 0
 -54.5 51 l 0
 5 57.5 l 0
 384 703.5 l 0
 505 703.5 l 0
 616.5 72.5 l 0
 617.5 65.8333333333 619.25 61.5833333333 621.75 59.75 c 0
 624.25 57.9166666667 629.333333333 56.5 637 55.5 c 0
 641.666666667 55.1666666667 646.666666667 54.6666666667 652 54 c 0
 656.666666667 53.3333333333 661.75 52.8333333333 667.25 52.5 c 0
 672.75 52.1666666667 678.333333333 51.6666666667 684 51 c 0
 684 0 l 0
 400.5 0 l 0
392 516 m 0
 277.5 317.5 l 0
 426 317.5 l 0
 392 516 l 0
EndSplineSet
EndChar

StartChar: B
Encoding: 37 66 37
Width: 664
VWidth: 500
Flags: HW
LayerCount: 2
Fore
SplineSet
474 546 m 0
 474 562.333333333 470.75 576.083333333 464.25 587.25 c 0
 457.75 598.416666667 449.083333333 607.333333333 438.25 614 c 0
 427.416666667 620.666666667 414.916666667 625.5 400.75 628.5 c 0
 386.583333333 631.5 371.833333333 633 356.5 633 c 0
 350.833333333 633 345.25 632.833333333 339.75 632.5 c 0
 334.25 632.166666667 329.166666667 632 324.5 632 c 0
 276.5 384 l 0
 282.166666667 383.333333333 287.333333333 383 292 383 c 0
 302 383 l 0
 327.333333333 383 350.583333333 387.083333333 371.75 395.25 c 0
 392.916666667 403.416666667 411.083333333 414.75 426.25 429.25 c 0
 441.416666667 443.75 453.166666667 460.916666667 461.5 480.75 c 0
 469.833333333 500.583333333 474 522.333333333 474 546 c 0
455.5 221 m 0
 455.5 242 451.833333333 259.333333333 444.5 273 c 0
 437.166666667 286.666666667 427.25 297.583333333 414.75 305.75 c 0
 402.25 313.916666667 387.916666667 319.583333333 371.75 322.75 c 0
 355.583333333 325.916666667 338.5 327.5 320.5 327.5 c 0
 302.166666667 327.5 283.333333333 326.5 264 324.5 c 0
 212 57.5 l 0
 219.333333333 56.8333333333 226.666666667 56.5 234 56.5 c 0
 253 56.5 l 0
 283.333333333 56.5 310.916666667 59.9166666667 335.75 66.75 c 0
 360.583333333 73.5833333333 381.833333333 83.9166666667 399.5 97.75 c 0
 417.166666667 111.583333333 430.916666667 128.75 440.75 149.25 c 0
 450.583333333 169.75 455.5 193.666666667 455.5 221 c 0
631 553 m 0
 631 528 626.833333333 505.833333333 618.5 486.5 c 0
 610.166666667 467.166666667 598.75 450 584.25 435 c 0
 569.75 420 552.666666667 406.916666667 533 395.75 c 0
 513.333333333 384.583333333 492 374.833333333 469 366.5 c 0
 491.333333333 362.5 511.25 357 528.75 350 c 0
 546.25 343 561.083333333 334.083333333 573.25 323.25 c 0
 585.416666667 312.416666667 594.666666667 299.5 601 284.5 c 0
 607.333333333 269.5 610.5 251.833333333 610.5 231.5 c 0
 610.5 190.833333333 602.833333333 155.833333333 587.5 126.5 c 0
 572.166666667 97.1666666667 550.416666667 73.1666666667 522.25 54.5 c 0
 494.083333333 35.8333333333 460.083333333 22.0833333333 420.25 13.25 c 0
 380.416666667 4.41666666667 335.833333333 0 286.5 0 c 0
 -15.5 0 l 0
 -15.5 51 l 0
 -7.16666666667 51.6666666667 0.833333333333 52.3333333333 8.5 53 c 0
 16.1666666667 53.6666666667 23 54.3333333333 29 55 c 0
 36 55.6666666667 42.6666666667 56.1666666667 49 56.5 c 0
 54.6666666667 56.5 59.0833333333 57.4166666667 62.25 59.25 c 0
 65.4166666667 61.0833333333 67.5 65.5 68.5 72.5 c 0
 175 615.5 l 0
 176 621.166666667 175.083333333 625 172.25 627 c 0
 169.416666667 629 164.833333333 630.333333333 158.5 631 c 0
 152.5 631.333333333 146.166666667 631.833333333 139.5 632.5 c 0
 133.833333333 633.166666667 127.333333333 633.75 120 634.25 c 0
 112.666666667 634.75 105.166666667 635.333333333 97.5 636 c 0
 97.5 687 l 0
 406.5 687 l 0
 449.833333333 687 485.916666667 683.5 514.75 676.5 c 0
 543.583333333 669.5 566.666666667 660 584 648 c 0
 601.333333333 636 613.5 621.833333333 620.5 605.5 c 0
 627.5 589.166666667 631 571.666666667 631 553 c 0
EndSplineSet
EndChar

StartChar: C
Encoding: 38 67 38
Width: 688
VWidth: 500
Flags: HW
LayerCount: 2
Fore
SplineSet
671.5 480.5 m 0
 596 480.5 l 0
 597 595 l 0
 597.666666667 599 596.583333333 603.5 593.75 608.5 c 0
 590.916666667 613.5 586.833333333 616.833333333 581.5 618.5 c 0
 578.833333333 619.833333333 573.833333333 621.833333333 566.5 624.5 c 0
 559.166666667 627.166666667 550.916666667 629.666666667 541.75 632 c 0
 532.583333333 634.333333333 523.166666667 636.416666667 513.5 638.25 c 0
 503.833333333 640.083333333 495.166666667 641 487.5 641 c 0
 465.833333333 641 443.666666667 637.166666667 421 629.5 c 0
 398.333333333 621.833333333 376.416666667 610.583333333 355.25 595.75 c 0
 334.083333333 580.916666667 314.083333333 562.666666667 295.25 541 c 0
 276.416666667 519.333333333 260 494.5 246 466.5 c 0
 232 438.5 220.916666667 407.5 212.75 373.5 c 0
 204.583333333 339.5 200.5 302.666666667 200.5 263 c 0
 200.5 224 206.166666667 190.833333333 217.5 163.5 c 0
 228.833333333 136.166666667 243.583333333 113.75 261.75 96.25 c 0
 279.916666667 78.75 300.166666667 66 322.5 58 c 0
 344.833333333 50 367 46 389 46 c 0
 396.333333333 46 404.333333333 46.5 413 47.5 c 0
 421.666666667 48.5 430 49.8333333333 438 51.5 c 0
 446 53.1666666667 453.25 54.8333333333 459.75 56.5 c 0
 466.25 58.1666666667 471 59.8333333333 474 61.5 c 0
 479.333333333 62.1666666667 483.333333333 64.1666666667 486 67.5 c 0
 488.666666667 70.8333333333 490.833333333 74.3333333333 492.5 78 c 0
 541.5 213 l 0
 618.5 213 l 0
 587 27.5 l 0
 574 22.8333333333 559.083333333 17.9166666667 542.25 12.75 c 0
 525.416666667 7.58333333333 507.166666667 2.83333333333 487.5 -1.5 c 0
 467.833333333 -5.83333333333 446.916666667 -9.41666666667 424.75 -12.25 c 0
 402.583333333 -15.0833333333 379.5 -16.5 355.5 -16.5 c 0
 317.166666667 -16.5 282.916666667 -12.5833333333 252.75 -4.75 c 0
 222.583333333 3.08333333333 196.166666667 13.9166666667 173.5 27.75 c 0
 150.833333333 41.5833333333 131.583333333 57.8333333333 115.75 76.5 c 0
 99.9166666667 95.1666666667 87.0833333333 115.333333333 77.25 137 c 0
 67.4166666667 158.666666667 60.25 181.166666667 55.75 204.5 c 0
 51.25 227.833333333 49 251.166666667 49 274.5 c 0
 49 309.5 53.4166666667 344.5 62.25 379.5 c 0
 71.0833333333 414.5 84 447.833333333 101 479.5 c 0
 118 511.166666667 139 540.666666667 164 568 c 0
 189 595.333333333 217.5 619.083333333 249.5 639.25 c 0
 281.5 659.416666667 317 675.166666667 356 686.5 c 0
 395 697.833333333 437.166666667 703.5 482.5 703.5 c 0
 502.166666667 703.5 520.916666667 702.416666667 538.75 700.25 c 0
 556.583333333 698.083333333 574.333333333 695.166666667 592 691.5 c 0
 609.666666667 687.833333333 627.583333333 683.333333333 645.75 678 c 0
 663.916666667 672.666666667 683.166666667 666.833333333 703.5 660.5 c 0
 671.5 480.5 l 0
EndSplineSet
EndChar

StartChar: D
Encoding: 39 68 39
Width: 730
VWidth: 500
Flags: HW
LayerCount: 2
Fore
SplineSet
711.5 424 m 0
 711.5 363 700.833333333 306.583333333 679.5 254.75 c 0
 658.166666667 202.916666667 627.5 158.166666667 587.5 120.5 c 0
 547.5 82.8333333333 498.75 53.3333333333 441.25 32 c 0
 383.75 10.6666666667 319 0 247 0 c 0
 -15.5 0 l 0
 -15.5 51 l 0
 -7.83333333333 51.6666666667 -0.333333333333 52.3333333333 7 53 c 0
 14.3333333333 53.6666666667 20.8333333333 54.1666666667 26.5 54.5 c 0
 33.1666666667 54.8333333333 39.6666666667 55.1666666667 46 55.5 c 0
 54.3333333333 56.1666666667 59.75 57.4166666667 62.25 59.25 c 0
 64.75 61.0833333333 66.8333333333 65.5 68.5 72.5 c 0
 175 615.5 l 0
 176 621.5 174.75 625.416666667 171.25 627.25 c 0
 167.75 629.083333333 162.833333333 630.333333333 156.5 631 c 0
 150.166666667 631.333333333 143.833333333 631.833333333 137.5 632.5 c 0
 131.833333333 633.166666667 125.5 633.75 118.5 634.25 c 0
 111.5 634.75 104.5 635.333333333 97.5 636 c 0
 97.5 687 l 0
 363.5 687 l 0
 416.5 687 464.416666667 682.166666667 507.25 672.5 c 0
 550.083333333 662.833333333 586.666666667 647.416666667 617 626.25 c 0
 647.333333333 605.083333333 670.666666667 577.833333333 687 544.5 c 0
 703.333333333 511.166666667 711.5 471 711.5 424 c 0
558 433 m 0
 558 461 555 485.166666667 549 505.5 c 0
 543 525.833333333 534.833333333 543.083333333 524.5 557.25 c 0
 514.166666667 571.416666667 501.916666667 582.833333333 487.75 591.5 c 0
 473.583333333 600.166666667 458.333333333 606.916666667 442 611.75 c 0
 425.666666667 616.583333333 408.666666667 619.916666667 391 621.75 c 0
 373.333333333 623.583333333 355.666666667 624.833333333 338 625.5 c 0
 323.5 625.5 l 0
 213 63.5 l 0
 265 63.5 l 0
 295 63.8333333333 323.083333333 68.6666666667 349.25 78 c 0
 375.416666667 87.3333333333 399.333333333 100.25 421 116.75 c 0
 442.666666667 133.25 462 152.916666667 479 175.75 c 0
 496 198.583333333 510.333333333 223.583333333 522 250.75 c 0
 533.666666667 277.916666667 542.583333333 306.916666667 548.75 337.75 c 0
 554.916666667 368.583333333 558 400.333333333 558 433 c 0
EndSplineSet
EndChar

StartChar: E
Encoding: 40 69 40
Width: 614
VWidth: 500
Flags: HW
LayerCount: 2
Fore
SplineSet
605 525.5 m 0
 523.5 525.5 l 0
 523.5 612.5 l 0
 523.5 617.5 520.916666667 620.916666667 515.75 622.75 c 0
 510.583333333 624.583333333 505.166666667 625.5 499.5 625.5 c 0
 323.5 625.5 l 0
 277.5 388 l 0
 393 388 l 0
 398.333333333 388 404.083333333 389.25 410.25 391.75 c 0
 416.416666667 394.25 420.333333333 398.166666667 422 403.5 c 0
 443.5 475 l 0
 518 475 l 0
 471 234.5 l 0
 395.5 234.5 l 0
 405.5 311.5 l 0
 405.833333333 313.5 405.333333333 315.333333333 404 317 c 0
 402.666666667 318.666666667 400.833333333 320.166666667 398.5 321.5 c 0
 396.166666667 322.833333333 393.583333333 323.833333333 390.75 324.5 c 0
 387.916666667 325.166666667 385.333333333 325.5 383 325.5 c 0
 265 325.5 l 0
 214 61.5 l 0
 432 61.5 l 0
 437.333333333 61.5 443.083333333 62.8333333333 449.25 65.5 c 0
 455.416666667 68.1666666667 459.333333333 71.6666666667 461 76 c 0
 493.5 178 l 0
 574.5 178 l 0
 538.5 0 l 0
 -15.5 0 l 0
 -15.5 51 l 0
 -7.83333333333 51.6666666667 -0.25 52.3333333333 7.25 53 c 0
 14.75 53.6666666667 21.3333333333 54.3333333333 27 55 c 0
 33.6666666667 55.6666666667 40 56.1666666667 46 56.5 c 0
 53.6666666667 57.1666666667 59.0833333333 58.3333333333 62.25 60 c 0
 65.4166666667 61.6666666667 67.5 65.8333333333 68.5 72.5 c 0
 175 615.5 l 0
 176.666666667 621.5 175.666666667 625.416666667 172 627.25 c 0
 168.333333333 629.083333333 163.166666667 630.333333333 156.5 631 c 0
 150.5 631.333333333 144.333333333 631.833333333 138 632.5 c 0
 132.333333333 633.166666667 126 633.75 119 634.25 c 0
 112 634.75 105.166666667 635.333333333 98.5 636 c 0
 98.5 687 l 0
 638 687 l 0
 605 525.5 l 0
EndSplineSet
EndChar

StartChar: F
Encoding: 41 70 41
Width: 569
VWidth: 500
Flags: HW
LayerCount: 2
Fore
SplineSet
593 514 m 0
 510 514 l 0
 510 612.5 l 0
 510 617.5 507.5 620.916666667 502.5 622.75 c 0
 497.5 624.583333333 492.166666667 625.5 486.5 625.5 c 0
 323.5 625.5 l 0
 275.5 378 l 0
 384 378 l 0
 389 378 394.583333333 379.083333333 400.75 381.25 c 0
 406.916666667 383.416666667 410.833333333 387 412.5 392 c 0
 433 466 l 0
 509 466 l 0
 462 224.5 l 0
 385 224.5 l 0
 396.5 301 l 0
 396.833333333 305.666666667 394.25 309.25 388.75 311.75 c 0
 383.25 314.25 377.833333333 315.5 372.5 315.5 c 0
 263 315.5 l 0
 215 71.5 l 0
 214 65.5 215.333333333 61.6666666667 219 60 c 0
 222.666666667 58.3333333333 227.833333333 57.1666666667 234.5 56.5 c 0
 240.833333333 56.1666666667 247.666666667 55.6666666667 255 55 c 0
 261.333333333 54.3333333333 268.416666667 53.6666666667 276.25 53 c 0
 284.083333333 52.3333333333 292.333333333 51.6666666667 301 51 c 0
 301 0 l 0
 -15.5 0 l 0
 -15.5 51 l 0
 -8.5 51.6666666667 -1.58333333333 52.3333333333 5.25 53 c 0
 12.0833333333 53.6666666667 18.3333333333 54.3333333333 24 55 c 0
 30.3333333333 55.6666666667 36.6666666667 56.1666666667 43 56.5 c 0
 50.6666666667 57.1666666667 56.4166666667 58.3333333333 60.25 60 c 0
 64.0833333333 61.6666666667 66.8333333333 65.8333333333 68.5 72.5 c 0
 175 615.5 l 0
 176 621.5 174.666666667 625.416666667 171 627.25 c 0
 167.333333333 629.083333333 162.166666667 630.333333333 155.5 631 c 0
 149.5 631.333333333 143.333333333 631.833333333 137 632.5 c 0
 131.333333333 633.166666667 125 633.75 118 634.25 c 0
 111 634.75 104.166666667 635.333333333 97.5 636 c 0
 97.5 687 l 0
 626.5 687 l 0
 593 514 l 0
EndSplineSet
EndChar

StartChar: G
Encoding: 42 71 42
Width: 747
VWidth: 500
Flags: HW
LayerCount: 2
Fore
SplineSet
664.5 280.5 m 0
 659.833333333 279.833333333 656.583333333 278.25 654.75 275.75 c 0
 652.916666667 273.25 651.333333333 269.666666667 650 265 c 0
 603 26.5 l 0
 588.666666667 22.5 572.166666667 18 553.5 13 c 0
 534.833333333 8 514.833333333 3.33333333333 493.5 -1 c 0
 472.166666667 -5.33333333333 450.25 -9 427.75 -12 c 0
 405.25 -15 383.166666667 -16.5 361.5 -16.5 c 0
 317.833333333 -16.5 279.833333333 -11.8333333333 247.5 -2.5 c 0
 215.166666667 6.83333333333 187.5 19.3333333333 164.5 35 c 0
 141.5 50.6666666667 122.5 68.5833333333 107.5 88.75 c 0
 92.5 108.916666667 80.6666666667 129.833333333 72 151.5 c 0
 63.3333333333 173.166666667 57.3333333333 194.75 54 216.25 c 0
 50.6666666667 237.75 49 257.5 49 275.5 c 0
 49 317.833333333 54.75 357.833333333 66.25 395.5 c 0
 77.75 433.166666667 93.75 467.916666667 114.25 499.75 c 0
 134.75 531.583333333 159.25 560.083333333 187.75 585.25 c 0
 216.25 610.416666667 247.666666667 631.75 282 649.25 c 0
 316.333333333 666.75 353 680.166666667 392 689.5 c 0
 431 698.833333333 471 703.5 512 703.5 c 0
 531.333333333 703.5 549.416666667 702.75 566.25 701.25 c 0
 583.083333333 699.75 599.75 697.416666667 616.25 694.25 c 0
 632.75 691.083333333 649.666666667 687.083333333 667 682.25 c 0
 684.333333333 677.416666667 703.333333333 671.833333333 724 665.5 c 0
 686 479 l 0
 599 479 l 0
 608.5 595 l 0
 609.166666667 601 606.583333333 605.75 600.75 609.25 c 0
 594.916666667 612.75 588.5 615.833333333 581.5 618.5 c 0
 578.166666667 619.5 573.583333333 621.083333333 567.75 623.25 c 0
 561.916666667 625.416666667 555.25 627.583333333 547.75 629.75 c 0
 540.25 631.916666667 532.333333333 633.833333333 524 635.5 c 0
 515.666666667 637.166666667 507.5 638 499.5 638 c 0
 478.5 638 456.666666667 634.166666667 434 626.5 c 0
 411.333333333 618.833333333 389.083333333 607.583333333 367.25 592.75 c 0
 345.416666667 577.916666667 324.666666667 559.583333333 305 537.75 c 0
 285.333333333 515.916666667 268.083333333 491 253.25 463 c 0
 238.416666667 435 226.666666667 404 218 370 c 0
 209.333333333 336 205 299.333333333 205 260 c 0
 205 232.333333333 208.25 207.916666667 214.75 186.75 c 0
 221.25 165.583333333 229.75 147.083333333 240.25 131.25 c 0
 250.75 115.416666667 262.583333333 102.25 275.75 91.75 c 0
 288.916666667 81.25 302.083333333 72.75 315.25 66.25 c 0
 328.416666667 59.75 340.833333333 55.0833333333 352.5 52.25 c 0
 364.166666667 49.4166666667 374 48 382 48 c 0
 388.666666667 48 395.833333333 48.5 403.5 49.5 c 0
 411.166666667 50.5 418.666666667 51.75 426 53.25 c 0
 433.333333333 54.75 440.333333333 56.3333333333 447 58 c 0
 453.666666667 59.6666666667 459.333333333 61.1666666667 464 62.5 c 0
 504 265 l 0
 505 271.333333333 504 275.5 501 277.5 c 0
 498 279.5 492.5 280.833333333 484.5 281.5 c 0
 478.5 281.5 472.333333333 281.833333333 466 282.5 c 0
 460.333333333 282.833333333 454.083333333 283.25 447.25 283.75 c 0
 440.416666667 284.25 433.666666667 284.833333333 427 285.5 c 0
 427 338 l 0
 734 338 l 0
 734 285.5 l 0
 664.5 280.5 l 0
EndSplineSet
EndChar

StartChar: H
Encoding: 43 72 43
Width: 785
VWidth: 500
Flags: HW
LayerCount: 2
Fore
SplineSet
763 630 m 0
 756.666666667 629.333333333 752.25 627.75 749.75 625.25 c 0
 747.25 622.75 745.5 619.166666667 744.5 614.5 c 0
 638 71.5 l 0
 637 65.8333333333 638 62.0833333333 641 60.25 c 0
 644 58.4166666667 648.833333333 57.1666666667 655.5 56.5 c 0
 661.5 56.1666666667 667.833333333 55.6666666667 674.5 55 c 0
 680.166666667 54.3333333333 686.583333333 53.6666666667 693.75 53 c 0
 700.916666667 52.3333333333 708.333333333 51.6666666667 716 51 c 0
 716 0 l 0
 405.5 0 l 0
 405.5 51 l 0
 428.5 53 l 0
 436.166666667 53.6666666667 443 54.3333333333 449 55 c 0
 456 55.6666666667 462.666666667 56.1666666667 469 56.5 c 0
 475.333333333 57.1666666667 480.416666667 58.5 484.25 60.5 c 0
 488.083333333 62.5 490.5 66.5 491.5 72.5 c 0
 541.5 328.5 l 0
 265 328.5 l 0
 215 71.5 l 0
 214 65.5 214.666666667 61.6666666667 217 60 c 0
 219.333333333 58.3333333333 224.833333333 57.1666666667 233.5 56.5 c 0
 239.5 56.1666666667 245.833333333 55.6666666667 252.5 55 c 0
 258.166666667 54.3333333333 264.583333333 53.6666666667 271.75 53 c 0
 278.916666667 52.3333333333 286.333333333 51.6666666667 294 51 c 0
 294 0 l 0
 -15.5 0 l 0
 -15.5 51 l 0
 -7.83333333333 51.6666666667 -0.25 52.3333333333 7.25 53 c 0
 14.75 53.6666666667 21.3333333333 54.3333333333 27 55 c 0
 33.6666666667 55.6666666667 40 56.1666666667 46 56.5 c 0
 53.3333333333 57.1666666667 58.6666666667 58.5 62 60.5 c 0
 65.3333333333 62.5 67.5 66.5 68.5 72.5 c 0
 175 615.5 l 0
 176 621.5 174.833333333 625.416666667 171.5 627.25 c 0
 168.166666667 629.083333333 162.833333333 630.333333333 155.5 631 c 0
 149.5 631.333333333 143.333333333 631.833333333 137 632.5 c 0
 131.333333333 633.166666667 125.083333333 633.75 118.25 634.25 c 0
 111.416666667 634.75 104.5 635.333333333 97.5 636 c 0
 97.5 687 l 0
 406.5 687 l 0
 406.5 636 l 0
 398.5 635.333333333 390.75 634.75 383.25 634.25 c 0
 375.75 633.75 369 633.166666667 363 632.5 c 0
 356 631.833333333 349.333333333 631.333333333 343 631 c 0
 336.333333333 630.333333333 331.333333333 628.916666667 328 626.75 c 0
 324.666666667 624.583333333 322.5 620.5 321.5 614.5 c 0
 277.5 390 l 0
 554 390 l 0
 598 615.5 l 0
 599 621.5 597.75 625.583333333 594.25 627.75 c 0
 590.75 629.916666667 584.833333333 631.333333333 576.5 632 c 0
 570.5 632.333333333 564.333333333 632.666666667 558 633 c 0
 552.333333333 633.333333333 546.083333333 633.75 539.25 634.25 c 0
 532.416666667 634.75 525.666666667 635.333333333 519 636 c 0
 519 687 l 0
 828.5 687 l 0
 828.5 636 l 0
 763 630 l 0
EndSplineSet
EndChar

StartChar: I
Encoding: 44 73 44
Width: 364
VWidth: 500
Flags: HW
LayerCount: 2
Fore
SplineSet
337 631 m 0
 331.666666667 630.333333333 328 628.583333333 326 625.75 c 0
 324 622.916666667 322.5 619.166666667 321.5 614.5 c 0
 215 71.5 l 0
 214 65.8333333333 214.666666667 62.0833333333 217 60.25 c 0
 219.333333333 58.4166666667 223.833333333 57.1666666667 230.5 56.5 c 0
 236.833333333 56.1666666667 243.5 55.6666666667 250.5 55 c 0
 256.5 54.3333333333 263.333333333 53.6666666667 271 53 c 0
 278.666666667 52.3333333333 286.666666667 51.6666666667 295 51 c 0
 295 0 l 0
 -15.5 0 l 0
 -15.5 51 l 0
 -7.83333333333 51.6666666667 -0.416666666667 52.1666666667 6.75 52.5 c 0
 13.9166666667 52.8333333333 20.3333333333 53.3333333333 26 54 c 0
 32.6666666667 54.6666666667 39 55.1666666667 45 55.5 c 0
 52.6666666667 56.1666666667 58.25 57.4166666667 61.75 59.25 c 0
 65.25 61.0833333333 67.5 65.5 68.5 72.5 c 0
 175 615.5 l 0
 176.666666667 621.5 175.666666667 625.416666667 172 627.25 c 0
 168.333333333 629.083333333 163.166666667 630.333333333 156.5 631 c 0
 150.5 631.333333333 144.333333333 631.833333333 138 632.5 c 0
 132.333333333 633.166666667 126 633.75 119 634.25 c 0
 112 634.75 105.166666667 635.333333333 98.5 636 c 0
 98.5 687 l 0
 407.5 687 l 0
 407.5 636 l 0
 337 631 l 0
EndSplineSet
EndChar

StartChar: J
Encoding: 45 74 45
Width: 522
VWidth: 500
Flags: HW
LayerCount: 2
Fore
SplineSet
492.5 630 m 0
 487.833333333 630 484.583333333 628.583333333 482.75 625.75 c 0
 480.916666667 622.916666667 479.333333333 619.166666667 478 614.5 c 0
 412.5 263 l 0
 405.166666667 222.666666667 396.083333333 185.416666667 385.25 151.25 c 0
 374.416666667 117.083333333 359 87.5833333333 339 62.75 c 0
 319 37.9166666667 292.75 18.5 260.25 4.5 c 0
 227.75 -9.5 186.333333333 -16.5 136 -16.5 c 0
 113.333333333 -16.5 93.0833333333 -15 75.25 -12 c 0
 57.4166666667 -9 42 -5.5 29 -1.5 c 0
 16 2.5 5.41666666667 6.41666666667 -2.75 10.25 c 0
 -10.9166666667 14.0833333333 -16.8333333333 16.8333333333 -20.5 18.5 c 0
 14.5 196.5 l 0
 98.5 196.5 l 0
 98.5 67.5 l 0
 98.5 64.8333333333 100.083333333 62.25 103.25 59.75 c 0
 106.416666667 57.25 110.333333333 55.0833333333 115 53.25 c 0
 119.666666667 51.4166666667 124.583333333 49.9166666667 129.75 48.75 c 0
 134.916666667 47.5833333333 139.5 47 143.5 47 c 0
 173.166666667 47 197.5 64.0833333333 216.5 98.25 c 0
 235.5 132.416666667 251.333333333 184.666666667 264 255 c 0
 332 615.5 l 0
 333 621.5 331.833333333 625.416666667 328.5 627.25 c 0
 325.166666667 629.083333333 320.166666667 630.333333333 313.5 631 c 0
 307.166666667 631.333333333 300.666666667 631.833333333 294 632.5 c 0
 288.333333333 633.166666667 281.833333333 633.75 274.5 634.25 c 0
 267.166666667 634.75 260 635.333333333 253 636 c 0
 253 687 l 0
 562 687 l 0
 562 636 l 0
 492.5 630 l 0
EndSplineSet
EndChar

StartChar: K
Encoding: 46 75 46
Width: 715
VWidth: 500
Flags: HW
LayerCount: 2
Fore
SplineSet
661.5 627.5 m 0
 397.5 376 l 0
 539.5 105.5 l 0
 545.5 94.1666666667 550.416666667 85 554.25 78 c 0
 558.083333333 71 562 65.4166666667 566 61.25 c 0
 570 57.0833333333 574.5 54.25 579.5 52.75 c 0
 584.5 51.25 591 50.3333333333 599 50 c 0
 601.666666667 50 606.333333333 50.25 613 50.75 c 0
 619.666666667 51.25 626.666666667 51.75 634 52.25 c 0
 641.333333333 52.75 647.916666667 53.25 653.75 53.75 c 0
 659.583333333 54.25 662.833333333 54.5 663.5 54.5 c 0
 663.5 3 l 0
 644.833333333 -2.66666666667 625.333333333 -7.33333333333 605 -11 c 0
 584.666666667 -14.6666666667 565 -16.5 546 -16.5 c 0
 525.333333333 -16.5 507.75 -15 493.25 -12 c 0
 478.75 -9 466.25 -4.25 455.75 2.25 c 0
 445.25 8.75 436.083333333 17.0833333333 428.25 27.25 c 0
 420.416666667 37.4166666667 412.833333333 49.5 405.5 63.5 c 0
 282.5 298 l 0
 259 298 l 0
 214 71.5 l 0
 213 64.8333333333 214.083333333 60.6666666667 217.25 59 c 0
 220.416666667 57.3333333333 224.833333333 56.1666666667 230.5 55.5 c 0
 236.166666667 55.1666666667 242 54.6666666667 248 54 c 0
 253 53.3333333333 258.583333333 52.8333333333 264.75 52.5 c 0
 270.916666667 52.1666666667 277.166666667 51.6666666667 283.5 51 c 0
 283.5 0 l 0
 -16.5 0 l 0
 -16.5 51 l 0
 -9.83333333333 51.6666666667 -2.83333333333 52.1666666667 4.5 52.5 c 0
 11.8333333333 52.8333333333 18.8333333333 53.3333333333 25.5 54 c 0
 33.1666666667 54.6666666667 40.6666666667 55.1666666667 48 55.5 c 0
 53.3333333333 55.5 57.6666666667 56.6666666667 61 59 c 0
 64.3333333333 61.3333333333 66.5 65.8333333333 67.5 72.5 c 0
 175 615.5 l 0
 176.666666667 621.5 176.166666667 625.583333333 173.5 627.75 c 0
 170.833333333 629.916666667 167 631.333333333 162 632 c 0
 156.333333333 632.333333333 150.5 632.666666667 144.5 633 c 0
 139.166666667 633.333333333 133.333333333 633.75 127 634.25 c 0
 120.666666667 634.75 114.166666667 635.333333333 107.5 636 c 0
 107.5 687 l 0
 397.5 687 l 0
 397.5 636 l 0
 390.5 635.333333333 383.583333333 634.75 376.75 634.25 c 0
 369.916666667 633.75 363.833333333 633.333333333 358.5 633 c 0
 352.5 632.666666667 346.666666667 632.333333333 341 632 c 0
 336 631.333333333 331.916666667 629.916666667 328.75 627.75 c 0
 325.583333333 625.583333333 323.166666667 621.166666667 321.5 614.5 c 0
 277.5 392 l 0
 285.5 392 l 0
 516 616.5 l 0
 521.333333333 621.166666667 522.916666667 624.75 520.75 627.25 c 0
 518.583333333 629.75 514 631.333333333 507 632 c 0
 501 632 495 632.333333333 489 633 c 0
 483.666666667 633.333333333 477.833333333 633.75 471.5 634.25 c 0
 465.166666667 634.75 459.166666667 635.333333333 453.5 636 c 0
 453.5 687 l 0
 751.5 687 l 0
 751.5 636 l 0
 661.5 627.5 l 0
EndSplineSet
EndChar

StartChar: L
Encoding: 47 76 47
Width: 573
VWidth: 500
Flags: HW
LayerCount: 2
Fore
SplineSet
499.5 0 m 0
 -15.5 0 l 0
 -15.5 51 l 0
 -8.5 51.6666666667 -1.58333333333 52.3333333333 5.25 53 c 0
 12.0833333333 53.6666666667 18.3333333333 54.1666666667 24 54.5 c 0
 43 55.5 l 0
 52.6666666667 56.5 59.0833333333 57.9166666667 62.25 59.75 c 0
 65.4166666667 61.5833333333 67.5 65.8333333333 68.5 72.5 c 0
 175 615.5 l 0
 176.666666667 621.166666667 175.75 625 172.25 627 c 0
 168.75 629 164.166666667 630.333333333 158.5 631 c 0
 152.5 631.333333333 146.166666667 631.833333333 139.5 632.5 c 0
 133.833333333 633.166666667 127.416666667 633.75 120.25 634.25 c 0
 113.083333333 634.75 105.833333333 635.333333333 98.5 636 c 0
 98.5 687 l 0
 407.5 687 l 0
 407.5 636 l 0
 398.833333333 635.333333333 390.583333333 634.75 382.75 634.25 c 0
 374.916666667 633.75 367.833333333 633.166666667 361.5 632.5 c 0
 354.166666667 631.833333333 347.333333333 631.333333333 341 631 c 0
 336.333333333 630.333333333 332.333333333 628.916666667 329 626.75 c 0
 325.666666667 624.583333333 323.166666667 620.5 321.5 614.5 c 0
 213 61.5 l 0
 393 61.5 l 0
 398.333333333 61.5 404.083333333 62.8333333333 410.25 65.5 c 0
 416.416666667 68.1666666667 420.333333333 71.6666666667 422 76 c 0
 464 207 l 0
 540.5 207 l 0
 499.5 0 l 0
EndSplineSet
EndChar

StartChar: M
Encoding: 48 77 48
Width: 925
VWidth: 500
Flags: HW
LayerCount: 2
Fore
SplineSet
898 628.5 m 0
 893.333333333 627.833333333 890.083333333 626.5 888.25 624.5 c 0
 886.416666667 622.5 884.833333333 619.166666667 883.5 614.5 c 0
 778 71.5 l 0
 777 65.5 778.166666667 61.6666666667 781.5 60 c 0
 784.833333333 58.3333333333 789.833333333 57.1666666667 796.5 56.5 c 0
 802.5 56.1666666667 808.833333333 55.6666666667 815.5 55 c 0
 821.166666667 54.3333333333 827.5 53.6666666667 834.5 53 c 0
 841.5 52.3333333333 848.666666667 51.6666666667 856 51 c 0
 856 0 l 0
 547 0 l 0
 547 51 l 0
 554.666666667 51.6666666667 562.166666667 52.3333333333 569.5 53 c 0
 576.833333333 53.6666666667 583.5 54.3333333333 589.5 55 c 0
 596.5 55.6666666667 603.166666667 56.1666666667 609.5 56.5 c 0
 615.166666667 56.5 620.083333333 57.6666666667 624.25 60 c 0
 628.416666667 62.3333333333 631 66.5 632 72.5 c 0
 708.5 468 l 0
 442.5 0 l 0
 342 0 l 0
 259 461 l 0
 186.5 71.5 l 0
 184.833333333 65.8333333333 185.583333333 62.0833333333 188.75 60.25 c 0
 191.916666667 58.4166666667 195.833333333 57.1666666667 200.5 56.5 c 0
 206.833333333 56.1666666667 213.333333333 55.6666666667 220 55 c 0
 225.666666667 54.3333333333 232.25 53.6666666667 239.75 53 c 0
 247.25 52.3333333333 255 51.6666666667 263 51 c 0
 263 0 l 0
 -14.5 0 l 0
 -14.5 51 l 0
 -7.5 51.6666666667 -0.666666666667 52.3333333333 6 53 c 0
 12.6666666667 53.6666666667 18.8333333333 54.3333333333 24.5 55 c 0
 30.8333333333 55.6666666667 37 56.1666666667 43 56.5 c 0
 50.3333333333 57.1666666667 56.1666666667 58.3333333333 60.5 60 c 0
 64.8333333333 61.6666666667 67.8333333333 65.8333333333 69.5 72.5 c 0
 175 615.5 l 0
 176 621.5 174.833333333 625.416666667 171.5 627.25 c 0
 168.166666667 629.083333333 163.166666667 630.333333333 156.5 631 c 0
 150.166666667 631.333333333 143.833333333 631.833333333 137.5 632.5 c 0
 131.833333333 633.166666667 125.5 633.75 118.5 634.25 c 0
 111.5 634.75 104.5 635.333333333 97.5 636 c 0
 97.5 687 l 0
 369.5 687 l 0
 369.5 653.5 l 0
 447.5 223 l 0
 688 649 l 0
 688 687 l 0
 967.5 687 l 0
 967.5 636 l 0
 898 628.5 l 0
EndSplineSet
EndChar

StartChar: N
Encoding: 49 78 49
Width: 771
VWidth: 500
Flags: HW
LayerCount: 2
Fore
SplineSet
749.5 630 m 0
 739.833333333 628.333333333 734 623.166666667 732 614.5 c 0
 610.5 0 l 0
 496.5 0 l 0
 267.5 476 l 0
 188.5 71.5 l 0
 187.5 65.5 188.5 61.6666666667 191.5 60 c 0
 194.5 58.3333333333 199.666666667 57.1666666667 207 56.5 c 0
 213 56.1666666667 219.166666667 55.6666666667 225.5 55 c 0
 231.166666667 54.3333333333 237.416666667 53.6666666667 244.25 53 c 0
 251.083333333 52.3333333333 258.333333333 51.6666666667 266 51 c 0
 266 0 l 0
 -14.5 0 l 0
 -14.5 51 l 0
 -7.16666666667 51.6666666667 -0.0833333333333 52.3333333333 6.75 53 c 0
 13.5833333333 53.6666666667 19.8333333333 54.3333333333 25.5 55 c 0
 31.8333333333 55.6666666667 38 56.1666666667 44 56.5 c 0
 51.3333333333 57.1666666667 57 58.3333333333 61 60 c 0
 65 61.6666666667 67.8333333333 65.8333333333 69.5 72.5 c 0
 175 615.5 l 0
 176.666666667 621.5 175.666666667 625.416666667 172 627.25 c 0
 168.333333333 629.083333333 163.166666667 630.333333333 156.5 631 c 0
 150.5 631.333333333 144.333333333 631.833333333 138 632.5 c 0
 132.333333333 633.166666667 126.083333333 633.75 119.25 634.25 c 0
 112.416666667 634.75 105.5 635.333333333 98.5 636 c 0
 98.5 687 l 0
 339 687 l 0
 339 655.5 l 0
 538.5 238.5 l 0
 613.5 615.5 l 0
 615.166666667 621.5 613.833333333 625.416666667 609.5 627.25 c 0
 605.166666667 629.083333333 600 630.333333333 594 631 c 0
 587.666666667 631.333333333 581.333333333 631.833333333 575 632.5 c 0
 569.333333333 633.166666667 563 633.75 556 634.25 c 0
 549 634.75 542.166666667 635.333333333 535.5 636 c 0
 535.5 687 l 0
 816 687 l 0
 816 636 l 0
 749.5 630 l 0
EndSplineSet
EndChar

StartChar: O
Encoding: 50 79 50
Width: 770
VWidth: 500
Flags: HW
LayerCount: 2
Fore
SplineSet
750.5 427 m 0
 750.5 392 746.833333333 356.75 739.5 321.25 c 0
 732.166666667 285.75 721.083333333 251.583333333 706.25 218.75 c 0
 691.416666667 185.916666667 672.833333333 155.166666667 650.5 126.5 c 0
 628.166666667 97.8333333333 602.166666667 72.9166666667 572.5 51.75 c 0
 542.833333333 30.5833333333 509.333333333 13.9166666667 472 1.75 c 0
 434.666666667 -10.4166666667 393.666666667 -16.5 349 -16.5 c 0
 301.333333333 -16.5 258.916666667 -9.41666666667 221.75 4.75 c 0
 184.583333333 18.9166666667 153.166666667 38.75 127.5 64.25 c 0
 101.833333333 89.75 82.3333333333 119.916666667 69 154.75 c 0
 55.6666666667 189.583333333 49 227.833333333 49 269.5 c 0
 49 304.833333333 53.0833333333 340.166666667 61.25 375.5 c 0
 69.4166666667 410.833333333 81.4166666667 444.583333333 97.25 476.75 c 0
 113.083333333 508.916666667 132.5 538.833333333 155.5 566.5 c 0
 178.5 594.166666667 204.916666667 618.166666667 234.75 638.5 c 0
 264.583333333 658.833333333 297.666666667 674.75 334 686.25 c 0
 370.333333333 697.75 409.5 703.5 451.5 703.5 c 0
 500.833333333 703.5 544.166666667 695.916666667 581.5 680.75 c 0
 618.833333333 665.583333333 650 645.25 675 619.75 c 0
 700 594.25 718.833333333 564.833333333 731.5 531.5 c 0
 744.166666667 498.166666667 750.5 463.333333333 750.5 427 c 0
591 427 m 0
 591 461.333333333 586.583333333 491.833333333 577.75 518.5 c 0
 568.916666667 545.166666667 557.416666667 567.666666667 543.25 586 c 0
 529.083333333 604.333333333 513.166666667 618.25 495.5 627.75 c 0
 477.833333333 637.25 460.166666667 642 442.5 642 c 0
 422.166666667 642 402.25 636.833333333 382.75 626.5 c 0
 363.25 616.166666667 344.833333333 602.083333333 327.5 584.25 c 0
 310.166666667 566.416666667 294.166666667 545.25 279.5 520.75 c 0
 264.833333333 496.25 252.25 469.916666667 241.75 441.75 c 0
 231.25 413.583333333 223 384.083333333 217 353.25 c 0
 211 322.416666667 208 291.666666667 208 261 c 0
 208 225.666666667 212.583333333 194.666666667 221.75 168 c 0
 230.916666667 141.333333333 242.666666667 119 257 101 c 0
 271.333333333 83 287.25 69.5 304.75 60.5 c 0
 322.25 51.5 339.5 47 356.5 47 c 0
 376.5 47 396.25 52.25 415.75 62.75 c 0
 435.25 73.25 453.666666667 87.6666666667 471 106 c 0
 488.333333333 124.333333333 504.333333333 145.75 519 170.25 c 0
 533.666666667 194.75 546.333333333 221.083333333 557 249.25 c 0
 567.666666667 277.416666667 576 306.666666667 582 337 c 0
 588 367.333333333 591 397.333333333 591 427 c 0
EndSplineSet
EndChar

StartChar: P
Encoding: 51 80 51
Width: 622
VWidth: 500
Flags: HW
LayerCount: 2
Fore
SplineSet
478 504 m 0
 478 544.333333333 466.5 575.166666667 443.5 596.5 c 0
 420.5 617.833333333 386.333333333 628.5 341 628.5 c 0
 323.5 628.5 l 0
 261 315.5 l 0
 281 314.833333333 302.25 316.583333333 324.75 320.75 c 0
 347.25 324.916666667 369 333.333333333 390 346 c 0
 402.333333333 353.333333333 413.833333333 362 424.5 372 c 0
 435.166666667 382 444.5 393.5 452.5 406.5 c 0
 460.5 419.5 466.75 434.083333333 471.25 450.25 c 0
 475.75 466.416666667 478 484.333333333 478 504 c 0
627.5 520 m 0
 627.5 480 619.75 443.666666667 604.25 411 c 0
 588.75 378.333333333 566.5 350.25 537.5 326.75 c 0
 508.5 303.25 473.416666667 285.083333333 432.25 272.25 c 0
 391.083333333 259.416666667 345 253 294 253 c 0
 273 253 l 0
 264.666666667 253 257 253.333333333 250 254 c 0
 213 71.5 l 0
 212 65.5 213 61.6666666667 216 60 c 0
 219 58.3333333333 224.166666667 57.1666666667 231.5 56.5 c 0
 237.5 56.1666666667 243.833333333 55.6666666667 250.5 55 c 0
 256.166666667 54.3333333333 262.583333333 53.6666666667 269.75 53 c 0
 276.916666667 52.3333333333 284.333333333 51.6666666667 292 51 c 0
 292 0 l 0
 -17.5 0 l 0
 -17.5 51 l 0
 -10.1666666667 51.6666666667 -3 52.3333333333 4 53 c 0
 11 53.6666666667 17.3333333333 54.3333333333 23 55 c 0
 29.3333333333 55.6666666667 35.6666666667 56.1666666667 42 56.5 c 0
 48.6666666667 57.1666666667 54 58.3333333333 58 60 c 0
 62 61.6666666667 64.8333333333 65.8333333333 66.5 72.5 c 0
 174 615.5 l 0
 175 621.5 173.583333333 625.416666667 169.75 627.25 c 0
 165.916666667 629.083333333 160.833333333 630.333333333 154.5 631 c 0
 148.5 631.333333333 142.333333333 631.833333333 136 632.5 c 0
 130.333333333 633.166666667 124 633.75 117 634.25 c 0
 110 634.75 103.166666667 635.333333333 96.5 636 c 0
 96.5 687 l 0
 372.5 687 l 0
 420.833333333 687 461.333333333 682.583333333 494 673.75 c 0
 526.666666667 664.916666667 552.916666667 652.916666667 572.75 637.75 c 0
 592.583333333 622.583333333 606.666666667 604.916666667 615 584.75 c 0
 623.333333333 564.583333333 627.5 543 627.5 520 c 0
EndSplineSet
EndChar

StartChar: Q
Encoding: 52 81 52
Width: 770
VWidth: 500
Flags: HW
LayerCount: 2
Fore
SplineSet
782.5 -110.5 m 0
 777.833333333 -112.833333333 768.666666667 -116.916666667 755 -122.75 c 0
 741.333333333 -128.583333333 725.333333333 -134.583333333 707 -140.75 c 0
 688.666666667 -146.916666667 669 -152.333333333 648 -157 c 0
 627 -161.666666667 607 -164 588 -164 c 0
 556.333333333 -164 529.25 -159.916666667 506.75 -151.75 c 0
 484.25 -143.583333333 465 -132.75 449 -119.25 c 0
 433 -105.75 419.583333333 -90.0833333333 408.75 -72.25 c 0
 397.916666667 -54.4166666667 388 -35.8333333333 379 -16.5 c 0
 374.333333333 -17.1666666667 369.25 -17.6666666667 363.75 -18 c 0
 358.25 -18.3333333333 352.333333333 -18.5 346 -18.5 c 0
 301.666666667 -18.5 261.166666667 -11.9166666667 224.5 1.25 c 0
 187.833333333 14.4166666667 156.333333333 33.3333333333 130 58 c 0
 103.666666667 82.6666666667 83.25 112.416666667 68.75 147.25 c 0
 54.25 182.083333333 47 221.333333333 47 265 c 0
 47 299 51.0833333333 333.5 59.25 368.5 c 0
 67.4166666667 403.5 79.5 437.25 95.5 469.75 c 0
 111.5 502.25 131.083333333 532.666666667 154.25 561 c 0
 177.416666667 589.333333333 204 614.083333333 234 635.25 c 0
 264 656.416666667 297.25 673.083333333 333.75 685.25 c 0
 370.25 697.416666667 409.833333333 703.5 452.5 703.5 c 0
 501.166666667 703.5 544 696.166666667 581 681.5 c 0
 618 666.833333333 649 646.833333333 674 621.5 c 0
 699 596.166666667 717.833333333 566.75 730.5 533.25 c 0
 743.166666667 499.75 749.5 464 749.5 426 c 0
 749.5 408 748.416666667 388 746.25 366 c 0
 744.083333333 344 739.916666667 321.083333333 733.75 297.25 c 0
 727.583333333 273.416666667 719.25 249.083333333 708.75 224.25 c 0
 698.25 199.416666667 684.75 175.083333333 668.25 151.25 c 0
 651.75 127.416666667 631.75 104.5 608.25 82.5 c 0
 584.75 60.5 557.166666667 40.5 525.5 22.5 c 0
 535.166666667 5.16666666667 543.666666667 -10.6666666667 551 -25 c 0
 558.333333333 -39.3333333333 566.166666667 -51.5833333333 574.5 -61.75 c 0
 582.833333333 -71.9166666667 592.333333333 -79.8333333333 603 -85.5 c 0
 613.666666667 -91.1666666667 627 -94 643 -94 c 0
 652 -94 661.166666667 -92.9166666667 670.5 -90.75 c 0
 679.833333333 -88.5833333333 690 -85.5 701 -81.5 c 0
 712 -77.5 724.083333333 -72.5 737.25 -66.5 c 0
 750.416666667 -60.5 765.5 -53.6666666667 782.5 -46 c 0
 782.5 -110.5 l 0
591 426 m 0
 591 459 586.833333333 488.75 578.5 515.25 c 0
 570.166666667 541.75 559.25 564.333333333 545.75 583 c 0
 532.25 601.666666667 516.916666667 616 499.75 626 c 0
 482.583333333 636 465.166666667 641 447.5 641 c 0
 426.833333333 641 406.5 636.083333333 386.5 626.25 c 0
 366.5 616.416666667 347.5 602.75 329.5 585.25 c 0
 311.5 567.75 294.916666667 547 279.75 523 c 0
 264.583333333 499 251.416666667 472.916666667 240.25 444.75 c 0
 229.083333333 416.583333333 220.416666667 386.833333333 214.25 355.5 c 0
 208.083333333 324.166666667 205 292.333333333 205 260 c 0
 205 227.333333333 209.166666667 197.75 217.5 171.25 c 0
 225.833333333 144.75 236.916666667 122.166666667 250.75 103.5 c 0
 264.583333333 84.8333333333 280.583333333 70.4166666667 298.75 60.25 c 0
 316.916666667 50.0833333333 335.833333333 45 355.5 45 c 0
 375.166666667 45 394.666666667 50.1666666667 414 60.5 c 0
 433.333333333 70.8333333333 451.75 85.0833333333 469.25 103.25 c 0
 486.75 121.416666667 502.916666667 142.75 517.75 167.25 c 0
 532.583333333 191.75 545.416666667 218.166666667 556.25 246.5 c 0
 567.083333333 274.833333333 575.583333333 304.25 581.75 334.75 c 0
 587.916666667 365.25 591 395.666666667 591 426 c 0
EndSplineSet
EndChar

StartChar: R
Encoding: 53 82 53
Width: 699
VWidth: 500
Flags: HW
LayerCount: 2
Fore
SplineSet
479 518 m 0
 479 534.666666667 476.5 549 471.5 561 c 0
 466.5 573 460.083333333 583.083333333 452.25 591.25 c 0
 444.416666667 599.416666667 435.666666667 606 426 611 c 0
 416.333333333 616 406.666666667 619.75 397 622.25 c 0
 387.333333333 624.75 378.25 626.333333333 369.75 627 c 0
 361.25 627.666666667 354.333333333 627.833333333 349 627.5 c 0
 323.5 625.5 l 0
 273.5 360.5 l 0
 280.5 360.5 l 0
 283.5 360.5 286.333333333 360.666666667 289 361 c 0
 292.333333333 361 295.666666667 361.166666667 299 361.5 c 0
 312 361.833333333 325.5 363.333333333 339.5 366 c 0
 353.5 368.666666667 367.166666667 372.5 380.5 377.5 c 0
 393.833333333 382.5 406.416666667 389 418.25 397 c 0
 430.083333333 405 440.5 414.75 449.5 426.25 c 0
 458.5 437.75 465.666666667 451.083333333 471 466.25 c 0
 476.333333333 481.416666667 479 498.666666667 479 518 c 0
673 3 m 0
 657.333333333 -3.66666666667 642 -8.58333333333 627 -11.75 c 0
 612 -14.9166666667 595.166666667 -16.5 576.5 -16.5 c 0
 544.833333333 -16.5 518.833333333 -12.8333333333 498.5 -5.5 c 0
 478.166666667 1.83333333333 461.5 12.5833333333 448.5 26.75 c 0
 435.5 40.9166666667 425.333333333 58.3333333333 418 79 c 0
 410.666666667 99.6666666667 404.166666667 123.5 398.5 150.5 c 0
 396.166666667 160.5 393.75 171.083333333 391.25 182.25 c 0
 388.75 193.416666667 385.75 204.5 382.25 215.5 c 0
 378.75 226.5 374.583333333 237 369.75 247 c 0
 364.916666667 257 358.916666667 265.916666667 351.75 273.75 c 0
 344.583333333 281.583333333 336.25 287.75 326.75 292.25 c 0
 317.25 296.75 306 299 293 299 c 0
 288.666666667 299 283.5 298.833333333 277.5 298.5 c 0
 271.5 298.166666667 265.666666667 298 260 298 c 0
 217 71.5 l 0
 216 65.8333333333 216.833333333 62.0833333333 219.5 60.25 c 0
 222.166666667 58.4166666667 226.833333333 57.1666666667 233.5 56.5 c 0
 239.5 55.8333333333 246 55.1666666667 253 54.5 c 0
 258.666666667 53.8333333333 265.333333333 53.25 273 52.75 c 0
 280.666666667 52.25 288.333333333 51.6666666667 296 51 c 0
 296 0 l 0
 -13.5 0 l 0
 -13.5 51 l 0
 -5.83333333333 51.6666666667 1.58333333333 52.1666666667 8.75 52.5 c 0
 15.9166666667 52.8333333333 22.3333333333 53.3333333333 28 54 c 0
 34.6666666667 54.6666666667 41 55.1666666667 47 55.5 c 0
 53.3333333333 56.1666666667 58.4166666667 57.5 62.25 59.5 c 0
 66.0833333333 61.5 68.8333333333 65.8333333333 70.5 72.5 c 0
 175 615.5 l 0
 176.666666667 621.166666667 175.833333333 625 172.5 627 c 0
 169.166666667 629 164.166666667 630.333333333 157.5 631 c 0
 151.166666667 631.333333333 144.833333333 631.833333333 138.5 632.5 c 0
 132.833333333 633.166666667 126.5 633.75 119.5 634.25 c 0
 112.5 634.75 105.5 635.333333333 98.5 636 c 0
 98.5 687 l 0
 394 687 l 0
 428.333333333 687 460.333333333 684.333333333 490 679 c 0
 519.666666667 673.666666667 545.5 664.916666667 567.5 652.75 c 0
 589.5 640.583333333 606.75 624.75 619.25 605.25 c 0
 631.75 585.75 638 561.833333333 638 533.5 c 0
 638 506.5 632.75 482.083333333 622.25 460.25 c 0
 611.75 438.416666667 597.333333333 418.833333333 579 401.5 c 0
 560.666666667 384.166666667 539 369.083333333 514 356.25 c 0
 489 343.416666667 462 332.833333333 433 324.5 c 0
 452.666666667 315.5 468.5 305.583333333 480.5 294.75 c 0
 492.5 283.916666667 502.166666667 271.75 509.5 258.25 c 0
 516.833333333 244.75 522.75 229.916666667 527.25 213.75 c 0
 531.75 197.583333333 536.5 180 541.5 161 c 0
 546.166666667 143 550.75 127.166666667 555.25 113.5 c 0
 559.75 99.8333333333 566.416666667 88.3333333333 575.25 79 c 0
 584.083333333 69.6666666667 596.083333333 62.6666666667 611.25 58 c 0
 626.416666667 53.3333333333 647 51 673 51 c 0
 673 3 l 0
EndSplineSet
EndChar

StartChar: S
Encoding: 54 83 54
Width: 576
VWidth: 500
Flags: HW
LayerCount: 2
Fore
SplineSet
534.5 503 m 0
 456.5 503 l 0
 461 609.5 l 0
 461 611.166666667 457.833333333 613.833333333 451.5 617.5 c 0
 445.166666667 621.166666667 437.166666667 624.916666667 427.5 628.75 c 0
 417.833333333 632.583333333 407.416666667 635.916666667 396.25 638.75 c 0
 385.083333333 641.583333333 374.833333333 643 365.5 643 c 0
 352.166666667 643 337.833333333 640 322.5 634 c 0
 307.166666667 628 292.916666667 619.333333333 279.75 608 c 0
 266.583333333 596.666666667 255.583333333 582.833333333 246.75 566.5 c 0
 237.916666667 550.166666667 233.5 531.666666667 233.5 511 c 0
 233.5 493 238.416666667 477.25 248.25 463.75 c 0
 258.083333333 450.25 270.25 438.416666667 284.75 428.25 c 0
 299.25 418.083333333 314.75 409.083333333 331.25 401.25 c 0
 347.75 393.416666667 362.666666667 386.333333333 376 380 c 0
 394.333333333 370.666666667 412.25 360.833333333 429.75 350.5 c 0
 447.25 340.166666667 462.75 328.5 476.25 315.5 c 0
 489.75 302.5 500.583333333 287.583333333 508.75 270.75 c 0
 516.916666667 253.916666667 521 234.333333333 521 212 c 0
 521 196.333333333 518.833333333 179.916666667 514.5 162.75 c 0
 510.166666667 145.583333333 503.166666667 128.5 493.5 111.5 c 0
 483.833333333 94.5 471.166666667 78.25 455.5 62.75 c 0
 439.833333333 47.25 420.583333333 33.6666666667 397.75 22 c 0
 374.916666667 10.3333333333 348.25 1 317.75 -6 c 0
 287.25 -13 252.333333333 -16.5 213 -16.5 c 0
 185 -16.5 158.75 -14.0833333333 134.25 -9.25 c 0
 109.75 -4.41666666667 87.9166666667 1.25 68.75 7.75 c 0
 49.5833333333 14.25 33.6666666667 20.6666666667 21 27 c 0
 8.33333333333 33.3333333333 -0.333333333333 38 -5 41 c 0
 30.5 209 l 0
 118 209 l 0
 106.5 87 l 0
 106.166666667 85 110.666666667 81.75 120 77.25 c 0
 129.333333333 72.75 140.5 68.25 153.5 63.75 c 0
 166.5 59.25 179.916666667 55.3333333333 193.75 52 c 0
 207.583333333 48.6666666667 218.833333333 47 227.5 47 c 0
 242.833333333 47 259 49.9166666667 276 55.75 c 0
 293 61.5833333333 308.583333333 70.4166666667 322.75 82.25 c 0
 336.916666667 94.0833333333 348.583333333 108.916666667 357.75 126.75 c 0
 366.916666667 144.583333333 371.5 165.5 371.5 189.5 c 0
 371.5 206.166666667 366.416666667 221 356.25 234 c 0
 346.083333333 247 333.75 258.583333333 319.25 268.75 c 0
 304.75 278.916666667 289.25 288 272.75 296 c 0
 256.25 304 241.833333333 311.166666667 229.5 317.5 c 0
 211.166666667 326.833333333 193.416666667 336.583333333 176.25 346.75 c 0
 159.083333333 356.916666667 143.833333333 368.25 130.5 380.75 c 0
 117.166666667 393.25 106.416666667 407.333333333 98.25 423 c 0
 90.0833333333 438.666666667 86 456.666666667 86 477 c 0
 86 510 92.5833333333 540.333333333 105.75 568 c 0
 118.916666667 595.666666667 137.916666667 619.5 162.75 639.5 c 0
 187.583333333 659.5 217.75 675.166666667 253.25 686.5 c 0
 288.75 697.833333333 329 703.5 374 703.5 c 0
 397 703.5 418.166666667 702.25 437.5 699.75 c 0
 456.833333333 697.25 474.583333333 694 490.75 690 c 0
 506.916666667 686 521.5 681.583333333 534.5 676.75 c 0
 547.5 671.916666667 559.166666667 667.166666667 569.5 662.5 c 0
 534.5 503 l 0
EndSplineSet
EndChar

StartChar: T
Encoding: 55 84 55
Width: 643
VWidth: 500
Flags: HW
LayerCount: 2
Fore
SplineSet
671.5 508 m 0
 592 508 l 0
 597 617.5 l 0
 597.333333333 621.833333333 594.916666667 625.166666667 589.75 627.5 c 0
 584.583333333 629.833333333 579.5 631 574.5 631 c 0
 463 631 l 0
 357.5 71.5 l 0
 356.5 65.5 357.916666667 61.6666666667 361.75 60 c 0
 365.583333333 58.3333333333 370.666666667 57.1666666667 377 56.5 c 0
 383 56.1666666667 389.333333333 55.6666666667 396 55 c 0
 401.666666667 54.3333333333 408 53.6666666667 415 53 c 0
 436 51 l 0
 436 0 l 0
 127 0 l 0
 127 51 l 0
 133.666666667 51.6666666667 140.25 52.1666666667 146.75 52.5 c 0
 153.25 52.8333333333 159.333333333 53.3333333333 165 54 c 0
 171.333333333 54.6666666667 177.5 55.1666666667 183.5 55.5 c 0
 190.5 56.1666666667 196.583333333 57.5 201.75 59.5 c 0
 206.916666667 61.5 210 65.8333333333 211 72.5 c 0
 316.5 631 l 0
 211 631 l 0
 208.666666667 631 206 630.666666667 203 630 c 0
 200 629.333333333 197.083333333 628.333333333 194.25 627 c 0
 191.416666667 625.666666667 188.916666667 624.166666667 186.75 622.5 c 0
 184.583333333 620.833333333 183.166666667 618.833333333 182.5 616.5 c 0
 143.5 508 l 0
 63.5 508 l 0
 98.5 687 l 0
 708.5 687 l 0
 671.5 508 l 0
EndSplineSet
EndChar

StartChar: U
Encoding: 56 85 56
Width: 767
VWidth: 500
Flags: HW
LayerCount: 2
Fore
SplineSet
742.5 631 m 0
 737.833333333 630.333333333 734.166666667 628.583333333 731.5 625.75 c 0
 728.833333333 622.916666667 727 619.166666667 726 614.5 c 0
 647 220 l 0
 640 184.333333333 628.916666667 152 613.75 123 c 0
 598.583333333 94 578.583333333 69.1666666667 553.75 48.5 c 0
 528.916666667 27.8333333333 498.833333333 11.8333333333 463.5 0.5 c 0
 428.166666667 -10.8333333333 387 -16.5 340 -16.5 c 0
 302 -16.5 267.833333333 -12.9166666667 237.5 -5.75 c 0
 207.166666667 1.41666666667 181.416666667 12.4166666667 160.25 27.25 c 0
 139.083333333 42.0833333333 122.75 61 111.25 84 c 0
 99.75 107 94 134.333333333 94 166 c 0
 94 175.666666667 95.0833333333 189.916666667 97.25 208.75 c 0
 99.4166666667 227.583333333 102.833333333 248.5 107.5 271.5 c 0
 179 615.5 l 0
 180 621.5 178.666666667 625.416666667 175 627.25 c 0
 171.333333333 629.083333333 165.833333333 630.333333333 158.5 631 c 0
 152.833333333 631.333333333 146.833333333 631.833333333 140.5 632.5 c 0
 134.833333333 633.166666667 128.583333333 633.75 121.75 634.25 c 0
 114.916666667 634.75 108.166666667 635.333333333 101.5 636 c 0
 101.5 687 l 0
 410.5 687 l 0
 410.5 636 l 0
 402.5 635.333333333 394.75 634.75 387.25 634.25 c 0
 379.75 633.75 373 633.166666667 367 632.5 c 0
 360 631.833333333 353.333333333 631.333333333 347 631 c 0
 341 630.333333333 336.166666667 628.916666667 332.5 626.75 c 0
 328.833333333 624.583333333 326.5 620.5 325.5 614.5 c 0
 255 271.5 l 0
 251 251.833333333 248.083333333 234.166666667 246.25 218.5 c 0
 244.416666667 202.833333333 243.5 190.333333333 243.5 181 c 0
 243.5 159.333333333 247 140.833333333 254 125.5 c 0
 261 110.166666667 270.25 97.6666666667 281.75 88 c 0
 293.25 78.3333333333 306.416666667 71.3333333333 321.25 67 c 0
 336.083333333 62.6666666667 351.166666667 60.5 366.5 60.5 c 0
 393.166666667 60.5 416.25 65.4166666667 435.75 75.25 c 0
 455.25 85.0833333333 471.833333333 98.6666666667 485.5 116 c 0
 499.166666667 133.333333333 510.5 154 519.5 178 c 0
 528.5 202 535.833333333 228 541.5 256 c 0
 613.5 615.5 l 0
 614.5 621.5 613.583333333 625.416666667 610.75 627.25 c 0
 607.916666667 629.083333333 602.333333333 630.333333333 594 631 c 0
 587.666666667 631.333333333 581.333333333 631.833333333 575 632.5 c 0
 569.333333333 633.166666667 563 633.75 556 634.25 c 0
 549 634.75 542.166666667 635.333333333 535.5 636 c 0
 535.5 687 l 0
 810 687 l 0
 810 636 l 0
 742.5 631 l 0
EndSplineSet
EndChar

StartChar: V
Encoding: 57 86 57
Width: 701
VWidth: 500
Flags: HW
LayerCount: 2
Fore
SplineSet
720 630 m 0
 366.5 -16.5 l 0
 249 -16.5 l 0
 148.5 617.5 l 0
 147.5 624.166666667 144.75 628.416666667 140.25 630.25 c 0
 135.75 632.083333333 130.666666667 633 125 633 c 0
 120.666666667 633 116.166666667 633.166666667 111.5 633.5 c 0
 107.5 633.833333333 103.166666667 634.083333333 98.5 634.25 c 0
 93.8333333333 634.416666667 89.3333333333 634.666666667 85 635 c 0
 85 687 l 0
 360.5 687 l 0
 360.5 635 l 0
 354.833333333 634.666666667 349.416666667 634.416666667 344.25 634.25 c 0
 339.083333333 634.083333333 334.166666667 634 329.5 634 c 0
 314.5 634 l 0
 308.833333333 634 304.083333333 633 300.25 631 c 0
 296.416666667 629 295 624.833333333 296 618.5 c 0
 362.5 191.5 l 0
 590 618.5 l 0
 591.333333333 621.833333333 591.75 624.5 591.25 626.5 c 0
 590.75 628.5 589.666666667 630 588 631 c 0
 586.333333333 632 584.333333333 632.666666667 582 633 c 0
 579.666666667 633.333333333 577.5 633.666666667 575.5 634 c 0
 559 634 l 0
 554 634 548.416666667 634.083333333 542.25 634.25 c 0
 536.083333333 634.416666667 530.166666667 634.666666667 524.5 635 c 0
 524.5 687 l 0
 776 687 l 0
 776 636 l 0
 720 630 l 0
EndSplineSet
EndChar

StartChar: W
Encoding: 58 87 58
Width: 992
VWidth: 500
Flags: HW
LayerCount: 2
Fore
SplineSet
1004.5 630 m 0
 696.5 -16.5 l 0
 592 -16.5 l 0
 539.5 453.5 l 0
 316.5 -16.5 l 0
 205 -16.5 l 0
 152.5 617.5 l 0
 151.833333333 624.166666667 149.75 628.25 146.25 629.75 c 0
 142.75 631.25 136.666666667 632.333333333 128 633 c 0
 123.666666667 633 119 633.166666667 114 633.5 c 0
 109.666666667 633.833333333 104.916666667 634.083333333 99.75 634.25 c 0
 94.5833333333 634.416666667 89.6666666667 634.666666667 85 635 c 0
 85 687 l 0
 364.5 687 l 0
 364.5 635 l 0
 358.5 634.666666667 352.583333333 634.416666667 346.75 634.25 c 0
 340.916666667 634.083333333 335.666666667 633.833333333 331 633.5 c 0
 325.333333333 633.166666667 320.166666667 633 315.5 633 c 0
 311.166666667 633 307.166666667 632.166666667 303.5 630.5 c 0
 299.833333333 628.833333333 298.333333333 624.833333333 299 618.5 c 0
 328.5 257 l 0
 534.5 687 l 0
 657.5 687 l 0
 702.5 248 l 0
 875.5 618.5 l 0
 876.833333333 621.833333333 877.333333333 624.5 877 626.5 c 0
 876.666666667 628.5 875.583333333 630 873.75 631 c 0
 871.916666667 632 869.5 632.666666667 866.5 633 c 0
 863.5 633.333333333 860 633.666666667 856 634 c 0
 840.5 634 l 0
 835.833333333 634 830.833333333 634.083333333 825.5 634.25 c 0
 820.166666667 634.416666667 815 634.666666667 810 635 c 0
 810 687 l 0
 1067 687 l 0
 1067 636 l 0
 1004.5 630 l 0
EndSplineSet
EndChar

StartChar: X
Encoding: 59 88 59
Width: 691
VWidth: 500
Flags: HW
LayerCount: 2
Fore
SplineSet
674 631 m 0
 666.666666667 630.333333333 661.25 628.583333333 657.75 625.75 c 0
 654.25 622.916666667 651.666666667 620.5 650 618.5 c 0
 426 367.5 l 0
 560 67.5 l 0
 562.666666667 62.5 565.416666667 59.4166666667 568.25 58.25 c 0
 571.083333333 57.0833333333 574.5 56.1666666667 578.5 55.5 c 0
 584.166666667 55.1666666667 590 54.8333333333 596 54.5 c 0
 601.333333333 54.1666666667 607.416666667 53.6666666667 614.25 53 c 0
 621.083333333 52.3333333333 628.333333333 51.6666666667 636 51 c 0
 636 0 l 0
 328.5 0 l 0
 328.5 51 l 0
 335.166666667 51.6666666667 342 52.1666666667 349 52.5 c 0
 356 52.8333333333 362.333333333 53.3333333333 368 54 c 0
 374.333333333 54.6666666667 380.666666667 55.1666666667 387 55.5 c 0
 391 55.8333333333 394.583333333 56.1666666667 397.75 56.5 c 0
 400.916666667 56.8333333333 403.583333333 57.5 405.75 58.5 c 0
 407.916666667 59.5 409.25 60.9166666667 409.75 62.75 c 0
 410.25 64.5833333333 409.833333333 67.1666666667 408.5 70.5 c 0
 329.5 251 l 0
 165 70.5 l 0
 162.333333333 67.8333333333 161.416666667 64.8333333333 162.25 61.5 c 0
 163.083333333 58.1666666667 166.333333333 56.1666666667 172 55.5 c 0
 236.5 51 l 0
 236.5 0 l 0
 -45 0 l 0
 -45 51 l 0
 -40.3333333333 51.6666666667 -35.4166666667 52.1666666667 -30.25 52.5 c 0
 -25.0833333333 52.8333333333 -20.5 53.3333333333 -16.5 54 c 0
 -11.8333333333 54.6666666667 -7.33333333333 55.1666666667 -3 55.5 c 0
 1.33333333333 55.8333333333 5 56.0833333333 8 56.25 c 0
 11 56.4166666667 13.6666666667 56.9166666667 16 57.75 c 0
 18.3333333333 58.5833333333 20.5 59.75 22.5 61.25 c 0
 24.5 62.75 26.8333333333 64.8333333333 29.5 67.5 c 0
 283.5 348 l 0
 161 619.5 l 0
 158.333333333 625.166666667 155.416666667 628.5 152.25 629.5 c 0
 149.083333333 630.5 143.666666667 631.333333333 136 632 c 0
 130.666666667 632 125.166666667 632.333333333 119.5 633 c 0
 114.833333333 633.333333333 109.416666667 633.75 103.25 634.25 c 0
 97.0833333333 634.75 91 635.333333333 85 636 c 0
 85 687 l 0
 394 687 l 0
 394 636 l 0
 385.666666667 635.333333333 377.583333333 634.75 369.75 634.25 c 0
 361.916666667 633.75 354.666666667 633.333333333 348 633 c 0
 340.333333333 632.666666667 333.166666667 632.333333333 326.5 632 c 0
 321.833333333 632 317.666666667 630.916666667 314 628.75 c 0
 310.333333333 626.583333333 309.833333333 622.5 312.5 616.5 c 0
 382 460 l 0
 522 616.5 l 0
 524.666666667 619.166666667 526.333333333 622.083333333 527 625.25 c 0
 527.666666667 628.416666667 524.666666667 630.333333333 518 631 c 0
 463 636 l 0
 463 687 l 0
 737.5 687 l 0
 737.5 636 l 0
 674 631 l 0
EndSplineSet
EndChar

StartChar: Y
Encoding: 60 89 60
Width: 697
VWidth: 500
Flags: HW
LayerCount: 2
Fore
SplineSet
705.5 631 m 0
 701.833333333 630.333333333 698.25 628.583333333 694.75 625.75 c 0
 691.25 622.916666667 688.666666667 620.5 687 618.5 c 0
 427 287.5 l 0
 384 71.5 l 0
 382.333333333 65.5 383.166666667 61.6666666667 386.5 60 c 0
 389.833333333 58.3333333333 395.166666667 57.1666666667 402.5 56.5 c 0
 408.5 56.1666666667 414.666666667 55.6666666667 421 55 c 0
 426.666666667 54.3333333333 432.916666667 53.6666666667 439.75 53 c 0
 446.583333333 52.3333333333 453.666666667 51.6666666667 461 51 c 0
 461 0 l 0
 151.5 0 l 0
 151.5 51 l 0
 158.166666667 51.6666666667 165 52.3333333333 172 53 c 0
 179 53.6666666667 185.333333333 54.3333333333 191 55 c 0
 197.333333333 55.6666666667 203.666666667 56.1666666667 210 56.5 c 0
 216.666666667 57.1666666667 222.166666667 58.3333333333 226.5 60 c 0
 230.833333333 61.6666666667 233.833333333 65.8333333333 235.5 72.5 c 0
 277.5 279.5 l 0
 163 619.5 l 0
 161.333333333 625.166666667 158.166666667 628.5 153.5 629.5 c 0
 148.833333333 630.5 143.333333333 631.333333333 137 632 c 0
 132 632 126.5 632.333333333 120.5 633 c 0
 115.5 633.333333333 109.916666667 633.75 103.75 634.25 c 0
 97.5833333333 634.75 91.6666666667 635.333333333 86 636 c 0
 86 687 l 0
 394 687 l 0
 394 636 l 0
 386.333333333 635.333333333 378.75 634.75 371.25 634.25 c 0
 363.75 633.75 357 633.333333333 351 633 c 0
 344 632.333333333 337.333333333 632 331 632 c 0
 325.333333333 632 320.5 630.916666667 316.5 628.75 c 0
 312.5 626.583333333 311.833333333 622.166666667 314.5 615.5 c 0
 385 393 l 0
 554 616.5 l 0
 556 619.166666667 556.333333333 622.25 555 625.75 c 0
 553.666666667 629.25 549.166666667 631.333333333 541.5 632 c 0
 481.5 636 l 0
 481.5 687 l 0
 771 687 l 0
 771 636 l 0
 705.5 631 l 0
EndSplineSet
EndChar

StartChar: Z
Encoding: 61 90 61
Width: 618
VWidth: 500
Flags: HW
LayerCount: 2
Fore
SplineSet
643 636 m 0
 166 63.5 l 0
 418 63.5 l 0
 423 63.5 428.583333333 64.9166666667 434.75 67.75 c 0
 440.916666667 70.5833333333 444.833333333 74.3333333333 446.5 79 c 0
 483.5 212 l 0
 569.5 212 l 0
 528.5 0 l 0
 -21.5 0 l 0
 -11.5 50 l 0
 464 623.5 l 0
 251 623.5 l 0
 245.666666667 623.5 239.916666667 622.416666667 233.75 620.25 c 0
 227.583333333 618.083333333 223.666666667 614.5 222 609.5 c 0
 189.5 500.5 l 0
 103.5 500.5 l 0
 140.5 687 l 0
 653.5 687 l 0
 643 636 l 0
EndSplineSet
EndChar

StartChar: bracketleft
Encoding: 62 91 62
Width: 459
VWidth: 500
Flags: HW
LayerCount: 2
Fore
SplineSet
497.5 663.5 m 0
 341 663.5 l 0
 193.5 -76 l 0
 351 -76 l 0
 339 -135 l 0
 55.5 -135 l 0
 225.5 725 l 0
 510 725 l 0
 497.5 663.5 l 0
EndSplineSet
EndChar

StartChar: backslash
Encoding: 63 92 63
Width: 506
VWidth: 500
Flags: HW
LayerCount: 2
Fore
SplineSet
426 -95 m 0
 0 687 l 0
 80 687 l 0
 506 -95 l 0
 426 -95 l 0
EndSplineSet
EndChar

StartChar: bracketright
Encoding: 64 93 64
Width: 459
VWidth: 500
Flags: HW
LayerCount: 2
Fore
SplineSet
242.5 -135 m 0
 -42 -135 l 0
 -29.5 -76 l 0
 128 -76 l 0
 274.5 663.5 l 0
 116.5 663.5 l 0
 129 725 l 0
 412.5 725 l 0
 242.5 -135 l 0
EndSplineSet
EndChar

StartChar: asciicircum
Encoding: 65 94 65
Width: 348
VWidth: 500
Flags: HW
LayerCount: 2
Fore
SplineSet
386 282 m 0
 351.75 330.75 l 0
 297.5 282 l 0
 255 282 l 0
 329.25 369.75 l 0
 389.5 369.75 l 0
 429 282 l 0
 386 282 l 0
EndSplineSet
EndChar

StartChar: underscore
Encoding: 66 95 66
Width: 350
VWidth: 500
Flags: HW
LayerCount: 2
Fore
SplineSet
268.5 -170 m 0
 -81.5 -170 l 0
 -65 -87.5 l 0
 285 -87.5 l 0
 268.5 -170 l 0
EndSplineSet
EndChar

StartChar: grave
Encoding: 67 96 67
Width: 434
VWidth: 500
Flags: HW
LayerCount: 2
Fore
SplineSet
367.75 282 m 0
 284.75 327.25 l 0
 282.916666667 328.25 281.25 329.625 279.75 331.375 c 0
 278.25 333.125 276.916666667 335 275.75 337 c 0
 274.583333333 339 273.666666667 341.041666667 273 343.125 c 0
 272.333333333 345.208333333 272 347.083333333 272 348.75 c 0
 272 351.75 272.5 354.875 273.5 358.125 c 0
 274.5 361.375 276.125 364.291666667 278.375 366.875 c 0
 280.625 369.458333333 283.625 371.583333333 287.375 373.25 c 0
 291.125 374.916666667 295.75 375.75 301.25 375.75 c 0
 304.75 375.75 307.833333333 375.5 310.5 375 c 0
 313.166666667 374.5 315.708333333 373.625 318.125 372.375 c 0
 320.541666667 371.125 322.958333333 369.458333333 325.375 367.375 c 0
 327.791666667 365.291666667 330.5 362.666666667 333.5 359.5 c 0
 403.5 282 l 0
 367.75 282 l 0
EndSplineSet
EndChar

StartChar: a
Encoding: 68 97 68
Width: 581
VWidth: 500
Flags: HW
LayerCount: 2
Fore
SplineSet
578.5 30.5 m 0
 566.833333333 25.8333333333 554.583333333 21 541.75 16 c 0
 528.916666667 11 515.833333333 6.41666666667 502.5 2.25 c 0
 489.166666667 -1.91666666667 475.833333333 -5.41666666667 462.5 -8.25 c 0
 449.166666667 -11.0833333333 436 -12.5 423 -12.5 c 0
 401.333333333 -12.5 383.25 -8.5 368.75 -0.5 c 0
 354.25 7.5 343.666666667 19 337 34 c 0
 328 28 318.333333333 22.1666666667 308 16.5 c 0
 297.666666667 10.8333333333 286.833333333 5.91666666667 275.5 1.75 c 0
 264.166666667 -2.41666666667 252.5 -5.83333333333 240.5 -8.5 c 0
 228.5 -11.1666666667 216.333333333 -12.5 204 -12.5 c 0
 183 -12.5 164.166666667 -9.66666666667 147.5 -4 c 0
 130.833333333 1.66666666667 116.166666667 9.33333333333 103.5 19 c 0
 90.8333333333 28.6666666667 80.0833333333 39.8333333333 71.25 52.5 c 0
 62.4166666667 65.1666666667 55.1666666667 78.4166666667 49.5 92.25 c 0
 43.8333333333 106.083333333 39.6666666667 120.166666667 37 134.5 c 0
 34.3333333333 148.833333333 33 162.333333333 33 175 c 0
 33 200.333333333 35.75 226.25 41.25 252.75 c 0
 46.75 279.25 55.25 305 66.75 330 c 0
 78.25 355 92.6666666667 378.583333333 110 400.75 c 0
 127.333333333 422.916666667 147.833333333 442.25 171.5 458.75 c 0
 195.166666667 475.25 222.083333333 488.25 252.25 497.75 c 0
 282.416666667 507.25 315.833333333 512 352.5 512 c 0
 367.5 512 382.416666667 510 397.25 506 c 0
 412.083333333 502 425.333333333 496.833333333 437 490.5 c 0
 444.5 499.5 l 0
 554 499.5 l 0
 552.333333333 494.5 550.166666667 488.833333333 547.5 482.5 c 0
 544.833333333 476.166666667 542.166666667 470 539.5 464 c 0
 536.833333333 458 534.416666667 452.583333333 532.25 447.75 c 0
 530.083333333 442.916666667 528.833333333 439.333333333 528.5 437 c 0
 462 99.5 l 0
 462 91.8333333333 462.25 85.3333333333 462.75 80 c 0
 463.25 74.6666666667 464.5 70.4166666667 466.5 67.25 c 0
 468.5 64.0833333333 471.333333333 61.8333333333 475 60.5 c 0
 478.666666667 59.1666666667 483.5 58.5 489.5 58.5 c 0
 490.833333333 58.5 495.75 59.5 504.25 61.5 c 0
 512.75 63.5 522.083333333 65.8333333333 532.25 68.5 c 0
 542.416666667 71.1666666667 552 73.5833333333 561 75.75 c 0
 570 77.9166666667 575.833333333 79.3333333333 578.5 80 c 0
 578.5 30.5 l 0
384 403.5 m 0
 384.333333333 404.833333333 384.25 408.166666667 383.75 413.5 c 0
 383.25 418.833333333 382.25 424.416666667 380.75 430.25 c 0
 379.25 436.083333333 377.416666667 441.25 375.25 445.75 c 0
 373.083333333 450.25 370.5 452.5 367.5 452.5 c 0
 345.5 452.5 325.583333333 448.5 307.75 440.5 c 0
 289.916666667 432.5 273.916666667 421.666666667 259.75 408 c 0
 245.583333333 394.333333333 233.333333333 378.5 223 360.5 c 0
 212.666666667 342.5 204.083333333 323.416666667 197.25 303.25 c 0
 190.416666667 283.083333333 185.333333333 262.5 182 241.5 c 0
 178.666666667 220.5 177 200.333333333 177 181 c 0
 177 167.333333333 177.25 153.666666667 177.75 140 c 0
 178.25 126.333333333 180.25 113.833333333 183.75 102.5 c 0
 187.25 91.1666666667 193.083333333 82 201.25 75 c 0
 209.416666667 68 221.166666667 64.5 236.5 64.5 c 0
 247.5 64.5 257.916666667 67 267.75 72 c 0
 277.583333333 77 286.583333333 82.75 294.75 89.25 c 0
 302.916666667 95.75 310.083333333 102.333333333 316.25 109 c 0
 322.416666667 115.666666667 327.333333333 120.666666667 331 124 c 0
 333.333333333 137.666666667 335.25 148.25 336.75 155.75 c 0
 338.25 163.25 339.583333333 170.416666667 340.75 177.25 c 0
 341.916666667 184.083333333 343.333333333 191.833333333 345 200.5 c 0
 346.666666667 209.166666667 349.083333333 221.583333333 352.25 237.75 c 0
 355.416666667 253.916666667 359.5 275.083333333 364.5 301.25 c 0
 369.5 327.416666667 376 361.5 384 403.5 c 0
EndSplineSet
EndChar

StartChar: b
Encoding: 69 98 69
Width: 545
VWidth: 500
Flags: HW
LayerCount: 2
Fore
SplineSet
513 318.5 m 0
 513 298.166666667 510.833333333 275.833333333 506.5 251.5 c 0
 502.166666667 227.166666667 495 202.75 485 178.25 c 0
 475 153.75 462.083333333 130.083333333 446.25 107.25 c 0
 430.416666667 84.4166666667 411.083333333 64.0833333333 388.25 46.25 c 0
 365.416666667 28.4166666667 338.75 14.1666666667 308.25 3.5 c 0
 277.75 -7.16666666667 243 -12.5 204 -12.5 c 0
 166.666666667 -12.5 132.583333333 -7.91666666667 101.75 1.25 c 0
 70.9166666667 10.4166666667 43.1666666667 23 18.5 39 c 0
 138 677 l 0
 48 685 l 0
 48 722 l 0
 221 754.5 l 0
 291 754.5 l 0
 237.5 479 l 0
 256.166666667 488.666666667 275.25 496.583333333 294.75 502.75 c 0
 314.25 508.916666667 333 512 351 512 c 0
 378.333333333 512 402.166666667 505.916666667 422.5 493.75 c 0
 442.833333333 481.583333333 459.75 466.166666667 473.25 447.5 c 0
 486.75 428.833333333 496.75 408 503.25 385 c 0
 509.75 362 513 339.833333333 513 318.5 c 0
370.5 314.5 m 0
 370.5 335.833333333 368.833333333 354.083333333 365.5 369.25 c 0
 362.166666667 384.416666667 357.916666667 396.833333333 352.75 406.5 c 0
 347.583333333 416.166666667 341.916666667 423.166666667 335.75 427.5 c 0
 329.583333333 431.833333333 323.5 434 317.5 434 c 0
 303.166666667 434 287.25 429.5 269.75 420.5 c 0
 252.25 411.5 235.666666667 400.333333333 220 387 c 0
 163 81 l 0
 168.333333333 72.3333333333 176.083333333 64.1666666667 186.25 56.5 c 0
 196.416666667 48.8333333333 209.5 45 225.5 45 c 0
 236.833333333 45 248.25 48.75 259.75 56.25 c 0
 271.25 63.75 282.333333333 73.9166666667 293 86.75 c 0
 303.666666667 99.5833333333 313.75 114.666666667 323.25 132 c 0
 332.75 149.333333333 341 168 348 188 c 0
 355 208 360.5 228.75 364.5 250.25 c 0
 368.5 271.75 370.5 293.166666667 370.5 314.5 c 0
EndSplineSet
EndChar

StartChar: c
Encoding: 70 99 70
Width: 492
VWidth: 500
Flags: HW
LayerCount: 2
Fore
SplineSet
461 436 m 0
 461 430 459.5 422.5 456.5 413.5 c 0
 453.5 404.5 448.25 395.833333333 440.75 387.5 c 0
 433.25 379.166666667 423.166666667 372.083333333 410.5 366.25 c 0
 397.833333333 360.416666667 381.833333333 357.5 362.5 357.5 c 0
 306 437 l 0
 286.666666667 432.666666667 270 424.666666667 256 413 c 0
 242 401.333333333 230.166666667 387.666666667 220.5 372 c 0
 210.833333333 356.333333333 202.916666667 339.5 196.75 321.5 c 0
 190.583333333 303.5 185.833333333 286.166666667 182.5 269.5 c 0
 179.166666667 252.833333333 176.916666667 237.75 175.75 224.25 c 0
 174.583333333 210.75 174 200.5 174 193.5 c 0
 174 177.833333333 174.666666667 162.25 176 146.75 c 0
 177.333333333 131.25 180.416666667 117.333333333 185.25 105 c 0
 190.083333333 92.6666666667 197.25 82.6666666667 206.75 75 c 0
 216.25 67.3333333333 229.333333333 63.5 246 63.5 c 0
 258.666666667 63.5 271.5 65.3333333333 284.5 69 c 0
 297.5 72.6666666667 311.583333333 79.5 326.75 89.5 c 0
 341.916666667 99.5 358.583333333 113.25 376.75 130.75 c 0
 394.916666667 148.25 415.5 170.833333333 438.5 198.5 c 0
 438.5 96.5 l 0
 424.5 79.8333333333 409.5 64.8333333333 393.5 51.5 c 0
 377.5 38.1666666667 360.25 26.75 341.75 17.25 c 0
 323.25 7.75 303.416666667 0.416666666667 282.25 -4.75 c 0
 261.083333333 -9.91666666667 238.333333333 -12.5 214 -12.5 c 0
 182.666666667 -12.5 155.666666667 -7.83333333333 133 1.5 c 0
 110.333333333 10.8333333333 91.6666666667 24 77 41 c 0
 62.3333333333 58 51.5 78.5 44.5 102.5 c 0
 37.5 126.5 34 153.166666667 34 182.5 c 0
 34 226.833333333 40.9166666667 268.916666667 54.75 308.75 c 0
 68.5833333333 348.583333333 88.75 383.583333333 115.25 413.75 c 0
 141.75 443.916666667 174.083333333 467.833333333 212.25 485.5 c 0
 250.416666667 503.166666667 294 512 343 512 c 0
 363.333333333 512 380.916666667 509.583333333 395.75 504.75 c 0
 410.583333333 499.916666667 422.833333333 493.75 432.5 486.25 c 0
 442.166666667 478.75 449.333333333 470.583333333 454 461.75 c 0
 458.666666667 452.916666667 461 444.333333333 461 436 c 0
EndSplineSet
EndChar

StartChar: d
Encoding: 71 100 71
Width: 579
VWidth: 500
Flags: HW
LayerCount: 2
Fore
SplineSet
466 92 m 0
 464.333333333 83.6666666667 463.916666667 76.75 464.75 71.25 c 0
 465.583333333 65.75 466.916666667 61.4166666667 468.75 58.25 c 0
 470.583333333 55.0833333333 472.833333333 52.9166666667 475.5 51.75 c 0
 478.166666667 50.5833333333 480.5 50 482.5 50 c 0
 489.5 50 497.333333333 51.0833333333 506 53.25 c 0
 514.666666667 55.4166666667 523.416666667 58.0833333333 532.25 61.25 c 0
 541.083333333 64.4166666667 549.416666667 67.75 557.25 71.25 c 0
 565.083333333 74.75 571.833333333 78 577.5 81 c 0
 577.5 30.5 l 0
 568.833333333 25.5 558.333333333 20.4166666667 546 15.25 c 0
 533.666666667 10.0833333333 520.5 5.41666666667 506.5 1.25 c 0
 492.5 -2.91666666667 478.25 -6.25 463.75 -8.75 c 0
 449.25 -11.25 435.333333333 -12.5 422 -12.5 c 0
 396 -12.5 375.5 -8.16666666667 360.5 0.5 c 0
 345.5 9.16666666667 335.166666667 21.3333333333 329.5 37 c 0
 320.5 30 310.75 23.5 300.25 17.5 c 0
 289.75 11.5 278.916666667 6.25 267.75 1.75 c 0
 256.583333333 -2.75 245.333333333 -6.25 234 -8.75 c 0
 222.666666667 -11.25 211.5 -12.5 200.5 -12.5 c 0
 170.833333333 -12.5 145.416666667 -7 124.25 4 c 0
 103.083333333 15 85.75 29.4166666667 72.25 47.25 c 0
 58.75 65.0833333333 48.8333333333 85 42.5 107 c 0
 36.1666666667 129 33 151 33 173 c 0
 33 199 35.8333333333 225.5 41.5 252.5 c 0
 47.1666666667 279.5 55.75 305.5 67.25 330.5 c 0
 78.75 355.5 93.0833333333 379.083333333 110.25 401.25 c 0
 127.416666667 423.416666667 147.5 442.666666667 170.5 459 c 0
 193.5 475.333333333 219.416666667 488.25 248.25 497.75 c 0
 277.083333333 507.25 308.666666667 512 343 512 c 0
 355.666666667 512 367.083333333 510.5 377.25 507.5 c 0
 387.416666667 504.5 395.833333333 501.833333333 402.5 499.5 c 0
 433 677 l 0
 341 685 l 0
 341 722 l 0
 514 754.5 l 0
 583.5 754.5 l 0
 466 92 l 0
385 403.5 m 0
 385.333333333 404.833333333 384.333333333 408.166666667 382 413.5 c 0
 379.666666667 418.833333333 376.5 424.5 372.5 430.5 c 0
 368.5 436.5 363.75 441.833333333 358.25 446.5 c 0
 352.75 451.166666667 347 453.5 341 453.5 c 0
 323 453.5 304.25 446.833333333 284.75 433.5 c 0
 265.25 420.166666667 247.25 401.416666667 230.75 377.25 c 0
 214.25 353.083333333 200.666666667 324.166666667 190 290.5 c 0
 179.333333333 256.833333333 174 219.666666667 174 179 c 0
 174 137.666666667 179 107.583333333 189 88.75 c 0
 199 69.9166666667 213.5 60.5 232.5 60.5 c 0
 241.166666667 60.5 249.916666667 62.6666666667 258.75 67 c 0
 267.583333333 71.3333333333 276.416666667 77.1666666667 285.25 84.5 c 0
 294.083333333 91.8333333333 302.916666667 100.083333333 311.75 109.25 c 0
 320.583333333 118.416666667 329.333333333 128 338 138 c 0
 385 403.5 l 0
EndSplineSet
EndChar

StartChar: e
Encoding: 72 101 72
Width: 491
VWidth: 500
Flags: HW
LayerCount: 2
Fore
SplineSet
474 404.5 m 0
 474 386.5 469.916666667 369.833333333 461.75 354.5 c 0
 453.583333333 339.166666667 442.333333333 325.166666667 428 312.5 c 0
 413.666666667 299.833333333 396.916666667 288.416666667 377.75 278.25 c 0
 358.583333333 268.083333333 338.083333333 259.333333333 316.25 252 c 0
 294.416666667 244.666666667 271.75 238.666666667 248.25 234 c 0
 224.75 229.333333333 201.666666667 226.166666667 179 224.5 c 0
 178.333333333 218.166666667 177.666666667 211 177 203 c 0
 176.333333333 195 176 188.166666667 176 182.5 c 0
 176 164.833333333 177.333333333 148.5 180 133.5 c 0
 182.666666667 118.5 187 105.5 193 94.5 c 0
 199 83.5 206.916666667 74.9166666667 216.75 68.75 c 0
 226.583333333 62.5833333333 238.666666667 59.5 253 59.5 c 0
 264 59.5 275.166666667 61.6666666667 286.5 66 c 0
 297.833333333 70.3333333333 311 77.5833333333 326 87.75 c 0
 341 97.9166666667 358.5 111.333333333 378.5 128 c 0
 398.5 144.666666667 422.5 165.166666667 450.5 189.5 c 0
 450.5 92 l 0
 440.5 82.3333333333 427.5 71.4166666667 411.5 59.25 c 0
 395.5 47.0833333333 377.333333333 35.6666666667 357 25 c 0
 336.666666667 14.3333333333 314.833333333 5.41666666667 291.5 -1.75 c 0
 268.166666667 -8.91666666667 244 -12.5 219 -12.5 c 0
 196.666666667 -12.5 174.5 -9.66666666667 152.5 -4 c 0
 130.5 1.66666666667 110.75 11.6666666667 93.25 26 c 0
 75.75 40.3333333333 61.5 59.75 50.5 84.25 c 0
 39.5 108.75 34 140 34 178 c 0
 34 204 37.25 230.333333333 43.75 257 c 0
 50.25 283.666666667 59.5 309.333333333 71.5 334 c 0
 83.5 358.666666667 98.1666666667 381.833333333 115.5 403.5 c 0
 132.833333333 425.166666667 152.416666667 444 174.25 460 c 0
 196.083333333 476 220 488.666666667 246 498 c 0
 272 507.333333333 299.5 512 328.5 512 c 0
 353.5 512 375.166666667 507.833333333 393.5 499.5 c 0
 411.833333333 491.166666667 427 481.25 439 469.75 c 0
 451 458.25 459.833333333 446.416666667 465.5 434.25 c 0
 471.166666667 422.083333333 474 412.166666667 474 404.5 c 0
341 405.5 m 0
 341 411.5 340.583333333 417.416666667 339.75 423.25 c 0
 338.916666667 429.083333333 337.25 434.333333333 334.75 439 c 0
 332.25 443.666666667 328.583333333 447.416666667 323.75 450.25 c 0
 318.916666667 453.083333333 312.666666667 454.5 305 454.5 c 0
 289 454.5 274.75 448.833333333 262.25 437.5 c 0
 249.75 426.166666667 238.666666667 411.75 229 394.25 c 0
 219.333333333 376.75 211 357.583333333 204 336.75 c 0
 197 315.916666667 191.166666667 296.166666667 186.5 277.5 c 0
 204.166666667 281.5 222.166666667 287.5 240.5 295.5 c 0
 258.833333333 303.5 275.416666667 313.083333333 290.25 324.25 c 0
 305.083333333 335.416666667 317.25 347.833333333 326.75 361.5 c 0
 336.25 375.166666667 341 389.833333333 341 405.5 c 0
EndSplineSet
EndChar

StartChar: f
Encoding: 73 102 73
Width: 370
VWidth: 500
Flags: HW
LayerCount: 2
Fore
SplineSet
493.5 686 m 0
 493.5 678.333333333 492.333333333 670.75 490 663.25 c 0
 487.666666667 655.75 483.25 648.833333333 476.75 642.5 c 0
 470.25 636.166666667 461.25 630.5 449.75 625.5 c 0
 438.25 620.5 423.5 616.833333333 405.5 614.5 c 0
 342 675 l 0
 328 662.666666667 316.75 647.333333333 308.25 629 c 0
 299.75 610.666666667 293 591.75 288 572.25 c 0
 283 552.75 279.333333333 533.916666667 277 515.75 c 0
 274.666666667 497.583333333 272.5 482.333333333 270.5 470 c 0
 395.5 470 l 0
 395.5 409.5 l 0
 260 409.5 l 0
 258.666666667 399.833333333 256.666666667 385.416666667 254 366.25 c 0
 251.333333333 347.083333333 248.25 325.25 244.75 300.75 c 0
 241.25 276.25 237.416666667 250.333333333 233.25 223 c 0
 229.083333333 195.666666667 225 169.333333333 221 144 c 0
 217 118.666666667 213.166666667 95.4166666667 209.5 74.25 c 0
 205.833333333 53.0833333333 202.5 36.5 199.5 24.5 c 0
 195.166666667 6.5 189 -12.4166666667 181 -32.25 c 0
 173 -52.0833333333 163.333333333 -71.5833333333 152 -90.75 c 0
 140.666666667 -109.916666667 127.916666667 -128.166666667 113.75 -145.5 c 0
 99.5833333333 -162.833333333 84.0833333333 -178.083333333 67.25 -191.25 c 0
 50.4166666667 -204.416666667 32.3333333333 -214.916666667 13 -222.75 c 0
 -6.33333333333 -230.583333333 -26.6666666667 -234.5 -48 -234.5 c 0
 -62.6666666667 -234.5 -75.3333333333 -231.916666667 -86 -226.75 c 0
 -96.6666666667 -221.583333333 -105.5 -215.333333333 -112.5 -208 c 0
 -119.5 -200.666666667 -124.666666667 -192.833333333 -128 -184.5 c 0
 -131.333333333 -176.166666667 -133 -169 -133 -163 c 0
 -133 -149.333333333 -128.666666667 -135.666666667 -120 -122 c 0
 -111.333333333 -108.333333333 -100 -96.6666666667 -86 -87 c 0
 6 -145.5 l 0
 14 -134.166666667 21.3333333333 -120.916666667 28 -105.75 c 0
 34.6666666667 -90.5833333333 40.75 -73.9166666667 46.25 -55.75 c 0
 51.75 -37.5833333333 56.9166666667 -18.25 61.75 2.25 c 0
 66.5833333333 22.75 71 43.8333333333 75 65.5 c 0
 83.6666666667 112.833333333 91.4166666667 165.166666667 98.25 222.5 c 0
 105.083333333 279.833333333 113.333333333 341.166666667 123 406.5 c 0
 45 398.5 l 0
 47 446.5 l 0
 135 477 l 0
 138.333333333 494 142.833333333 512.583333333 148.5 532.75 c 0
 154.166666667 552.916666667 161.5 573.333333333 170.5 594 c 0
 179.5 614.666666667 190.166666667 634.583333333 202.5 653.75 c 0
 214.833333333 672.916666667 229.5 690 246.5 705 c 0
 263.5 720 282.916666667 732 304.75 741 c 0
 326.583333333 750 351.333333333 754.5 379 754.5 c 0
 398 754.5 414.583333333 752.166666667 428.75 747.5 c 0
 442.916666667 742.833333333 454.833333333 737.083333333 464.5 730.25 c 0
 474.166666667 723.416666667 481.416666667 716 486.25 708 c 0
 491.083333333 700 493.5 692.666666667 493.5 686 c 0
EndSplineSet
EndChar

StartChar: g
Encoding: 74 103 74
Width: 497
VWidth: 500
Flags: HW
LayerCount: 2
Fore
SplineSet
451.5 427 m 0
 454.5 419.333333333 457.166666667 409.916666667 459.5 398.75 c 0
 461.833333333 387.583333333 463 375.833333333 463 363.5 c 0
 463 338.166666667 458.083333333 313.5 448.25 289.5 c 0
 438.416666667 265.5 423.916666667 244.166666667 404.75 225.5 c 0
 385.583333333 206.833333333 361.833333333 191.833333333 333.5 180.5 c 0
 305.166666667 169.166666667 272.5 163.333333333 235.5 163 c 0
 231.833333333 153.333333333 229.166666667 143.583333333 227.5 133.75 c 0
 225.833333333 123.916666667 225.5 116.166666667 226.5 110.5 c 0
 362.5 49 l 0
 378.833333333 42 393.666666667 34.9166666667 407 27.75 c 0
 420.333333333 20.5833333333 431.75 12.6666666667 441.25 4 c 0
 450.75 -4.66666666667 458.083333333 -14.5 463.25 -25.5 c 0
 468.416666667 -36.5 471 -49.5 471 -64.5 c 0
 471 -86.1666666667 463.5 -107.166666667 448.5 -127.5 c 0
 433.5 -147.833333333 413.166666667 -165.916666667 387.5 -181.75 c 0
 361.833333333 -197.583333333 331.916666667 -210.333333333 297.75 -220 c 0
 263.583333333 -229.666666667 227.166666667 -234.5 188.5 -234.5 c 0
 147.833333333 -234.5 113.583333333 -229.916666667 85.75 -220.75 c 0
 57.9166666667 -211.583333333 35.25 -199.75 17.75 -185.25 c 0
 0.25 -170.75 -12.3333333333 -154.333333333 -20 -136 c 0
 -27.6666666667 -117.666666667 -31.5 -99.3333333333 -31.5 -81 c 0
 -31.5 -63.6666666667 -28 -47.6666666667 -21 -33 c 0
 -14 -18.3333333333 -4.33333333333 -5 8 7 c 0
 20.3333333333 19 34.8333333333 29.5833333333 51.5 38.75 c 0
 68.1666666667 47.9166666667 86.1666666667 55.8333333333 105.5 62.5 c 0
 104.166666667 70.5 104.25 79.5833333333 105.75 89.75 c 0
 107.25 99.9166666667 109.75 110.25 113.25 120.75 c 0
 116.75 131.25 121.166666667 141.333333333 126.5 151 c 0
 131.833333333 160.666666667 137.833333333 169 144.5 176 c 0
 130.833333333 182.333333333 118.25 189.583333333 106.75 197.75 c 0
 95.25 205.916666667 85.25 215.166666667 76.75 225.5 c 0
 68.25 235.833333333 61.6666666667 247.5 57 260.5 c 0
 52.3333333333 273.5 50 288 50 304 c 0
 50 320 52 336.25 56 352.75 c 0
 60 369.25 66.1666666667 385.166666667 74.5 400.5 c 0
 82.8333333333 415.833333333 93.25 430.25 105.75 443.75 c 0
 118.25 457.25 133.083333333 469.083333333 150.25 479.25 c 0
 167.416666667 489.416666667 186.833333333 497.416666667 208.5 503.25 c 0
 230.166666667 509.083333333 254.166666667 512 280.5 512 c 0
 293.5 512 305.916666667 511.083333333 317.75 509.25 c 0
 329.583333333 507.416666667 340.5 505.083333333 350.5 502.25 c 0
 360.5 499.416666667 369.416666667 496.583333333 377.25 493.75 c 0
 385.083333333 490.916666667 391.5 488.5 396.5 486.5 c 0
 546 486.5 l 0
 546 427 l 0
 451.5 427 l 0
321.5 368.5 m 0
 321.5 380.5 321.333333333 392 321 403 c 0
 320.666666667 414 319.25 423.666666667 316.75 432 c 0
 314.25 440.333333333 310.333333333 446.916666667 305 451.75 c 0
 299.666666667 456.583333333 292.166666667 459 282.5 459 c 0
 276.833333333 459 268.916666667 455 258.75 447 c 0
 248.583333333 439 238.5 427.666666667 228.5 413 c 0
 218.5 398.333333333 209.833333333 380.75 202.5 360.25 c 0
 195.166666667 339.75 191.5 317 191.5 292 c 0
 191.5 280 191.916666667 269.083333333 192.75 259.25 c 0
 193.583333333 249.416666667 195.25 240.916666667 197.75 233.75 c 0
 200.25 226.583333333 204 221 209 217 c 0
 214 213 220.833333333 211 229.5 211 c 0
 246.5 211 260.833333333 216.25 272.5 226.75 c 0
 284.166666667 237.25 293.583333333 250.416666667 300.75 266.25 c 0
 307.916666667 282.083333333 313.166666667 299.166666667 316.5 317.5 c 0
 319.833333333 335.833333333 321.5 352.833333333 321.5 368.5 c 0
333 -85 m 0
 333 -73.3333333333 329.333333333 -62.3333333333 322 -52 c 0
 314.666666667 -41.6666666667 301.5 -32.1666666667 282.5 -23.5 c 0
 168 26.5 l 0
 156.666666667 22.1666666667 147.166666667 16.8333333333 139.5 10.5 c 0
 131.833333333 4.16666666667 125.583333333 -2.91666666667 120.75 -10.75 c 0
 115.916666667 -18.5833333333 112.5 -27 110.5 -36 c 0
 108.5 -45 107.5 -54.1666666667 107.5 -63.5 c 0
 107.5 -74.5 109.166666667 -86.5833333333 112.5 -99.75 c 0
 115.833333333 -112.916666667 121.583333333 -125.25 129.75 -136.75 c 0
 137.916666667 -148.25 148.916666667 -157.833333333 162.75 -165.5 c 0
 176.583333333 -173.166666667 194 -177 215 -177 c 0
 238.333333333 -177 257.583333333 -173.666666667 272.75 -167 c 0
 287.916666667 -160.333333333 300 -152.25 309 -142.75 c 0
 318 -133.25 324.25 -123.25 327.75 -112.75 c 0
 331.25 -102.25 333 -93 333 -85 c 0
EndSplineSet
EndChar

StartChar: h
Encoding: 75 104 75
Width: 578
VWidth: 500
Flags: HW
LayerCount: 2
Fore
SplineSet
576.5 28.5 m 0
 550.833333333 16.1666666667 524.916666667 6.25 498.75 -1.25 c 0
 472.583333333 -8.75 446 -12.5 419 -12.5 c 0
 407 -12.5 394.75 -11.25 382.25 -8.75 c 0
 369.75 -6.25 358.666666667 -2.16666666667 349 3.5 c 0
 339.333333333 9.16666666667 332 16.5833333333 327 25.75 c 0
 322 34.9166666667 320.833333333 46.1666666667 323.5 59.5 c 0
 385 357.5 l 0
 387.666666667 369.833333333 388.25 380.75 386.75 390.25 c 0
 385.25 399.75 382.666666667 407.75 379 414.25 c 0
 375.333333333 420.75 370.833333333 425.666666667 365.5 429 c 0
 360.166666667 432.333333333 355 434 350 434 c 0
 342.333333333 434 333.666666667 432.083333333 324 428.25 c 0
 314.333333333 424.416666667 304.166666667 419.083333333 293.5 412.25 c 0
 282.833333333 405.416666667 271.916666667 397.416666667 260.75 388.25 c 0
 249.583333333 379.083333333 238.833333333 369.166666667 228.5 358.5 c 0
 153.5 0 l 0
 17.5 0 l 0
 158.5 677 l 0
 68.5 685 l 0
 68.5 722 l 0
 241.5 754.5 l 0
 312.5 754.5 l 0
 251 465 l 0
 271.666666667 477.666666667 295.166666667 488.666666667 321.5 498 c 0
 347.833333333 507.333333333 376.166666667 512 406.5 512 c 0
 432.166666667 512 453.5 508.5 470.5 501.5 c 0
 487.5 494.5 500.75 484.666666667 510.25 472 c 0
 519.75 459.333333333 525.583333333 444.083333333 527.75 426.25 c 0
 529.916666667 408.416666667 528.833333333 388.833333333 524.5 367.5 c 0
 467 96.5 l 0
 465.333333333 87.8333333333 465.083333333 80.6666666667 466.25 75 c 0
 467.416666667 69.3333333333 469.333333333 64.6666666667 472 61 c 0
 474.666666667 57.3333333333 477.666666667 54.75 481 53.25 c 0
 484.333333333 51.75 487.5 51 490.5 51 c 0
 505.5 51 519.583333333 53.6666666667 532.75 59 c 0
 545.916666667 64.3333333333 560.166666667 71.3333333333 575.5 80 c 0
 576.5 28.5 l 0
EndSplineSet
EndChar

StartChar: i
Encoding: 76 105 76
Width: 317
VWidth: 500
Flags: HW
LayerCount: 2
Fore
SplineSet
302 679 m 0
 302 668 299.916666667 657.666666667 295.75 648 c 0
 291.583333333 638.333333333 285.833333333 629.833333333 278.5 622.5 c 0
 271.166666667 615.166666667 262.666666667 609.416666667 253 605.25 c 0
 243.333333333 601.083333333 233 599 222 599 c 0
 211 599 200.75 601.083333333 191.25 605.25 c 0
 181.75 609.416666667 173.416666667 615.166666667 166.25 622.5 c 0
 159.083333333 629.833333333 153.5 638.333333333 149.5 648 c 0
 145.5 657.666666667 143.5 668 143.5 679 c 0
 143.5 690 145.5 700.333333333 149.5 710 c 0
 153.5 719.666666667 159.083333333 728 166.25 735 c 0
 173.416666667 742 181.75 747.583333333 191.25 751.75 c 0
 200.75 755.916666667 211 758 222 758 c 0
 233 758 243.333333333 755.916666667 253 751.75 c 0
 262.666666667 747.583333333 271.166666667 742 278.5 735 c 0
 285.833333333 728 291.583333333 719.666666667 295.75 710 c 0
 299.916666667 700.333333333 302 690 302 679 c 0
315.5 33 m 0
 284.833333333 16.3333333333 255.666666667 4.58333333333 228 -2.25 c 0
 200.333333333 -9.08333333333 171.833333333 -12.5 142.5 -12.5 c 0
 123.833333333 -12.5 108.083333333 -9.33333333333 95.25 -3 c 0
 82.4166666667 3.33333333333 72.3333333333 11.5 65 21.5 c 0
 57.6666666667 31.5 52.8333333333 42.75 50.5 55.25 c 0
 48.1666666667 67.75 48.3333333333 80.3333333333 51 93 c 0
 115.5 433 l 0
 27.5 442.5 l 0
 27.5 478 l 0
 196.5 512 l 0
 268.5 512 l 0
 189.5 101.5 l 0
 188.166666667 95.5 187.333333333 89.6666666667 187 84 c 0
 186.666666667 78.3333333333 187.083333333 73.3333333333 188.25 69 c 0
 189.416666667 64.6666666667 191.666666667 61.1666666667 195 58.5 c 0
 198.333333333 55.8333333333 203 54.5 209 54.5 c 0
 211.666666667 54.5 216.916666667 55.3333333333 224.75 57 c 0
 232.583333333 58.6666666667 241.666666667 61 252 64 c 0
 262.333333333 67 273.083333333 70.6666666667 284.25 75 c 0
 295.416666667 79.3333333333 305.833333333 84 315.5 89 c 0
 315.5 33 l 0
EndSplineSet
EndChar

StartChar: j
Encoding: 77 106 77
Width: 325
VWidth: 500
Flags: HW
LayerCount: 2
Fore
SplineSet
318.5 679 m 0
 318.5 668 316.333333333 657.666666667 312 648 c 0
 307.666666667 638.333333333 301.833333333 629.833333333 294.5 622.5 c 0
 287.166666667 615.166666667 278.583333333 609.416666667 268.75 605.25 c 0
 258.916666667 601.083333333 248.5 599 237.5 599 c 0
 226.5 599 216.166666667 601.083333333 206.5 605.25 c 0
 196.833333333 609.416666667 188.5 615.166666667 181.5 622.5 c 0
 174.5 629.833333333 168.916666667 638.333333333 164.75 648 c 0
 160.583333333 657.666666667 158.5 668 158.5 679 c 0
 158.5 690 160.583333333 700.333333333 164.75 710 c 0
 168.916666667 719.666666667 174.5 728 181.5 735 c 0
 188.5 742 196.833333333 747.583333333 206.5 751.75 c 0
 216.166666667 755.916666667 226.5 758 237.5 758 c 0
 248.5 758 258.916666667 755.916666667 268.75 751.75 c 0
 278.583333333 747.583333333 287.166666667 742 294.5 735 c 0
 301.833333333 728 307.666666667 719.666666667 312 710 c 0
 316.333333333 700.333333333 318.5 690 318.5 679 c 0
209 86 m 0
 206 68.6666666667 200.916666667 48.75 193.75 26.25 c 0
 186.583333333 3.75 177.583333333 -19.3333333333 166.75 -43 c 0
 155.916666667 -66.6666666667 143.333333333 -90 129 -113 c 0
 114.666666667 -136 98.6666666667 -156.5 81 -174.5 c 0
 63.3333333333 -192.5 44.1666666667 -207 23.5 -218 c 0
 2.83333333333 -229 -19.3333333333 -234.5 -43 -234.5 c 0
 -55 -234.5 -66.4166666667 -233 -77.25 -230 c 0
 -88.0833333333 -227 -97.5 -222.833333333 -105.5 -217.5 c 0
 -113.5 -212.166666667 -119.916666667 -205.916666667 -124.75 -198.75 c 0
 -129.583333333 -191.583333333 -132 -183.666666667 -132 -175 c 0
 -132 -168.666666667 -130.916666667 -162.916666667 -128.75 -157.75 c 0
 -126.583333333 -152.583333333 -123.583333333 -147.833333333 -119.75 -143.5 c 0
 -115.916666667 -139.166666667 -111.5 -135.083333333 -106.5 -131.25 c 0
 -101.5 -127.416666667 -96 -123.666666667 -90 -120 c 0
 7 -145.5 l 0
 11.6666666667 -138.166666667 16.4166666667 -129.166666667 21.25 -118.5 c 0
 26.0833333333 -107.833333333 30.75 -96.25 35.25 -83.75 c 0
 39.75 -71.25 43.8333333333 -58.3333333333 47.5 -45 c 0
 51.1666666667 -31.6666666667 54.1666666667 -18.6666666667 56.5 -6 c 0
 132 432 l 0
 44 441.5 l 0
 44 478 l 0
 214 512 l 0
 281.5 512 l 0
 209 86 l 0
EndSplineSet
EndChar

StartChar: k
Encoding: 78 107 78
Width: 563
VWidth: 500
Flags: HW
LayerCount: 2
Fore
SplineSet
551 26.5 m 0
 542.333333333 22.1666666667 532 17.6666666667 520 13 c 0
 508 8.33333333333 495.333333333 4.16666666667 482 0.5 c 0
 468.666666667 -3.16666666667 455.166666667 -6.25 441.5 -8.75 c 0
 427.833333333 -11.25 415.166666667 -12.5 403.5 -12.5 c 0
 394.166666667 -12.5 384.666666667 -10.8333333333 375 -7.5 c 0
 365.333333333 -4.16666666667 356 0.166666666667 347 5.5 c 0
 338 10.8333333333 329.75 16.8333333333 322.25 23.5 c 0
 314.75 30.1666666667 308.666666667 37 304 44 c 0
 298.333333333 52.6666666667 291.583333333 64.6666666667 283.75 80 c 0
 275.916666667 95.3333333333 267.833333333 111.75 259.5 129.25 c 0
 251.166666667 146.75 242.916666667 164.333333333 234.75 182 c 0
 226.583333333 199.666666667 219.333333333 215.5 213 229.5 c 0
 191.5 210 l 0
 148.5 0 l 0
 12.5 0 l 0
 149.5 677 l 0
 59.5 685 l 0
 59.5 722 l 0
 232.5 754.5 l 0
 302 754.5 l 0
 216 334 l 0
 331 451.5 l 0
 352 473.5 371.833333333 489.083333333 390.5 498.25 c 0
 409.166666667 507.416666667 428.5 512 448.5 512 c 0
 460.833333333 512 472.333333333 510.25 483 506.75 c 0
 493.666666667 503.25 502.916666667 498.583333333 510.75 492.75 c 0
 518.583333333 486.916666667 524.666666667 480.5 529 473.5 c 0
 533.333333333 466.5 535.5 459.5 535.5 452.5 c 0
 535.5 446.5 534.75 439.166666667 533.25 430.5 c 0
 531.75 421.833333333 528.166666667 412.916666667 522.5 403.75 c 0
 516.833333333 394.583333333 508.333333333 385.583333333 497 376.75 c 0
 485.666666667 367.916666667 470.166666667 360.166666667 450.5 353.5 c 0
 409.5 420 l 0
 401.5 413 392.833333333 405.083333333 383.5 396.25 c 0
 374.166666667 387.416666667 364.916666667 378.583333333 355.75 369.75 c 0
 346.583333333 360.916666667 337.75 352.416666667 329.25 344.25 c 0
 320.75 336.083333333 313.333333333 329.166666667 307 323.5 c 0
 311.666666667 314.833333333 316.75 303.833333333 322.25 290.5 c 0
 327.75 277.166666667 333.583333333 262.833333333 339.75 247.5 c 0
 345.916666667 232.166666667 352.416666667 216.5 359.25 200.5 c 0
 366.083333333 184.5 373.333333333 169.5 381 155.5 c 0
 388.333333333 142.166666667 395.333333333 129.333333333 402 117 c 0
 408.666666667 104.666666667 415.333333333 93.6666666667 422 84 c 0
 428.666666667 74.3333333333 435.666666667 66.5833333333 443 60.75 c 0
 450.333333333 54.9166666667 458.333333333 52 467 52 c 0
 467.666666667 52 474.583333333 53.9166666667 487.75 57.75 c 0
 500.916666667 61.5833333333 522 69.3333333333 551 81 c 0
 551 26.5 l 0
EndSplineSet
EndChar

StartChar: l
Encoding: 79 108 79
Width: 313
VWidth: 500
Flags: HW
LayerCount: 2
Fore
SplineSet
311.5 29.5 m 0
 286.5 16.8333333333 259.583333333 6.66666666667 230.75 -1 c 0
 201.916666667 -8.66666666667 174.166666667 -12.5 147.5 -12.5 c 0
 113.5 -12.5 87.0833333333 -5.41666666667 68.25 8.75 c 0
 49.4166666667 22.9166666667 40 41.8333333333 40 65.5 c 0
 40 71.1666666667 40.25 77.0833333333 40.75 83.25 c 0
 41.25 89.4166666667 42.3333333333 95.8333333333 44 102.5 c 0
 155.5 677 l 0
 65.5 685 l 0
 65.5 722 l 0
 238.5 754.5 l 0
 306 754.5 l 0
 180 104.5 l 0
 179 98.5 178.583333333 92.5833333333 178.75 86.75 c 0
 178.916666667 80.9166666667 180 75.5833333333 182 70.75 c 0
 184 65.9166666667 187 62 191 59 c 0
 195 56 200.333333333 54.5 207 54.5 c 0
 215 54.5 228.333333333 56.9166666667 247 61.75 c 0
 265.666666667 66.5833333333 287.166666667 74.3333333333 311.5 85 c 0
 311.5 29.5 l 0
EndSplineSet
EndChar

StartChar: m
Encoding: 80 109 80
Width: 846
VWidth: 500
Flags: HW
LayerCount: 2
Fore
SplineSet
843 29.5 m 0
 817 16.1666666667 791.916666667 5.83333333333 767.75 -1.5 c 0
 743.583333333 -8.83333333333 718.333333333 -12.5 692 -12.5 c 0
 676.333333333 -12.5 661.75 -10.9166666667 648.25 -7.75 c 0
 634.75 -4.58333333333 623.166666667 0.25 613.5 6.75 c 0
 603.833333333 13.25 596.666666667 21.1666666667 592 30.5 c 0
 587.333333333 39.8333333333 586.333333333 50.8333333333 589 63.5 c 0
 645 336 l 0
 658.666666667 400 652.166666667 432 625.5 432 c 0
 610.5 432 596.416666667 428.75 583.25 422.25 c 0
 570.083333333 415.75 558.416666667 408 548.25 399 c 0
 538.083333333 390 529.333333333 380.833333333 522 371.5 c 0
 514.666666667 362.166666667 509.333333333 354.666666667 506 349 c 0
 432 0 l 0
 297 0 l 0
 367.5 337 l 0
 369.5 347 371.416666667 357.583333333 373.25 368.75 c 0
 375.083333333 379.916666667 375.583333333 390.166666667 374.75 399.5 c 0
 373.916666667 408.833333333 371.166666667 416.583333333 366.5 422.75 c 0
 361.833333333 428.916666667 354 432 343 432 c 0
 332.333333333 432 321.5 429.083333333 310.5 423.25 c 0
 299.5 417.416666667 289 410.166666667 279 401.5 c 0
 269 392.833333333 259.583333333 383.583333333 250.75 373.75 c 0
 241.916666667 363.916666667 234.166666667 355 227.5 347 c 0
 154.5 0 l 0
 18.5 0 l 0
 108.5 435 l 0
 22.5 443.5 l 0
 22.5 478 l 0
 191.5 512 l 0
 262 512 l 0
 250 453.5 l 0
 274.666666667 470.5 300 484.5 326 495.5 c 0
 352 506.5 376.833333333 512 400.5 512 c 0
 414.5 512 427.083333333 510 438.25 506 c 0
 449.416666667 502 459.333333333 496.75 468 490.25 c 0
 476.666666667 483.75 484 476.333333333 490 468 c 0
 496 459.666666667 501 451.166666667 505 442.5 c 0
 518.333333333 452.5 532.5 461.75 547.5 470.25 c 0
 562.5 478.75 577.666666667 486.083333333 593 492.25 c 0
 608.333333333 498.416666667 623.5 503.25 638.5 506.75 c 0
 653.5 510.25 667.666666667 512 681 512 c 0
 699 512 715.666666667 508.833333333 731 502.5 c 0
 746.333333333 496.166666667 759.166666667 487.166666667 769.5 475.5 c 0
 779.833333333 463.833333333 787 449.75 791 433.25 c 0
 795 416.75 794.833333333 398.333333333 790.5 378 c 0
 732 102.5 l 0
 729 87.8333333333 729.333333333 75.5833333333 733 65.75 c 0
 736.666666667 55.9166666667 745 51 758 51 c 0
 761.333333333 51 766.333333333 51.6666666667 773 53 c 0
 779.666666667 54.3333333333 787 56.1666666667 795 58.5 c 0
 803 60.8333333333 811.166666667 63.5833333333 819.5 66.75 c 0
 827.833333333 69.9166666667 835.666666667 73.3333333333 843 77 c 0
 843 29.5 l 0
EndSplineSet
EndChar

StartChar: n
Encoding: 81 110 81
Width: 592
VWidth: 500
Flags: HW
LayerCount: 2
Fore
SplineSet
588 23.5 m 0
 579 19.1666666667 567.833333333 14.8333333333 554.5 10.5 c 0
 541.166666667 6.16666666667 527.083333333 2.33333333333 512.25 -1 c 0
 497.416666667 -4.33333333333 482.583333333 -7.08333333333 467.75 -9.25 c 0
 452.916666667 -11.4166666667 439.666666667 -12.5 428 -12.5 c 0
 416.666666667 -12.5 404.416666667 -11.6666666667 391.25 -10 c 0
 378.083333333 -8.33333333333 366.083333333 -5.16666666667 355.25 -0.5 c 0
 344.416666667 4.16666666667 335.916666667 10.6666666667 329.75 19 c 0
 323.583333333 27.3333333333 321.833333333 38.3333333333 324.5 52 c 0
 387 364.5 l 0
 389.666666667 376.833333333 390.916666667 387.25 390.75 395.75 c 0
 390.583333333 404.25 389.25 411.166666667 386.75 416.5 c 0
 384.25 421.833333333 380.916666667 425.583333333 376.75 427.75 c 0
 372.583333333 429.916666667 367.833333333 431 362.5 431 c 0
 354.5 431 345.333333333 428.666666667 335 424 c 0
 324.666666667 419.333333333 313.75 413.166666667 302.25 405.5 c 0
 290.75 397.833333333 279.083333333 388.916666667 267.25 378.75 c 0
 255.416666667 368.583333333 244.166666667 358 233.5 347 c 0
 161 0 l 0
 24.5 0 l 0
 114.5 435 l 0
 28.5 443.5 l 0
 28.5 478 l 0
 196.5 512 l 0
 267.5 512 l 0
 255 452.5 l 0
 267.333333333 460.833333333 280.416666667 468.666666667 294.25 476 c 0
 308.083333333 483.333333333 322.083333333 489.666666667 336.25 495 c 0
 350.416666667 500.333333333 364.583333333 504.5 378.75 507.5 c 0
 392.916666667 510.5 406.666666667 512 420 512 c 0
 445.333333333 512 466.25 509.083333333 482.75 503.25 c 0
 499.25 497.416666667 511.75 488.833333333 520.25 477.5 c 0
 528.75 466.166666667 533.75 452.166666667 535.25 435.5 c 0
 536.75 418.833333333 535.5 399.666666667 531.5 378 c 0
 476 90 l 0
 474.333333333 81.6666666667 474.25 74.9166666667 475.75 69.75 c 0
 477.25 64.5833333333 479.416666667 60.5 482.25 57.5 c 0
 485.083333333 54.5 488.166666667 52.5 491.5 51.5 c 0
 494.833333333 50.5 497.833333333 50 500.5 50 c 0
 511.166666667 50 524.166666667 52.0833333333 539.5 56.25 c 0
 554.833333333 60.4166666667 570.166666667 65.8333333333 585.5 72.5 c 0
 588 23.5 l 0
EndSplineSet
EndChar

StartChar: o
Encoding: 82 111 82
Width: 566
VWidth: 500
Flags: HW
LayerCount: 2
Fore
SplineSet
534.5 310.5 m 0
 534.5 283.5 531.5 256.833333333 525.5 230.5 c 0
 519.5 204.166666667 510.666666667 179.083333333 499 155.25 c 0
 487.333333333 131.416666667 473 109.25 456 88.75 c 0
 439 68.25 419.5 50.5 397.5 35.5 c 0
 375.5 20.5 351.083333333 8.75 324.25 0.25 c 0
 297.416666667 -8.25 268.5 -12.5 237.5 -12.5 c 0
 202.5 -12.5 172.166666667 -7.5 146.5 2.5 c 0
 120.833333333 12.5 99.5833333333 26.25 82.75 43.75 c 0
 65.9166666667 61.25 53.4166666667 82.0833333333 45.25 106.25 c 0
 37.0833333333 130.416666667 33 156.833333333 33 185.5 c 0
 33 212.166666667 35.9166666667 238.75 41.75 265.25 c 0
 47.5833333333 291.75 56.0833333333 317.166666667 67.25 341.5 c 0
 78.4166666667 365.833333333 92.3333333333 388.333333333 109 409 c 0
 125.666666667 429.666666667 144.916666667 447.666666667 166.75 463 c 0
 188.583333333 478.333333333 212.916666667 490.333333333 239.75 499 c 0
 266.583333333 507.666666667 295.833333333 512 327.5 512 c 0
 358.833333333 512 387.25 507.75 412.75 499.25 c 0
 438.25 490.75 460 478.083333333 478 461.25 c 0
 496 444.416666667 509.916666667 423.416666667 519.75 398.25 c 0
 529.583333333 373.083333333 534.5 343.833333333 534.5 310.5 c 0
387 314.5 m 0
 387 339.5 384.5 361 379.5 379 c 0
 374.5 397 368.416666667 411.833333333 361.25 423.5 c 0
 354.083333333 435.166666667 346.416666667 443.75 338.25 449.25 c 0
 330.083333333 454.75 322.833333333 457.5 316.5 457.5 c 0
 306.166666667 457.5 295.583333333 454.083333333 284.75 447.25 c 0
 273.916666667 440.416666667 263.416666667 430.916666667 253.25 418.75 c 0
 243.083333333 406.583333333 233.5 392.083333333 224.5 375.25 c 0
 215.5 358.416666667 207.583333333 340.083333333 200.75 320.25 c 0
 193.916666667 300.416666667 188.583333333 279.416666667 184.75 257.25 c 0
 180.916666667 235.083333333 179 212.5 179 189.5 c 0
 179 163.166666667 181.583333333 140.75 186.75 122.25 c 0
 191.916666667 103.75 198.25 88.75 205.75 77.25 c 0
 213.25 65.75 221 57.3333333333 229 52 c 0
 237 46.6666666667 244 44 250 44 c 0
 268 44 285.25 52.1666666667 301.75 68.5 c 0
 318.25 84.8333333333 332.833333333 106 345.5 132 c 0
 358.166666667 158 368.25 187 375.75 219 c 0
 383.25 251 387 282.833333333 387 314.5 c 0
EndSplineSet
EndChar

StartChar: p
Encoding: 83 112 83
Width: 554
VWidth: 500
Flags: HW
LayerCount: 2
Fore
SplineSet
521 318.5 m 0
 521 291.166666667 517.666666667 264 511 237 c 0
 504.333333333 210 494.75 184.25 482.25 159.75 c 0
 469.75 135.25 454.333333333 112.5 436 91.5 c 0
 417.666666667 70.5 396.833333333 52.3333333333 373.5 37 c 0
 350.166666667 21.6666666667 324.333333333 9.58333333333 296 0.75 c 0
 267.666666667 -8.08333333333 237.333333333 -12.5 205 -12.5 c 0
 192.333333333 -12.5 181.25 -11.5833333333 171.75 -9.75 c 0
 162.25 -7.91666666667 154.166666667 -6 147.5 -4 c 0
 116.5 -155.5 l 0
 115.5 -160.166666667 116.416666667 -164.083333333 119.25 -167.25 c 0
 122.083333333 -170.416666667 126.333333333 -172 132 -172 c 0
 136.666666667 -172.333333333 142.5 -172.833333333 149.5 -173.5 c 0
 155.5 -174.166666667 162.916666667 -174.833333333 171.75 -175.5 c 0
 180.583333333 -176.166666667 191 -177 203 -178 c 0
 203 -224.5 l 0
 -98.5 -224.5 l 0
 -98.5 -178 l 0
 -93.1666666667 -177.333333333 -86.9166666667 -176.833333333 -79.75 -176.5 c 0
 -72.5833333333 -176.166666667 -65.8333333333 -175.666666667 -59.5 -175 c 0
 -52.1666666667 -174.333333333 -44.6666666667 -173.666666667 -37 -173 c 0
 -31.6666666667 -172.333333333 -27.6666666667 -170.416666667 -25 -167.25 c 0
 -22.3333333333 -164.083333333 -20.5 -160.166666667 -19.5 -155.5 c 0
 96.5 434 l 0
 11.5 443.5 l 0
 11.5 478 l 0
 180 512 l 0
 249 512 l 0
 241.5 474 l 0
 246.833333333 477 253.75 480.666666667 262.25 485 c 0
 270.75 489.333333333 280.333333333 493.5 291 497.5 c 0
 301.666666667 501.5 313.166666667 504.916666667 325.5 507.75 c 0
 337.833333333 510.583333333 350.833333333 512 364.5 512 c 0
 391.5 512 414.833333333 506.25 434.5 494.75 c 0
 454.166666667 483.25 470.416666667 468.333333333 483.25 450 c 0
 496.083333333 431.666666667 505.583333333 411 511.75 388 c 0
 517.916666667 365 521 341.833333333 521 318.5 c 0
378 314.5 m 0
 378 328.833333333 377.333333333 343.416666667 376 358.25 c 0
 374.666666667 373.083333333 371.833333333 386.583333333 367.5 398.75 c 0
 363.166666667 410.916666667 356.916666667 420.916666667 348.75 428.75 c 0
 340.583333333 436.583333333 329.833333333 440.5 316.5 440.5 c 0
 309.166666667 440.5 301.25 438.5 292.75 434.5 c 0
 284.25 430.5 275.75 425.583333333 267.25 419.75 c 0
 258.75 413.916666667 250.75 407.833333333 243.25 401.5 c 0
 235.75 395.166666667 229.5 389.666666667 224.5 385 c 0
 162 69.5 l 0
 166 66.8333333333 170.666666667 63.9166666667 176 60.75 c 0
 181.333333333 57.5833333333 186.833333333 54.6666666667 192.5 52 c 0
 198.166666667 49.3333333333 203.75 47 209.25 45 c 0
 214.75 43 219.833333333 42 224.5 42 c 0
 238.833333333 42 252.583333333 45.9166666667 265.75 53.75 c 0
 278.916666667 61.5833333333 291.166666667 72.3333333333 302.5 86 c 0
 313.833333333 99.6666666667 324.166666667 115.416666667 333.5 133.25 c 0
 342.833333333 151.083333333 350.75 170.166666667 357.25 190.5 c 0
 363.75 210.833333333 368.833333333 231.583333333 372.5 252.75 c 0
 376.166666667 273.916666667 378 294.5 378 314.5 c 0
EndSplineSet
EndChar

StartChar: q
Encoding: 84 113 84
Width: 583
VWidth: 500
Flags: HW
LayerCount: 2
Fore
SplineSet
418 -155.5 m 0
 416.666666667 -160.166666667 416.75 -164.083333333 418.25 -167.25 c 0
 419.75 -170.416666667 423.333333333 -172 429 -172 c 0
 434.666666667 -172.333333333 441.166666667 -172.833333333 448.5 -173.5 c 0
 454.833333333 -174.166666667 462.583333333 -174.833333333 471.75 -175.5 c 0
 480.916666667 -176.166666667 491.333333333 -177 503 -178 c 0
 503 -224.5 l 0
 201.5 -224.5 l 0
 201.5 -178 l 0
 206.166666667 -177.666666667 212 -177.166666667 219 -176.5 c 0
 226 -175.833333333 232.833333333 -175.166666667 239.5 -174.5 c 0
 247.5 -173.5 255.666666667 -172.666666667 264 -172 c 0
 273.666666667 -171 279.5 -165.5 281.5 -155.5 c 0
 317.5 22.5 l 0
 296.833333333 10.8333333333 276.333333333 1.75 256 -4.75 c 0
 235.666666667 -11.25 216.166666667 -14.5 197.5 -14.5 c 0
 170.166666667 -14.5 146.333333333 -10.1666666667 126 -1.5 c 0
 105.666666667 7.16666666667 88.75 19.6666666667 75.25 36 c 0
 61.75 52.3333333333 51.6666666667 72.25 45 95.75 c 0
 38.3333333333 119.25 35 145.666666667 35 175 c 0
 35 200.666666667 38 226.75 44 253.25 c 0
 50 279.75 59 305.5 71 330.5 c 0
 83 355.5 97.75 379 115.25 401 c 0
 132.75 423 153.083333333 442.25 176.25 458.75 c 0
 199.416666667 475.25 225.166666667 488.25 253.5 497.75 c 0
 281.833333333 507.25 312.666666667 512 346 512 c 0
 363 512 379.166666667 510.25 394.5 506.75 c 0
 409.833333333 503.25 423.333333333 498.833333333 435 493.5 c 0
 451.5 512 l 0
 551 512 l 0
 418 -155.5 l 0
392 399.5 m 0
 393 402.833333333 392.5 407.666666667 390.5 414 c 0
 388.5 420.333333333 385.833333333 426.583333333 382.5 432.75 c 0
 379.166666667 438.916666667 375.416666667 444.25 371.25 448.75 c 0
 367.083333333 453.25 363.166666667 455.5 359.5 455.5 c 0
 337.833333333 455.5 316 448.75 294 435.25 c 0
 272 421.75 252.166666667 402.916666667 234.5 378.75 c 0
 216.833333333 354.583333333 202.5 325.5 191.5 291.5 c 0
 180.5 257.5 175 220 175 179 c 0
 175 160.666666667 176 144 178 129 c 0
 180 114 183.333333333 101.25 188 90.75 c 0
 192.666666667 80.25 199.083333333 72.0833333333 207.25 66.25 c 0
 215.416666667 60.4166666667 225.833333333 57.5 238.5 57.5 c 0
 248.833333333 57.5 258.416666667 59.5 267.25 63.5 c 0
 276.083333333 67.5 284.416666667 72.5 292.25 78.5 c 0
 300.083333333 84.5 307.583333333 91 314.75 98 c 0
 321.916666667 105 329 111.666666667 336 118 c 0
 392 399.5 l 0
EndSplineSet
EndChar

StartChar: r
Encoding: 85 114 85
Width: 429
VWidth: 500
Flags: HW
LayerCount: 2
Fore
SplineSet
467 439.5 m 0
 467 415.833333333 459.5 398.083333333 444.5 386.25 c 0
 429.5 374.416666667 404.5 368.5 369.5 368.5 c 0
 342 424 l 0
 326 416 310.75 406.416666667 296.25 395.25 c 0
 281.75 384.083333333 268.833333333 371.833333333 257.5 358.5 c 0
 246.166666667 345.166666667 236.5 331 228.5 316 c 0
 220.5 301 215 285.833333333 212 270.5 c 0
 154.5 0 l 0
 18.5 0 l 0
 108.5 433 l 0
 22.5 442.5 l 0
 22.5 478 l 0
 192.5 512 l 0
 263 512 l 0
 250 443.5 l 0
 259 452.833333333 268.916666667 461.666666667 279.75 470 c 0
 290.583333333 478.333333333 302 485.666666667 314 492 c 0
 326 498.333333333 338.333333333 503.25 351 506.75 c 0
 363.666666667 510.25 376.333333333 512 389 512 c 0
 402.333333333 512 413.916666667 509.583333333 423.75 504.75 c 0
 433.583333333 499.916666667 441.666666667 493.916666667 448 486.75 c 0
 454.333333333 479.583333333 459.083333333 471.75 462.25 463.25 c 0
 465.416666667 454.75 467 446.833333333 467 439.5 c 0
EndSplineSet
EndChar

StartChar: s
Encoding: 86 115 86
Width: 425
VWidth: 500
Flags: HW
LayerCount: 2
Fore
SplineSet
403.5 433 m 0
 403.5 410 397 393 384 382 c 0
 371 371 348.833333333 364.5 317.5 362.5 c 0
 265 451.5 l 0
 262.666666667 452.166666667 260.166666667 452.833333333 257.5 453.5 c 0
 255.166666667 454.166666667 252.333333333 454.666666667 249 455 c 0
 245.666666667 455.333333333 242.166666667 455.5 238.5 455.5 c 0
 228.166666667 455.5 220.166666667 453.416666667 214.5 449.25 c 0
 208.833333333 445.083333333 204.583333333 439.833333333 201.75 433.5 c 0
 198.916666667 427.166666667 197.166666667 420.25 196.5 412.75 c 0
 195.833333333 405.25 195.5 398.333333333 195.5 392 c 0
 195.5 381.333333333 198.166666667 371 203.5 361 c 0
 208.833333333 351 215.833333333 341.25 224.5 331.75 c 0
 233.166666667 322.25 242.916666667 312.916666667 253.75 303.75 c 0
 264.583333333 294.583333333 275.5 285.833333333 286.5 277.5 c 0
 298.166666667 268.5 309.416666667 259.25 320.25 249.75 c 0
 331.083333333 240.25 340.75 230.25 349.25 219.75 c 0
 357.75 209.25 364.5 198.333333333 369.5 187 c 0
 374.5 175.666666667 377 163.833333333 377 151.5 c 0
 377 131.833333333 372.333333333 112.166666667 363 92.5 c 0
 353.666666667 72.8333333333 339.5 55.25 320.5 39.75 c 0
 301.5 24.25 277.666666667 11.6666666667 249 2 c 0
 220.333333333 -7.66666666667 186.833333333 -12.5 148.5 -12.5 c 0
 121.5 -12.5 98.25 -9.75 78.75 -4.25 c 0
 59.25 1.25 43.1666666667 8.58333333333 30.5 17.75 c 0
 17.8333333333 26.9166666667 8.41666666667 37.3333333333 2.25 49 c 0
 -3.91666666667 60.6666666667 -7 72.6666666667 -7 85 c 0
 -7 94 -5.33333333333 102.666666667 -2 111 c 0
 1.33333333333 119.333333333 5.75 126.75 11.25 133.25 c 0
 16.75 139.75 22.8333333333 144.916666667 29.5 148.75 c 0
 36.1666666667 152.583333333 43 154.5 50 154.5 c 0
 65 154.5 77.6666666667 152.25 88 147.75 c 0
 98.3333333333 143.25 106.833333333 137.333333333 113.5 130 c 0
 95 69.5 l 0
 98.6666666667 64.5 103.833333333 60 110.5 56 c 0
 117.166666667 52 124.416666667 48.6666666667 132.25 46 c 0
 140.083333333 43.3333333333 148.083333333 41.3333333333 156.25 40 c 0
 164.416666667 38.6666666667 172 38 179 38 c 0
 199.666666667 38 215.083333333 45.0833333333 225.25 59.25 c 0
 235.416666667 73.4166666667 240.5 92.5 240.5 116.5 c 0
 240.5 126.833333333 238.5 136.583333333 234.5 145.75 c 0
 230.5 154.916666667 224.833333333 163.833333333 217.5 172.5 c 0
 210.166666667 181.166666667 201.333333333 189.75 191 198.25 c 0
 180.666666667 206.75 169.166666667 215.833333333 156.5 225.5 c 0
 145.833333333 233.5 135.416666667 242.333333333 125.25 252 c 0
 115.083333333 261.666666667 106 271.916666667 98 282.75 c 0
 90 293.583333333 83.5833333333 305 78.75 317 c 0
 73.9166666667 329 71.5 341.5 71.5 354.5 c 0
 71.5 378.5 77.1666666667 400.166666667 88.5 419.5 c 0
 99.8333333333 438.833333333 115 455.416666667 134 469.25 c 0
 153 483.083333333 175 493.666666667 200 501 c 0
 225 508.333333333 251.166666667 512 278.5 512 c 0
 299.833333333 512 318.333333333 509.083333333 334 503.25 c 0
 349.666666667 497.416666667 362.666666667 490.416666667 373 482.25 c 0
 383.333333333 474.083333333 391 465.416666667 396 456.25 c 0
 401 447.083333333 403.5 439.333333333 403.5 433 c 0
EndSplineSet
EndChar

StartChar: t
Encoding: 87 116 87
Width: 352
VWidth: 500
Flags: HW
LayerCount: 2
Fore
SplineSet
250 428 m 0
 185.5 111.5 l 0
 181.833333333 95.5 183.583333333 82.6666666667 190.75 73 c 0
 197.916666667 63.3333333333 209.5 58.5 225.5 58.5 c 0
 233.5 58.5 243.083333333 59.8333333333 254.25 62.5 c 0
 265.416666667 65.1666666667 277 68.3333333333 289 72 c 0
 301 75.6666666667 312.666666667 79.5833333333 324 83.75 c 0
 335.333333333 87.9166666667 345.166666667 91.3333333333 353.5 94 c 0
 353.5 38 l 0
 347.833333333 35.3333333333 337.833333333 31.25 323.5 25.75 c 0
 309.166666667 20.25 292.833333333 14.6666666667 274.5 9 c 0
 256.166666667 3.33333333333 237.166666667 -1.66666666667 217.5 -6 c 0
 197.833333333 -10.3333333333 180 -12.5 164 -12.5 c 0
 144.333333333 -12.5 127.166666667 -10.1666666667 112.5 -5.5 c 0
 97.8333333333 -0.833333333333 85.6666666667 5.58333333333 76 13.75 c 0
 66.3333333333 21.9166666667 59.0833333333 31.6666666667 54.25 43 c 0
 49.4166666667 54.3333333333 47 66.6666666667 47 80 c 0
 47 86.6666666667 47.25 93.3333333333 47.75 100 c 0
 48.25 106.666666667 49.3333333333 113.666666667 51 121 c 0
 113.5 426 l 0
 40 418 l 0
 40 460 l 0
 127 494.5 l 0
 179 600 l 0
 281.5 600 l 0
 260 484.5 l 0
 402.5 484.5 l 0
 402.5 428 l 0
 250 428 l 0
EndSplineSet
EndChar

StartChar: u
Encoding: 88 117 88
Width: 588
VWidth: 500
Flags: HW
LayerCount: 2
Fore
SplineSet
585.5 28.5 m 0
 578.5 24.8333333333 568.916666667 20.5833333333 556.75 15.75 c 0
 544.583333333 10.9166666667 531.083333333 6.41666666667 516.25 2.25 c 0
 501.416666667 -1.91666666667 486 -5.41666666667 470 -8.25 c 0
 454 -11.0833333333 438.666666667 -12.5 424 -12.5 c 0
 406.333333333 -12.5 392 -10.6666666667 381 -7 c 0
 370 -3.33333333333 361.416666667 1.08333333333 355.25 6.25 c 0
 349.083333333 11.4166666667 344.666666667 16.75 342 22.25 c 0
 339.333333333 27.75 337.666666667 32.3333333333 337 36 c 0
 314.333333333 20.3333333333 289.833333333 8.33333333333 263.5 0 c 0
 237.166666667 -8.33333333333 207.333333333 -12.5 174 -12.5 c 0
 148.666666667 -12.5 127.25 -8.16666666667 109.75 0.5 c 0
 92.25 9.16666666667 78.4166666667 20 68.25 33 c 0
 58.0833333333 46 51.4166666667 60.25 48.25 75.75 c 0
 45.0833333333 91.25 45 106 48 120 c 0
 114.5 434 l 0
 28.5 443.5 l 0
 28.5 478 l 0
 197.5 512 l 0
 268.5 512 l 0
 184.5 120 l 0
 182.833333333 112 182.416666667 104.333333333 183.25 97 c 0
 184.083333333 89.6666666667 186 83.25 189 77.75 c 0
 192 72.25 196 67.8333333333 201 64.5 c 0
 206 61.1666666667 211.666666667 59.5 218 59.5 c 0
 229.333333333 59.5 240.416666667 61.0833333333 251.25 64.25 c 0
 262.083333333 67.4166666667 272.583333333 71.8333333333 282.75 77.5 c 0
 292.916666667 83.1666666667 302.833333333 89.6666666667 312.5 97 c 0
 322.166666667 104.333333333 331.666666667 112.333333333 341 121 c 0
 421 499.5 l 0
 557 499.5 l 0
 473 102.5 l 0
 469 83.5 469.75 69.8333333333 475.25 61.5 c 0
 480.75 53.1666666667 488.833333333 49 499.5 49 c 0
 502.166666667 49 505.25 49.4166666667 508.75 50.25 c 0
 512.25 51.0833333333 517.083333333 52.75 523.25 55.25 c 0
 529.416666667 57.75 537.416666667 61.4166666667 547.25 66.25 c 0
 557.083333333 71.0833333333 569.833333333 77.6666666667 585.5 86 c 0
 585.5 28.5 l 0
EndSplineSet
EndChar

StartChar: v
Encoding: 89 118 89
Width: 521
VWidth: 500
Flags: HW
LayerCount: 2
Fore
SplineSet
526.5 446.5 m 0
 526.5 437.833333333 525.666666667 429.5 524 421.5 c 0
 522.333333333 413.5 520.333333333 406.166666667 518 399.5 c 0
 515.666666667 392.833333333 513.166666667 386.916666667 510.5 381.75 c 0
 507.833333333 376.583333333 505.666666667 372.5 504 369.5 c 0
 481 327.5 456.333333333 287.416666667 430 249.25 c 0
 403.666666667 211.083333333 377.583333333 175.666666667 351.75 143 c 0
 325.916666667 110.333333333 301.5 80.8333333333 278.5 54.5 c 0
 255.5 28.1666666667 235.666666667 5.83333333333 219 -12.5 c 0
 119 -12.5 l 0
 127.666666667 5.16666666667 133.916666667 20.5833333333 137.75 33.75 c 0
 141.583333333 46.9166666667 143.166666667 59.1666666667 142.5 70.5 c 0
 142.5 71.5 142.166666667 76.5833333333 141.5 85.75 c 0
 140.833333333 94.9166666667 139.916666667 106.666666667 138.75 121 c 0
 137.583333333 135.333333333 136.166666667 151.75 134.5 170.25 c 0
 132.833333333 188.75 131 207.833333333 129 227.5 c 0
 127 247.166666667 124.833333333 267 122.5 287 c 0
 120.166666667 307 117.75 325.583333333 115.25 342.75 c 0
 112.75 359.916666667 110.166666667 375.25 107.5 388.75 c 0
 104.833333333 402.25 102.166666667 412.333333333 99.5 419 c 0
 97.8333333333 422.666666667 96.4166666667 425.666666667 95.25 428 c 0
 94.0833333333 430.333333333 92.6666666667 432.083333333 91 433.25 c 0
 89.3333333333 434.416666667 87.1666666667 435.166666667 84.5 435.5 c 0
 81.8333333333 435.833333333 78.1666666667 436 73.5 436 c 0
 66.5 436.333333333 59.1666666667 436.833333333 51.5 437.5 c 0
 44.8333333333 437.833333333 37.25 438.166666667 28.75 438.5 c 0
 20.25 438.833333333 11.6666666667 439.166666667 3 439.5 c 0
 3 476 l 0
 125 512 l 0
 160.333333333 511.333333333 187.583333333 504.833333333 206.75 492.5 c 0
 225.916666667 480.166666667 236.833333333 461 239.5 435 c 0
 267.5 171 l 0
 279.833333333 188 291.916666667 204.083333333 303.75 219.25 c 0
 315.583333333 234.416666667 326.666666667 249.416666667 337 264.25 c 0
 347.333333333 279.083333333 356.916666667 294 365.75 309 c 0
 374.583333333 324 382.333333333 339.5 389 355.5 c 0
 360.5 485.5 l 0
 369.166666667 493.833333333 380.833333333 500.333333333 395.5 505 c 0
 410.166666667 509.666666667 425.5 512 441.5 512 c 0
 453.5 512 464.666666667 510.5 475 507.5 c 0
 485.333333333 504.5 494.333333333 500.083333333 502 494.25 c 0
 509.666666667 488.416666667 515.666666667 481.5 520 473.5 c 0
 524.333333333 465.5 526.5 456.5 526.5 446.5 c 0
EndSplineSet
EndChar

StartChar: w
Encoding: 90 119 90
Width: 769
VWidth: 500
Flags: HW
LayerCount: 2
Fore
SplineSet
773 447.5 m 0
 773 433.166666667 769.333333333 416.083333333 762 396.25 c 0
 754.666666667 376.416666667 744.916666667 355 732.75 332 c 0
 720.583333333 309 706.666666667 285.083333333 691 260.25 c 0
 675.333333333 235.416666667 659.083333333 210.833333333 642.25 186.5 c 0
 625.416666667 162.166666667 608.75 138.916666667 592.25 116.75 c 0
 575.75 94.5833333333 560.666666667 74.5 547 56.5 c 0
 533.333333333 38.5 521.666666667 23.5 512 11.5 c 0
 502.333333333 -0.5 495.833333333 -8.5 492.5 -12.5 c 0
 391 -12.5 l 0
 370.5 280.5 l 0
 357.166666667 254.166666667 343.333333333 227.583333333 329 200.75 c 0
 314.666666667 173.916666667 300.25 147.833333333 285.75 122.5 c 0
 271.25 97.1666666667 257.083333333 73 243.25 50 c 0
 229.416666667 27 216.333333333 6.16666666667 204 -12.5 c 0
 98.5 -12.5 l 0
 109.5 15.5 l 0
 82 434 l 0
 4 442.5 l 0
 4 475 l 0
 141.5 512 l 0
 215 499.5 l 0
 234.5 190.5 l 0
 246.166666667 213.166666667 258 236.833333333 270 261.5 c 0
 282 286.166666667 293.916666667 311.083333333 305.75 336.25 c 0
 317.583333333 361.416666667 329.25 386.75 340.75 412.25 c 0
 352.25 437.75 363.333333333 462.833333333 374 487.5 c 0
 490.5 499.5 l 0
 515 139.5 l 0
 526.666666667 156.5 539.25 174.75 552.75 194.25 c 0
 566.25 213.75 579.583333333 233.583333333 592.75 253.75 c 0
 605.916666667 273.916666667 618.333333333 294.166666667 630 314.5 c 0
 641.666666667 334.833333333 651.833333333 354.166666667 660.5 372.5 c 0
 621.5 481.5 l 0
 622.833333333 483.5 625.25 486.25 628.75 489.75 c 0
 632.25 493.25 636.75 496.583333333 642.25 499.75 c 0
 647.75 502.916666667 654.416666667 505.75 662.25 508.25 c 0
 670.083333333 510.75 679.333333333 512 690 512 c 0
 704 512 716.166666667 509.5 726.5 504.5 c 0
 736.833333333 499.5 745.416666667 493.5 752.25 486.5 c 0
 759.083333333 479.5 764.25 472.333333333 767.75 465 c 0
 771.25 457.666666667 773 451.833333333 773 447.5 c 0
EndSplineSet
EndChar

StartChar: x
Encoding: 91 120 91
Width: 590
VWidth: 500
Flags: HW
LayerCount: 2
Fore
SplineSet
600 447.5 m 0
 600 440.833333333 599.5 433 598.5 424 c 0
 597.5 415 594.75 406.5 590.25 398.5 c 0
 585.75 390.5 578.666666667 383.666666667 569 378 c 0
 559.333333333 372.333333333 545.833333333 369.5 528.5 369.5 c 0
 483.5 423 l 0
 475.166666667 417 465.5 408.833333333 454.5 398.5 c 0
 443.5 388.166666667 432.25 376.083333333 420.75 362.25 c 0
 409.25 348.416666667 398.166666667 333.083333333 387.5 316.25 c 0
 376.833333333 299.416666667 367.5 281.333333333 359.5 262 c 0
 361.166666667 256 363.833333333 247.583333333 367.5 236.75 c 0
 371.166666667 225.916666667 375.25 214.166666667 379.75 201.5 c 0
 384.25 188.833333333 389 176 394 163 c 0
 399 150 403.833333333 138.333333333 408.5 128 c 0
 413.166666667 117.666666667 417.25 107.916666667 420.75 98.75 c 0
 424.25 89.5833333333 427.833333333 81.5 431.5 74.5 c 0
 435.166666667 67.5 439.166666667 62 443.5 58 c 0
 447.833333333 54 453 52 459 52 c 0
 461.666666667 52 465.25 52.1666666667 469.75 52.5 c 0
 474.25 52.8333333333 479.666666667 54 486 56 c 0
 492.333333333 58 499.833333333 61.0833333333 508.5 65.25 c 0
 517.166666667 69.4166666667 527.166666667 75.3333333333 538.5 83 c 0
 538.5 23.5 l 0
 526.833333333 16.5 515.333333333 10.75 504 6.25 c 0
 492.666666667 1.75 481.166666667 -1.91666666667 469.5 -4.75 c 0
 457.833333333 -7.58333333333 445.583333333 -9.58333333333 432.75 -10.75 c 0
 419.916666667 -11.9166666667 406 -12.5 391 -12.5 c 0
 374.333333333 -12.5 359 -6.91666666667 345 4.25 c 0
 331 15.4166666667 318.333333333 29.5 307 46.5 c 0
 295.666666667 63.5 285.833333333 82 277.5 102 c 0
 269.166666667 122 262.333333333 140.833333333 257 158.5 c 0
 254.333333333 154.166666667 250.166666667 147 244.5 137 c 0
 238.833333333 127 231.75 115.666666667 223.25 103 c 0
 214.75 90.3333333333 205.166666667 77.1666666667 194.5 63.5 c 0
 183.833333333 49.8333333333 172.166666667 37.4166666667 159.5 26.25 c 0
 146.833333333 15.0833333333 133.5 5.83333333333 119.5 -1.5 c 0
 105.5 -8.83333333333 91 -12.5 76 -12.5 c 0
 64 -12.5 52.3333333333 -11.1666666667 41 -8.5 c 0
 29.6666666667 -5.83333333333 19.5833333333 -1.91666666667 10.75 3.25 c 0
 1.91666666667 8.41666666667 -5.16666666667 14.8333333333 -10.5 22.5 c 0
 -15.8333333333 30.1666666667 -18.5 39 -18.5 49 c 0
 -18.5 57 -17.5 65.6666666667 -15.5 75 c 0
 -13.5 84.3333333333 -9.41666666667 93 -3.25 101 c 0
 2.91666666667 109 11.8333333333 115.666666667 23.5 121 c 0
 35.1666666667 126.333333333 50.5 129 69.5 129 c 0
 108.5 68.5 l 0
 117.5 76.1666666667 127.333333333 85.6666666667 138 97 c 0
 148.666666667 108.333333333 159.5 121.25 170.5 135.75 c 0
 181.5 150.25 192.083333333 166.166666667 202.25 183.5 c 0
 212.416666667 200.833333333 221.5 219.5 229.5 239.5 c 0
 227.833333333 246.166666667 225.25 255.416666667 221.75 267.25 c 0
 218.25 279.083333333 214.166666667 291.833333333 209.5 305.5 c 0
 204.833333333 319.166666667 199.916666667 333.166666667 194.75 347.5 c 0
 189.583333333 361.833333333 184.5 374.833333333 179.5 386.5 c 0
 174.5 398.166666667 169.916666667 407.75 165.75 415.25 c 0
 161.583333333 422.75 158.166666667 426.666666667 155.5 427 c 0
 54.5 439.5 l 0
 54.5 471 l 0
 58.5 472.666666667 64.5833333333 474.833333333 72.75 477.5 c 0
 80.9166666667 480.166666667 90 483 100 486 c 0
 110 489 120.333333333 492 131 495 c 0
 141.666666667 498 151.666666667 500.75 161 503.25 c 0
 170.333333333 505.75 178.5 507.833333333 185.5 509.5 c 0
 192.5 511.166666667 197.166666667 512 199.5 512 c 0
 215.5 512 229.75 508.166666667 242.25 500.5 c 0
 254.75 492.833333333 266.083333333 481.916666667 276.25 467.75 c 0
 286.416666667 453.583333333 295.666666667 436.5 304 416.5 c 0
 312.333333333 396.5 320.166666667 374 327.5 349 c 0
 339.5 367 352.666666667 385.583333333 367 404.75 c 0
 381.333333333 423.916666667 396.583333333 441.5 412.75 457.5 c 0
 428.916666667 473.5 445.666666667 486.583333333 463 496.75 c 0
 480.333333333 506.916666667 498 512 516 512 c 0
 526.333333333 512 536.583333333 510.416666667 546.75 507.25 c 0
 556.916666667 504.083333333 565.916666667 499.666666667 573.75 494 c 0
 581.583333333 488.333333333 587.916666667 481.5 592.75 473.5 c 0
 597.583333333 465.5 600 456.833333333 600 447.5 c 0
EndSplineSet
EndChar

StartChar: y
Encoding: 92 121 92
Width: 556
VWidth: 500
Flags: HW
LayerCount: 2
Fore
SplineSet
532.5 422 m 0
 528.5 418 522.666666667 410.75 515 400.25 c 0
 507.333333333 389.75 499.416666667 377.916666667 491.25 364.75 c 0
 483.083333333 351.583333333 475.083333333 338 467.25 324 c 0
 459.416666667 310 453.166666667 297.833333333 448.5 287.5 c 0
 441.166666667 271.166666667 432.416666667 251.416666667 422.25 228.25 c 0
 412.083333333 205.083333333 400.75 180.166666667 388.25 153.5 c 0
 375.75 126.833333333 362.25 99.0833333333 347.75 70.25 c 0
 333.25 41.4166666667 318 13.1666666667 302 -14.5 c 0
 285 -44.1666666667 266.75 -72.3333333333 247.25 -99 c 0
 227.75 -125.666666667 206.666666667 -149 184 -169 c 0
 161.333333333 -189 136.833333333 -204.916666667 110.5 -216.75 c 0
 84.1666666667 -228.583333333 55.5 -234.5 24.5 -234.5 c 0
 3.83333333333 -234.5 -13.4166666667 -231.833333333 -27.25 -226.5 c 0
 -41.0833333333 -221.166666667 -52.1666666667 -214.5 -60.5 -206.5 c 0
 -68.8333333333 -198.5 -74.6666666667 -190 -78 -181 c 0
 -81.3333333333 -172 -83 -163.833333333 -83 -156.5 c 0
 -83 -148.166666667 -81.6666666667 -139.166666667 -79 -129.5 c 0
 -76.3333333333 -119.833333333 -71.75 -110.75 -65.25 -102.25 c 0
 -58.75 -93.75 -50.25 -86.6666666667 -39.75 -81 c 0
 -29.25 -75.3333333333 -16 -72.1666666667 0 -71.5 c 0
 44 -149.5 l 0
 90.3333333333 -139.5 141.833333333 -82.5 198.5 21.5 c 0
 197.833333333 25.5 196.166666667 34.3333333333 193.5 48 c 0
 190.833333333 61.6666666667 187.583333333 78.3333333333 183.75 98 c 0
 179.916666667 117.666666667 175.583333333 139.416666667 170.75 163.25 c 0
 165.916666667 187.083333333 160.833333333 211.166666667 155.5 235.5 c 0
 150.5 258.833333333 145.833333333 282.333333333 141.5 306 c 0
 137.166666667 329.666666667 133.166666667 351 129.5 370 c 0
 125.833333333 389 122.5 404.416666667 119.5 416.25 c 0
 116.5 428.083333333 113.833333333 434 111.5 434 c 0
 3 442.5 l 0
 3 474 l 0
 7 475.333333333 12.8333333333 477.25 20.5 479.75 c 0
 28.1666666667 482.25 36.8333333333 484.916666667 46.5 487.75 c 0
 56.1666666667 490.583333333 66.1666666667 493.416666667 76.5 496.25 c 0
 86.8333333333 499.083333333 96.75 501.666666667 106.25 504 c 0
 115.75 506.333333333 124.25 508.25 131.75 509.75 c 0
 139.25 511.25 144.833333333 512 148.5 512 c 0
 159.833333333 512 170.25 511.25 179.75 509.75 c 0
 189.25 508.25 198.083333333 504.25 206.25 497.75 c 0
 214.416666667 491.25 222.083333333 481.25 229.25 467.75 c 0
 236.416666667 454.25 243.666666667 435.5 251 411.5 c 0
 254.333333333 399.833333333 258 386.083333333 262 370.25 c 0
 266 354.416666667 270 337.416666667 274 319.25 c 0
 278 301.083333333 282.166666667 282.166666667 286.5 262.5 c 0
 290.833333333 242.833333333 295 223 299 203 c 0
 439.5 512 l 0
 488.5 512 l 0
 585.5 481.5 l 0
 585.5 454.5 l 0
 532.5 422 l 0
EndSplineSet
EndChar

StartChar: z
Encoding: 93 122 93
Width: 503
VWidth: 500
Flags: HW
LayerCount: 2
Fore
SplineSet
172 94 m 0
 236.5 107.5 l 0
 254.833333333 97.8333333333 270 90 282 84 c 0
 294 78 305.833333333 75 317.5 75 c 0
 321.166666667 75 326.166666667 75.8333333333 332.5 77.5 c 0
 338.833333333 79.1666666667 345.416666667 81.3333333333 352.25 84 c 0
 359.083333333 86.6666666667 365.333333333 89.75 371 93.25 c 0
 376.666666667 96.75 380.666666667 100.5 383 104.5 c 0
 321.5 170 l 0
 323.166666667 172.333333333 326.666666667 175.75 332 180.25 c 0
 337.333333333 184.75 343.666666667 189.083333333 351 193.25 c 0
 358.333333333 197.416666667 366.25 201.083333333 374.75 204.25 c 0
 383.25 207.416666667 391.833333333 209 400.5 209 c 0
 411.5 209 421 206.333333333 429 201 c 0
 437 195.666666667 443.583333333 189.166666667 448.75 181.5 c 0
 453.916666667 173.833333333 457.75 165.583333333 460.25 156.75 c 0
 462.75 147.916666667 464 140 464 133 c 0
 464 116.666666667 459.25 99.9166666667 449.75 82.75 c 0
 440.25 65.5833333333 427.333333333 50 411 36 c 0
 394.666666667 22 375.833333333 10.5833333333 354.5 1.75 c 0
 333.166666667 -7.08333333333 310.5 -11.5 286.5 -11.5 c 0
 269.166666667 -11.5 252.75 -9.25 237.25 -4.75 c 0
 221.75 -0.25 207.833333333 4.66666666667 195.5 10 c 0
 183.166666667 15.3333333333 172.75 20.25 164.25 24.75 c 0
 155.75 29.25 149.833333333 31.5 146.5 31.5 c 0
 141.833333333 31.5 137.583333333 31.25 133.75 30.75 c 0
 129.916666667 30.25 127 28.5 125 25.5 c 0
 87 -40 l 0
 -16.5 16.5 l 0
 321.5 405.5 l 0
 257 392 l 0
 239 401.666666667 224.083333333 409.583333333 212.25 415.75 c 0
 200.416666667 421.916666667 188.666666667 425 177 425 c 0
 173.333333333 425 168.333333333 424.166666667 162 422.5 c 0
 155.666666667 420.833333333 149.166666667 418.583333333 142.5 415.75 c 0
 135.833333333 412.916666667 129.583333333 409.75 123.75 406.25 c 0
 117.916666667 402.75 113.833333333 399.166666667 111.5 395.5 c 0
 172 331 l 0
 170.333333333 328 167 324.25 162 319.75 c 0
 157 315.25 150.833333333 310.916666667 143.5 306.75 c 0
 136.166666667 302.583333333 128.166666667 298.916666667 119.5 295.75 c 0
 110.833333333 292.583333333 102.333333333 291 94 291 c 0
 83 291 73.5 293.666666667 65.5 299 c 0
 57.5 304.333333333 50.9166666667 310.833333333 45.75 318.5 c 0
 40.5833333333 326.166666667 36.75 334.333333333 34.25 343 c 0
 31.75 351.666666667 30.5 359.5 30.5 366.5 c 0
 30.5 382.833333333 35.25 399.583333333 44.75 416.75 c 0
 54.25 433.916666667 67.1666666667 449.583333333 83.5 463.75 c 0
 99.8333333333 477.916666667 118.666666667 489.5 140 498.5 c 0
 161.333333333 507.5 184 512 208 512 c 0
 225.333333333 512 241.75 509.666666667 257.25 505 c 0
 272.75 500.333333333 286.666666667 495.25 299 489.75 c 0
 311.333333333 484.25 321.75 479.25 330.25 474.75 c 0
 338.75 470.25 344.666666667 468 348 468 c 0
 352.666666667 468 356.75 468.333333333 360.25 469 c 0
 363.75 469.666666667 366.833333333 471.333333333 369.5 474 c 0
 397.5 538.5 l 0
 510 481.5 l 0
 172 94 l 0
EndSplineSet
EndChar

StartChar: braceleft
Encoding: 94 123 94
Width: 507
VWidth: 500
Flags: HW
LayerCount: 2
Fore
SplineSet
511 666.5 m 0
 498.333333333 666.5 485.833333333 665.666666667 473.5 664 c 0
 462.833333333 662.333333333 451.583333333 659.666666667 439.75 656 c 0
 427.916666667 652.333333333 417.166666667 646.666666667 407.5 639 c 0
 395.5 629 386.166666667 616.583333333 379.5 601.75 c 0
 372.833333333 586.916666667 367.416666667 570.75 363.25 553.25 c 0
 359.083333333 535.75 355.333333333 517.5 352 498.5 c 0
 348.666666667 479.5 344.166666667 460.75 338.5 442.25 c 0
 332.833333333 423.75 325.25 406 315.75 389 c 0
 306.25 372 293.166666667 357 276.5 344 c 0
 263.5 333.666666667 250.583333333 325.5 237.75 319.5 c 0
 224.916666667 313.5 213.166666667 309 202.5 306 c 0
 191.833333333 303 182.5 301 174.5 300 c 0
 168.833333333 299.333333333 164.5 299 161.5 299 c 0
 164.5 298.666666667 168.666666667 298.166666667 174 297.5 c 0
 181.333333333 296.5 189.75 294.416666667 199.25 291.25 c 0
 208.75 288.083333333 218.75 283.5 229.25 277.5 c 0
 239.75 271.5 249.333333333 263.333333333 258 253 c 0
 269.333333333 239.666666667 276.416666667 224.583333333 279.25 207.75 c 0
 282.083333333 190.916666667 282.75 173.25 281.25 154.75 c 0
 279.75 136.25 276.833333333 117.583333333 272.5 98.75 c 0
 268.166666667 79.9166666667 264.75 61.8333333333 262.25 44.5 c 0
 259.75 27.1666666667 258.916666667 11.0833333333 259.75 -3.75 c 0
 260.583333333 -18.5833333333 265.166666667 -31 273.5 -41 c 0
 279.833333333 -48.6666666667 288.166666667 -54.3333333333 298.5 -58 c 0
 308.833333333 -61.6666666667 318.833333333 -64.3333333333 328.5 -66 c 0
 339.833333333 -67.6666666667 351.833333333 -68.5 364.5 -68.5 c 0
 353.5 -125 l 0
 333.5 -125 l 0
 324.5 -125 314 -124.75 302 -124.25 c 0
 290 -123.75 277.083333333 -122.75 263.25 -121.25 c 0
 249.416666667 -119.75 236 -117.416666667 223 -114.25 c 0
 210 -111.083333333 197.916666667 -107 186.75 -102 c 0
 175.583333333 -97 166.5 -90.6666666667 159.5 -83 c 0
 146.833333333 -69.3333333333 138.833333333 -53.1666666667 135.5 -34.5 c 0
 132.166666667 -15.8333333333 131.416666667 3.75 133.25 24.25 c 0
 135.083333333 44.75 138.416666667 65.5833333333 143.25 86.75 c 0
 148.083333333 107.916666667 152.25 128.166666667 155.75 147.5 c 0
 159.25 166.833333333 160.916666667 184.5 160.75 200.5 c 0
 160.583333333 216.5 156.5 229.5 148.5 239.5 c 0
 140.5 249.5 130.416666667 256.583333333 118.25 260.75 c 0
 106.083333333 264.916666667 94.3333333333 267.666666667 83 269 c 0
 69.6666666667 270.333333333 56 270.166666667 42 268.5 c 0
 53 329.5 l 0
 67 327.5 80.8333333333 327.166666667 94.5 328.5 c 0
 106.166666667 329.5 118.916666667 332.083333333 132.75 336.25 c 0
 146.583333333 340.416666667 159.333333333 347.5 171 357.5 c 0
 183 367.5 192.25 380.583333333 198.75 396.75 c 0
 205.25 412.916666667 210.583333333 430.666666667 214.75 450 c 0
 218.916666667 469.333333333 222.916666667 489.666666667 226.75 511 c 0
 230.583333333 532.333333333 235.666666667 553.25 242 573.75 c 0
 248.333333333 594.25 256.916666667 613.833333333 267.75 632.5 c 0
 278.583333333 651.166666667 293.166666667 667.333333333 311.5 681 c 0
 321.5 688.666666667 333.083333333 695 346.25 700 c 0
 359.416666667 705 373.083333333 709.083333333 387.25 712.25 c 0
 401.416666667 715.416666667 415.666666667 717.75 430 719.25 c 0
 444.333333333 720.75 457.583333333 721.75 469.75 722.25 c 0
 481.916666667 722.75 492.5 723 501.5 723 c 0
 521 723 l 0
 511 666.5 l 0
EndSplineSet
EndChar

StartChar: bar
Encoding: 95 124 95
Width: 407
VWidth: 500
Flags: HW
LayerCount: 2
Fore
SplineSet
160 -264 m 0
 160 815 l 0
 247.5 815 l 0
 247.5 -264 l 0
 160 -264 l 0
EndSplineSet
EndChar

StartChar: braceright
Encoding: 96 125 96
Width: 507
VWidth: 500
Flags: HW
LayerCount: 2
Fore
SplineSet
465 268.5 m 0
 451 270.166666667 437.166666667 270.333333333 423.5 269 c 0
 411.5 267.666666667 398.583333333 264.916666667 384.75 260.75 c 0
 370.916666667 256.583333333 358 249.5 346 239.5 c 0
 334 229.166666667 324.833333333 216 318.5 200 c 0
 312.166666667 184 306.916666667 166.333333333 302.75 147 c 0
 298.583333333 127.666666667 294.666666667 107.416666667 291 86.25 c 0
 287.333333333 65.0833333333 282.333333333 44.25 276 23.75 c 0
 269.666666667 3.25 261.25 -16.25 250.75 -34.75 c 0
 240.25 -53.25 226 -69.3333333333 208 -83 c 0
 198 -90.6666666667 186.333333333 -97 173 -102 c 0
 159.666666667 -107 145.833333333 -111.083333333 131.5 -114.25 c 0
 117.166666667 -117.416666667 102.833333333 -119.75 88.5 -121.25 c 0
 74.1666666667 -122.75 60.9166666667 -123.75 48.75 -124.25 c 0
 36.5833333333 -124.75 25.8333333333 -125 16.5 -125 c 0
 -3 -125 l 0
 8 -68.5 l 0
 20.3333333333 -68.5 32.6666666667 -67.6666666667 45 -66 c 0
 55.6666666667 -64.3333333333 66.8333333333 -61.6666666667 78.5 -58 c 0
 90.1666666667 -54.3333333333 100.833333333 -48.6666666667 110.5 -41 c 0
 122.5 -31 131.833333333 -18.6666666667 138.5 -4 c 0
 145.166666667 10.6666666667 150.583333333 26.6666666667 154.75 44 c 0
 158.916666667 61.3333333333 162.583333333 79.4166666667 165.75 98.25 c 0
 168.916666667 117.083333333 173.333333333 135.75 179 154.25 c 0
 184.666666667 172.75 192.166666667 190.5 201.5 207.5 c 0
 210.833333333 224.5 223.833333333 239.666666667 240.5 253 c 0
 252.833333333 263 265.333333333 271 278 277 c 0
 290.666666667 283 302.416666667 287.583333333 313.25 290.75 c 0
 324.083333333 293.916666667 333.5 296 341.5 297 c 0
 349.5 298 355.166666667 298.666666667 358.5 299 c 0
 356.166666667 299 351.333333333 299.333333333 344 300 c 0
 336.666666667 300.666666667 328.166666667 302.5 318.5 305.5 c 0
 308.833333333 308.5 298.75 313 288.25 319 c 0
 277.75 325 268 333.333333333 259 344 c 0
 247.666666667 357.333333333 240.583333333 372.5 237.75 389.5 c 0
 234.916666667 406.5 234.333333333 424.25 236 442.75 c 0
 237.666666667 461.25 240.583333333 480 244.75 499 c 0
 248.916666667 518 252.333333333 536.25 255 553.75 c 0
 257.666666667 571.25 258.666666667 587.333333333 258 602 c 0
 257.333333333 616.666666667 252.833333333 629 244.5 639 c 0
 238.166666667 646.666666667 229.916666667 652.333333333 219.75 656 c 0
 209.583333333 659.666666667 199.666666667 662.333333333 190 664 c 0
 178.666666667 665.666666667 166.5 666.5 153.5 666.5 c 0
 165 723 l 0
 184.5 723 l 0
 193.833333333 723 204.5 722.75 216.5 722.25 c 0
 228.5 721.75 241.333333333 720.75 255 719.25 c 0
 268.666666667 717.75 282.083333333 715.416666667 295.25 712.25 c 0
 308.416666667 709.083333333 320.583333333 705 331.75 700 c 0
 342.916666667 695 352.166666667 688.666666667 359.5 681 c 0
 372.166666667 667 380.083333333 650.75 383.25 632.25 c 0
 386.416666667 613.75 387 594.25 385 573.75 c 0
 383 553.25 379.583333333 532.333333333 374.75 511 c 0
 369.916666667 489.666666667 365.75 469.333333333 362.25 450 c 0
 358.75 430.666666667 357.083333333 412.916666667 357.25 396.75 c 0
 357.416666667 380.583333333 361.5 367.5 369.5 357.5 c 0
 377.5 347.5 387.5 340.416666667 399.5 336.25 c 0
 411.5 332.083333333 423.166666667 329.5 434.5 328.5 c 0
 447.833333333 327.166666667 461.666666667 327.5 476 329.5 c 0
 465 268.5 l 0
EndSplineSet
EndChar

StartChar: asciitilde
Encoding: 97 126 97
Width: 853
VWidth: 500
Flags: HW
LayerCount: 2
Fore
SplineSet
382.5 153.5 m 0
 372.166666667 146.166666667 362.541666667 140 353.625 135 c 0
 344.708333333 130 336.291666667 126 328.375 123 c 0
 320.458333333 120 312.833333333 117.875 305.5 116.625 c 0
 298.166666667 115.375 290.916666667 114.75 283.75 114.75 c 0
 271.25 114.75 259.125 116.541666667 247.375 120.125 c 0
 235.625 123.708333333 223.958333333 127.625 212.375 131.875 c 0
 200.791666667 136.125 189.083333333 140.041666667 177.25 143.625 c 0
 165.416666667 147.208333333 153.25 149 140.75 149 c 0
 128.916666667 149 115.166666667 145.375 99.5 138.125 c 0
 83.8333333333 130.875 65.3333333333 119.166666667 44 103 c 0
 44 151.5 l 0
 63.3333333333 166.166666667 81.3333333333 176.416666667 98 182.25 c 0
 114.666666667 188.083333333 129.916666667 191 143.75 191 c 0
 153.416666667 191 162.833333333 189.958333333 172 187.875 c 0
 181.166666667 185.791666667 190.208333333 183.25 199.125 180.25 c 0
 208.041666667 177.25 216.916666667 174.041666667 225.75 170.625 c 0
 234.583333333 167.208333333 243.5 164.25 252.5 161.75 c 0
 257.833333333 160.25 263.166666667 159.041666667 268.5 158.125 c 0
 273.833333333 157.208333333 279.083333333 156.75 284.25 156.75 c 0
 289.75 156.75 295.666666667 157.416666667 302 158.75 c 0
 308.333333333 160.083333333 315.458333333 162.458333333 323.375 165.875 c 0
 331.291666667 169.291666667 340.083333333 173.958333333 349.75 179.875 c 0
 359.416666667 185.791666667 370.333333333 193.25 382.5 202.25 c 0
 382.5 153.5 l 0
EndSplineSet
EndChar

StartChar: inherent
Encoding: 103 -1 98
Width: 172
Flags: HW
LayerCount: 2
Fore
SplineSet
340 735 m 2
 332 696.333333333 307.166666667 662.333333333 265.5 633 c 128
 223.833333333 603.666666667 174.333333333 589 117 589 c 1
 139 695 l 1
 157.666666667 695 172.333333333 699.666666667 183 709 c 1
 195 716.333333333 202.333333333 725 205 735 c 1
 219 806 l 1
 354 806 l 1
 340 735 l 2
EndSplineSet
EndChar

StartChar: makewide
Encoding: 104 -1 99
Width: 347
Flags: HW
LayerCount: 2
Fore
SplineSet
488 138 m 2
 480 100.666666667 461 68.3333333333 431 41 c 128
 401 13.6666666667 369 0 335 0 c 2
 186 1 l 2
 168.666666667 1 152.833333333 3 138.5 7 c 128
 124.166666667 11 109.333333333 17.6666666667 94 27 c 128
 78.6666666667 36.3333333333 65.6666666667 47 55 59 c 128
 44.3333333333 71 33 87 21 107 c 1
 53 261 l 1
 74 265 l 1
 86 219.666666667 107.666666667 182.666666667 139 154 c 1
 167 126.666666667 197.666666667 113 231 113 c 2
 324 113 l 2
 331.333333333 113 337.333333333 116.666666667 342 124 c 0
 351.333333333 136.666666667 356.666666667 147 358 155 c 2
 429 493 l 2
 430.333333333 500.333333333 431 505.666666667 431 509 c 0
 431 521 427 533.333333333 419 546 c 1
 407 558.666666667 390.333333333 565 369 565 c 2
 260 565 l 1
 283 678 l 1
 530 678 l 1
 536 583 l 1
 556 561 566 538.333333333 566 515 c 0
 566 510.333333333 565.333333333 504.333333333 564 497 c 2
 488 138 l 2
EndSplineSet
EndChar

StartChar: shortrr
Encoding: 105 -1 100
Width: 821
Flags: HW
LayerCount: 2
Fore
SplineSet
964 569 m 1
 475 569 l 2
 461 569 450.333333333 566.666666667 443 562 c 128
 435.666666667 557.333333333 430.666666667 550.333333333 428 541 c 2
 410 463 l 1
 410 450.333333333 414.333333333 439.833333333 423 431.5 c 128
 431.666666667 423.166666667 443.333333333 419 458 419 c 2
 647 419 l 1
 622 306 l 1
 434 306 l 2
 418.666666667 306 405 302.333333333 393 295 c 0
 387 291.666666667 382.5 287.5 379.5 282.5 c 128
 376.5 277.5 374.333333333 272 373 266 c 2
 351 168 l 1
 349.666666667 153.333333333 351.666666667 142.333333333 357 135 c 1
 361.666666667 124.333333333 367.666666667 118.666666667 375 118 c 1
 471 118 l 1
 448 5 l 1
 307 5 l 2
 274.333333333 5 248 16.6666666667 228 40 c 0
 213.333333333 57.3333333333 206 76 206 96 c 0
 206 100.666666667 206.666666667 108.333333333 208 119 c 1
 240 273 l 2
 245.333333333 299 259 321.666666667 281 341 c 1
 283.666666667 342.333333333 291 346.5 303 353.5 c 128
 315 360.5 323.333333333 364.666666667 328 366 c 1
 292 391 l 1
 282 405.666666667 277 421.333333333 277 438 c 0
 277 446 277.333333333 451.666666667 278 455 c 2
 303 574 l 2
 310.333333333 608 329.333333333 633.666666667 360 651 c 1
 386.666666667 670.333333333 420 680 460 680 c 2
 992 680 l 1
 964 569 l 1
EndSplineSet
EndChar

StartChar: anusvara
Encoding: 107 3202 101
Width: 786
Flags: HW
LayerCount: 2
Fore
SplineSet
831 156 m 2
 821.666666667 113.333333333 800 77.3333333333 766 48 c 1
 732.666666667 16.6666666667 696.666666667 1 658 1 c 2
 344 1 l 2
 299.333333333 1 264 18 238 52 c 1
 218.666666667 74 209 101 209 133 c 0
 209 143 210.333333333 154.333333333 213 167 c 2
 290 533 l 1
 300 575.666666667 324 610.333333333 362 637 c 1
 380.666666667 651.666666667 400.5 662.166666667 421.5 668.5 c 128
 442.5 674.833333333 465 678 489 678 c 2
 775 678 l 2
 820.333333333 678 856.333333333 662.666666667 883 632 c 0
 902.333333333 610 912 583.666666667 912 553 c 0
 912 542.333333333 910.666666667 531.666666667 908 521 c 2
 831 156 l 2
700 176 m 1
 771 513 l 2
 771.666666667 516.333333333 772 521 772 527 c 0
 772 535.666666667 768.5 544.166666667 761.5 552.5 c 128
 754.5 560.833333333 744 565 730 565 c 2
 501 565 l 2
 481.666666667 565 463.333333333 560.333333333 446 551 c 1
 432 541.666666667 423.666666667 531 421 519 c 2
 349 174 l 2
 345.666666667 157.333333333 350.166666667 142.5 362.5 129.5 c 128
 374.833333333 116.5 390.666666667 110 410 110 c 2
 634 110 l 2
 648 110 661.666666667 116.166666667 675 128.5 c 128
 688.333333333 140.833333333 696.666666667 156.666666667 700 176 c 1
EndSplineSet
EndChar

StartChar: u0C83
Encoding: 108 3203 102
Width: 508
Flags: HW
LayerCount: 2
Fore
SplineSet
645 461 m 2
 639.666666667 433.666666667 623.666666667 410 597 390 c 1
 573.666666667 370 545.666666667 360 513 360 c 2
 354 360 l 2
 318.666666667 360 292.666666667 371 276 393 c 1
 261.333333333 408.333333333 254 426.666666667 254 448 c 0
 254 456.666666667 254.333333333 463.666666667 255 469 c 2
 277 574 l 2
 283 605.333333333 300.333333333 631 329 651 c 128
 357.666666667 671 388.666666667 681 422 681 c 2
 566 681 l 2
 590 681 609 676 623 666 c 1
 631 662.666666667 638 657.5 644 650.5 c 128
 650 643.5 655.5 634.5 660.5 623.5 c 128
 665.5 612.5 668 601.666666667 668 591 c 0
 668 585.666666667 667.333333333 578.333333333 666 569 c 2
 645 461 l 2
571 117 m 2
 565 85.6666666667 549.5 58.6666666667 524.5 36 c 128
 499.5 13.3333333333 473 2 445 2 c 2
 277 3 l 2
 245.666666667 3 219.333333333 13.6666666667 198 35 c 1
 183.333333333 52.3333333333 176 70.6666666667 176 90 c 0
 176 93.3333333333 176.666666667 100.333333333 178 111 c 1
 200 216 l 2
 206 247.333333333 223.666666667 273.166666667 253 293.5 c 128
 282.333333333 313.833333333 313.333333333 324 346 324 c 2
 490 324 l 2
 526 324 552.333333333 312.333333333 569 289 c 1
 583.666666667 273.666666667 591 254 591 230 c 0
 591 226 590.333333333 217.666666667 589 205 c 1
 571 117 l 2
514 489 m 2
 526 549 l 2
 526.666666667 552.333333333 526.333333333 555.5 525 558.5 c 128
 523.666666667 561.5 522.666666667 563.833333333 522 565.5 c 128
 521.333333333 567.166666667 517 568 509 568 c 2
 444 568 l 2
 433.333333333 568 424.833333333 566.166666667 418.5 562.5 c 128
 412.166666667 558.833333333 408.333333333 554 407 548 c 2
 395 497 l 1
 395.666666667 489.666666667 398 483.666666667 402 479 c 128
 406 474.333333333 411.666666667 472 419 472 c 2
 490 472 l 1
 495.333333333 473.333333333 500 474.833333333 504 476.5 c 128
 508 478.166666667 510.666666667 479.833333333 512 481.5 c 128
 513.333333333 483.166666667 514 485.666666667 514 489 c 2
440 129 m 1
 452 190 l 2
 453.333333333 197.333333333 452.666666667 202.333333333 450 205 c 2
 446 209 l 1
 361 209 l 1
 340 205 l 1
 334.666666667 201.666666667 331.666666667 198.666666667 331 196 c 2
 317 139 l 1
 321 120 l 1
 322.333333333 117.333333333 323.833333333 115.666666667 325.5 115 c 128
 327.166666667 114.333333333 328.333333333 114 329 114 c 2
 415 114 l 2
 419.666666667 114 424.666666667 115.333333333 430 118 c 1
 440 129 l 1
EndSplineSet
EndChar

StartChar: avowel
Encoding: 109 3205 103
Width: 1021
Flags: HW
LayerCount: 2
Fore
SplineSet
1096 144 m 2
 1088 104 1065.33333333 70.6666666667 1028 44 c 1
 994 15.3333333333 955.333333333 1 912 1 c 2
 358 2 l 2
 310.666666667 2 273.666666667 16 247 44 c 1
 236.333333333 54 228.666666667 64.8333333333 224 76.5 c 128
 219.333333333 88.1666666667 217 101.333333333 217 116 c 0
 217 121.333333333 217.666666667 130.333333333 219 143 c 1
 302 540 l 2
 310 580.666666667 331.666666667 614.166666667 367 640.5 c 128
 402.333333333 666.833333333 441 680 483 680 c 2
 680 680 l 1
 630 448 l 1
 496 448 l 1
 522 567 l 1
 487 567 l 2
 474.333333333 567 463 561.666666667 453 551 c 0
 439 535.666666667 430.333333333 519 427 501 c 2
 359 178 l 2
 356.333333333 165.333333333 360 150.666666667 370 134 c 1
 385.333333333 121.333333333 401.666666667 115 419 115 c 2
 883 115 l 2
 891 115 897.333333333 115.666666667 902 117 c 128
 906.666666667 118.333333333 912 120.5 918 123.5 c 128
 924 126.5 930 131.166666667 936 137.5 c 128
 942 143.833333333 947.666666667 150 953 156 c 0
 962.333333333 168 968.333333333 181.333333333 971 196 c 2
 1041 526 l 2
 1043.66666667 536.666666667 1041.33333333 547 1034 557 c 1
 1028 563 1018 566 1004 566 c 2
 972 566 l 1
 958 506 l 2
 957.333333333 502.666666667 957 498 957 492 c 0
 957 465.333333333 974.666666667 438.666666667 1010 412 c 1
 987 305 l 1
 535 305 l 1
 560 418 l 1
 848 418 l 1
 829.333333333 442 820 464 820 484 c 0
 820 491.333333333 820.333333333 496.333333333 821 499 c 2
 860 680 l 1
 1040 680 l 2
 1069.33333333 680 1096 674 1120 662 c 128
 1144 650 1161 634.333333333 1171 615 c 1
 1178.33333333 603 1182 588.666666667 1182 572 c 0
 1182 566.666666667 1181.33333333 558.666666667 1180 548 c 1
 1096 144 l 2
EndSplineSet
EndChar

StartChar: aavowel
Encoding: 110 3206 104
Width: 1093
Flags: HW
LayerCount: 2
Fore
SplineSet
1243 485 m 1
 1235 444.333333333 1214.66666667 411.666666667 1182 387 c 1
 1163.33333333 371.666666667 1145.66666667 360.5 1129 353.5 c 128
 1112.33333333 346.5 1094 343 1074 343 c 2
 1055 343 l 1
 1069.66666667 321 1076.33333333 303 1075 289 c 1
 1038 113 l 2
 1032 81.6666666667 1012.33333333 55 979 33 c 0
 963.666666667 23 947 15.3333333333 929 10 c 128
 911 4.66666666667 890.333333333 2 867 2 c 2
 337 6 l 2
 297 6 266.333333333 20 245 48 c 1
 228.333333333 66 220 88 220 114 c 0
 220 124.666666667 221.333333333 135.333333333 224 146 c 2
 308 543 l 2
 312.666666667 562.333333333 320.833333333 580.333333333 332.5 597 c 128
 344.166666667 613.666666667 360.666666667 629.333333333 382 644 c 1
 424.666666667 670 470.666666667 683 520 683 c 2
 674 683 l 1
 624 451 l 1
 490 451 l 1
 516 570 l 1
 502 570 l 2
 486.666666667 570 473.166666667 565.333333333 461.5 556 c 128
 449.833333333 546.666666667 442.666666667 536 440 524 c 2
 368 179 l 2
 366.666666667 169.666666667 366 163.666666667 366 161 c 0
 366 153 368.666666667 144 374 134 c 1
 384.666666667 121.333333333 397.666666667 115 413 115 c 2
 844 115 l 2
 858.666666667 115 873.333333333 121.333333333 888 134 c 0
 896 141.333333333 902.5 148.5 907.5 155.5 c 128
 912.5 162.5 915.666666667 170.666666667 917 180 c 2
 940 291 l 2
 942.666666667 305.666666667 936.333333333 323.666666667 921 345 c 1
 622 345 l 1
 647 458 l 1
 894 458 l 1
 884.666666667 476.666666667 881.333333333 490 884 498 c 1
 900 577 l 2
 905.333333333 606.333333333 923.5 630.5 954.5 649.5 c 128
 985.5 668.5 1020 678 1058 678 c 2
 1150 678 l 2
 1188.66666667 678 1216.83333333 667.5 1234.5 646.5 c 128
 1252.16666667 625.5 1261 604 1261 582 c 0
 1261 577.333333333 1260.33333333 569.666666667 1259 559 c 1
 1243 485 l 1
1108 492 m 2
 1117 538 l 2
 1117.66666667 540.666666667 1118 543.5 1118 546.5 c 128
 1118 551 1118 551 1118 552 c 0
 1118 561.333333333 1114 566 1106 566 c 2
 1063 566 l 2
 1052.33333333 566 1043.83333333 563 1037.5 557 c 128
 1031.16666667 551 1027.66666667 544.333333333 1027 537 c 1
 1020 505 l 2
 1016.66666667 489.666666667 1020.33333333 473.333333333 1031 456 c 1
 1074 456 l 2
 1081.33333333 456 1088.5 459.666666667 1095.5 467 c 128
 1102.5 474.333333333 1106.66666667 482.666666667 1108 492 c 2
EndSplineSet
EndChar

StartChar: ivowel
Encoding: 111 3207 105
Width: 824
Flags: HW
LayerCount: 2
Fore
SplineSet
863 0 m 1
 781 0 l 2
 745 0 714.666666667 11 690 33 c 1
 673.333333333 51.6666666667 665 72 665 94 c 0
 665 98.6666666667 665.666666667 105.666666667 667 115 c 2
 678 171 l 1
 573 171 l 2
 539 171 512.666666667 180.666666667 494 200 c 1
 484.666666667 206 478.166666667 213.333333333 474.5 222 c 128
 470.833333333 230.666666667 469 240 469 250 c 0
 469 257.333333333 469.333333333 262.666666667 470 266 c 2
 485 337 l 1
 488.333333333 359 503.333333333 377.666666667 530 393 c 1
 556 405.666666667 584.666666667 412 616 412 c 2
 739 412 l 2
 760.333333333 412 778.333333333 406 793 394 c 1
 808 380 l 1
 838 529 l 1
 840.666666667 538.333333333 838.166666667 546.166666667 830.5 552.5 c 128
 822.833333333 558.833333333 809.666666667 562 791 562 c 2
 713 562 l 2
 701 562 692.333333333 561.333333333 687 560 c 128
 681.666666667 558.666666667 674 554.833333333 664 548.5 c 128
 654 542.166666667 647.666666667 533 645 521 c 2
 629 444 l 1
 495 444 l 1
 510 516 l 2
 512.666666667 528 509.333333333 538.666666667 500 548 c 128
 490.666666667 557.333333333 476.666666667 562 458 562 c 2
 363 562 l 2
 347.666666667 562 334.5 558.166666667 323.5 550.5 c 128
 312.5 542.833333333 305.666666667 533 303 521 c 2
 288 457 l 1
 288 440.333333333 290.666666667 430.333333333 296 427 c 1
 301.333333333 417.666666667 308.666666667 413 318 413 c 2
 353 413 l 1
 328 300 l 1
 267 301 l 2
 226.333333333 301 195.333333333 314.333333333 174 341 c 1
 156.666666667 359.666666667 148 382.333333333 148 409 c 0
 148 413.666666667 148.666666667 422.333333333 150 435 c 1
 171 534 l 2
 177 562 189.333333333 586.666666667 208 608 c 128
 226.666666667 629.333333333 249.666666667 645.333333333 277 656 c 1
 301.666666667 668 328.666666667 674 358 674 c 2
 495 674 l 2
 527 674 551.333333333 667.666666667 568 655 c 1
 580 649 590 638.333333333 598 623 c 1
 600.666666667 626.333333333 605.5 631.5 612.5 638.5 c 128
 619.5 645.5 627.666666667 650.666666667 637 654 c 1
 658.333333333 668 682 675 708 675 c 2
 838 675 l 2
 887.333333333 675 923.666666667 661.666666667 947 635 c 1
 967 615 977 590.333333333 977 561 c 0
 977 551.666666667 975.666666667 541.666666667 973 531 c 2
 938 365 l 2
 925.333333333 306.333333333 885 250.666666667 817 198 c 1
 803 135 l 2
 801.666666667 127.666666667 802.333333333 122.333333333 805 119 c 1
 813 113.666666667 818.333333333 111 821 111 c 2
 884 111 l 1
 863 0 l 1
698 283 m 1
 699 287 l 2
 701.666666667 297 696.666666667 302 684 302 c 2
 619 302 l 2
 615.666666667 302 613.333333333 301.666666667 612 301 c 1
 610 294 l 1
 610 289 l 1
 610.666666667 287.666666667 611.666666667 286.666666667 613 286 c 128
 614.333333333 285.333333333 615.333333333 285 616 285 c 2
 698 283 l 1
EndSplineSet
EndChar

StartChar: iivowel
Encoding: 112 3208 106
Width: 1281
Flags: HW
LayerCount: 2
Fore
SplineSet
1409 404 m 1
 1403.66666667 376 1387 348 1359 320 c 1
 1334.33333333 298 1305.66666667 280.666666667 1273 268 c 1
 1313 211.333333333 1331.33333333 173.333333333 1328 154 c 1
 1314 87 l 2
 1311.33333333 75 1307.5 64.8333333333 1302.5 56.5 c 128
 1297.5 48.1666666667 1290 39 1280 29 c 1
 1260 11.6666666667 1240 3 1220 3 c 2
 975 3 l 1
 998 116 l 1
 1158 116 l 2
 1163.33333333 116 1169.66666667 119.166666667 1177 125.5 c 128
 1184.33333333 131.833333333 1188.33333333 136.666666667 1189 140 c 2
 1190 145 l 2
 1192.66666667 159 1186.66666667 172.333333333 1172 185 c 1
 1119 253 l 1
 904 253 l 1
 881 139 l 2
 873 101.666666667 851.333333333 69.6666666667 816 43 c 1
 782.666666667 15 745.666666667 1 705 1 c 2
 346 2 l 2
 310.666666667 2 283.333333333 14 264 38 c 1
 248.666666667 54.6666666667 241 75.3333333333 241 100 c 0
 241 105.333333333 241.666666667 113.333333333 243 124 c 1
 269 251 l 1
 156 251 l 1
 181 364 l 1
 294 364 l 1
 309 441 l 1
 318.333333333 483.666666667 349.333333333 526.333333333 402 569 c 1
 323 569 l 1
 346 682 l 1
 872 682 l 2
 882.666666667 682 891.5 685.666666667 898.5 693 c 128
 905.5 700.333333333 909.333333333 706.666666667 910 712 c 2
 922 775 l 1
 1059 775 l 1
 1047 712 l 1
 1039 674.666666667 1018.66666667 643 986 617 c 1
 964 595 936 579.333333333 902 570 c 1
 918.666666667 556 932 540.166666667 942 522.5 c 128
 952 504.833333333 955.666666667 486.666666667 953 468 c 1
 931 363 l 1
 1045 363 l 1
 1039 375 1036 389.666666667 1036 407 c 0
 1036 417.666666667 1036.66666667 426 1038 432 c 2
 1053 504 l 2
 1060.33333333 538 1078.66666667 566.666666667 1108 590 c 1
 1134.66666667 613.333333333 1166 625 1202 625 c 2
 1322 625 l 2
 1360 625 1388.33333333 612.666666667 1407 588 c 1
 1423.66666667 569.333333333 1432 548 1432 524 c 0
 1432 512 1431.33333333 503 1430 497 c 2
 1409 404 l 1
1276 413 m 1
 1291 485 l 2
 1291.66666667 488.333333333 1291.16666667 492 1289.5 496 c 128
 1287.83333333 500 1286.16666667 503.5 1284.5 506.5 c 128
 1282.83333333 509.5 1278 511 1270 511 c 2
 1214 511 l 2
 1204.66666667 511 1198.66666667 509.333333333 1196 506 c 2
 1185 490 l 1
 1169 414 l 1
 1168.33333333 404.666666667 1170.33333333 396 1175 388 c 1
 1215 360 l 1
 1227 362.666666667 1238.33333333 368 1249 376 c 0
 1263.66666667 388 1272.66666667 400.333333333 1276 413 c 1
793 364 m 1
 816 474 l 2
 816.666666667 477.333333333 817 480.833333333 817 484.5 c 128
 817 490 817 490 817 492 c 0
 817 523.333333333 801.666666667 548.666666667 771 568 c 1
 553 568 l 1
 489.666666667 530.666666667 453.333333333 489.333333333 444 444 c 2
 426 362 l 1
 793 364 l 1
753 175 m 1
 768 249 l 1
 402 249 l 1
 384 161 l 2
 381.333333333 149 383.666666667 137 391 125 c 1
 399 115 408 110 418 110 c 2
 675 110 l 2
 682.333333333 110 689.5 111.5 696.5 114.5 c 128
 703.5 117.5 711 121.666666667 719 127 c 1
 736.333333333 141.666666667 747.666666667 157.666666667 753 175 c 1
EndSplineSet
EndChar

